<?xml version="1.0" encoding="utf-8" standalone="no"?>
<!DOCTYPE svg PUBLIC "-//W3C//DTD SVG 1.1//EN"
  "http://www.w3.org/Graphics/SVG/1.1/DTD/svg11.dtd">
<svg xmlns:xlink="http://www.w3.org/1999/xlink" width="1173.6pt" height="592.56pt" viewBox="0 0 1173.6 592.56" xmlns="http://www.w3.org/2000/svg" version="1.1">
 <metadata>
  <rdf:RDF xmlns:dc="http://purl.org/dc/elements/1.1/" xmlns:cc="http://creativecommons.org/ns#" xmlns:rdf="http://www.w3.org/1999/02/22-rdf-syntax-ns#">
   <cc:Work>
    <dc:type rdf:resource="http://purl.org/dc/dcmitype/StillImage"/>
    <dc:date>2026-10-09T12:57:22.132907</dc:date>
    <dc:format>image/svg+xml</dc:format>
    <dc:creator>
     <cc:Agent>
      <dc:title>Matplotlib v3.6.3, https://matplotlib.org/</dc:title>
     </cc:Agent>
    </dc:creator>
   </cc:Work>
  </rdf:RDF>
 </metadata>
 <defs>
  <style type="text/css">*{stroke-linejoin: round; stroke-linecap: butt}</style>
 </defs>
 <g id="figure_1">
  <g id="patch_1">
   <path d="M 0 592.56 
L 1173.6 592.56 
L 1173.6 0 
L 0 0 
z
" style="fill: #ffffff"/>
  </g>
  <g id="axes_1">
   <g id="patch_2">
    <path d="M 21.1248 153.3249 
L 226.457856 153.3249 
L 226.457856 20.7396 
L 21.1248 20.7396 
z
" style="fill: #ffffff"/>
   </g>
   <g id="PathCollection_1">
    <defs>
     <path id="me9190596af" d="M 0 1.414214 
C 0.375054 1.414214 0.734797 1.265203 1 1 
C 1.265203 0.734797 1.414214 0.375054 1.414214 0 
C 1.414214 -0.375054 1.265203 -0.734797 1 -1 
C 0.734797 -1.265203 0.375054 -1.414214 0 -1.414214 
C -0.375054 -1.414214 -0.734797 -1.265203 -1 -1 
C -1.265203 -0.734797 -1.414214 -0.375054 -1.414214 0 
C -1.414214 0.375054 -1.265203 0.734797 -1 1 
C -0.734797 1.265203 -0.375054 1.414214 0 1.414214 
z
" style="stroke: #1b646b"/>
    </defs>
    <g clip-path="url(#p5c20b7d0ab)">
     <use xlink:href="#me9190596af" x="57.498753" y="147.298295" style="fill: #1b646b; stroke: #1b646b"/>
    </g>
   </g>
   <g id="matplotlib.axis_1"/>
   <g id="matplotlib.axis_2"/>
   <g id="line2d_1">
    <path d="M 57.498753 147.298295 
L 69.551141 138.188305 
L 77.364501 132.763112 
L 97.207642 118.286209 
L 132.087816 92.841051 
L 140.608878 86.059602 
L 145.532762 81.577961 
L 154.437096 71.317345 
L 164.10806 58.963307 
L 185.159993 33.370737 
L 189.759619 27.503305 
L 190.083903 26.766205 
" clip-path="url(#p5c20b7d0ab)" style="fill: none; stroke: #1b646b; stroke-width: 1.2; stroke-linecap: square"/>
   </g>
   <g id="patch_3">
    <path d="M 21.1248 153.3249 
L 21.1248 20.7396 
" style="fill: none; stroke: #d6ddda; stroke-width: 0.8; stroke-linejoin: miter; stroke-linecap: square"/>
   </g>
   <g id="patch_4">
    <path d="M 226.457856 153.3249 
L 226.457856 20.7396 
" style="fill: none; stroke: #d6ddda; stroke-width: 0.8; stroke-linejoin: miter; stroke-linecap: square"/>
   </g>
   <g id="patch_5">
    <path d="M 21.1248 153.3249 
L 226.457856 153.3249 
" style="fill: none; stroke: #d6ddda; stroke-width: 0.8; stroke-linejoin: miter; stroke-linecap: square"/>
   </g>
   <g id="patch_6">
    <path d="M 21.1248 20.7396 
L 226.457856 20.7396 
" style="fill: none; stroke: #d6ddda; stroke-width: 0.8; stroke-linejoin: miter; stroke-linecap: square"/>
   </g>
   <g id="text_1">
    <!-- N ↑ -->
    <g transform="translate(25.231461 30.2299) scale(0.09 -0.09)">
     <defs>
      <path id="DejaVuSans-4e" d="M 628 4666 
L 1478 4666 
L 3547 763 
L 3547 4666 
L 4159 4666 
L 4159 0 
L 3309 0 
L 1241 3903 
L 1241 0 
L 628 0 
L 628 4666 
z
" transform="scale(0.015625)"/>
      <path id="DejaVuSans-20" transform="scale(0.015625)"/>
      <path id="DejaVuSans-2191" d="M 2541 4688 
L 2822 4688 
L 4047 3456 
L 3672 3081 
L 2947 3813 
L 2947 0 
L 2416 0 
L 2416 3813 
L 1684 3081 
L 1309 3456 
L 2541 4688 
z
" transform="scale(0.015625)"/>
     </defs>
     <use xlink:href="#DejaVuSans-4e"/>
     <use xlink:href="#DejaVuSans-20" x="74.804688"/>
     <use xlink:href="#DejaVuSans-2191" x="106.591797"/>
    </g>
   </g>
  </g>
  <g id="axes_2">
   <g id="patch_7">
    <path d="M 351.939168 153.3249 
L 1161.864 153.3249 
L 1161.864 20.7396 
L 351.939168 20.7396 
z
" style="fill: #ffffff"/>
   </g>
   <g id="matplotlib.axis_3">
    <g id="xtick_1">
     <g id="line2d_2">
      <path d="M 351.939168 153.3249 
L 351.939168 20.7396 
" clip-path="url(#p4f12343c04)" style="fill: none; stroke: #b0b0b0; stroke-opacity: 0.15; stroke-width: 0.8; stroke-linecap: square"/>
     </g>
     <g id="line2d_3">
      <defs>
       <path id="m774e9751c9" d="M 0 0 
L 0 3.5 
" style="stroke: #000000; stroke-width: 0.8"/>
      </defs>
      <g>
       <use xlink:href="#m774e9751c9" x="351.939168" y="153.3249" style="stroke: #000000; stroke-width: 0.8"/>
      </g>
     </g>
     <g id="text_2">
      <!-- 0.00 -->
      <g transform="translate(340.806355 165.423338) scale(0.1 -0.1)">
       <defs>
        <path id="DejaVuSans-30" d="M 2034 4250 
Q 1547 4250 1301 3770 
Q 1056 3291 1056 2328 
Q 1056 1369 1301 889 
Q 1547 409 2034 409 
Q 2525 409 2770 889 
Q 3016 1369 3016 2328 
Q 3016 3291 2770 3770 
Q 2525 4250 2034 4250 
z
M 2034 4750 
Q 2819 4750 3233 4129 
Q 3647 3509 3647 2328 
Q 3647 1150 3233 529 
Q 2819 -91 2034 -91 
Q 1250 -91 836 529 
Q 422 1150 422 2328 
Q 422 3509 836 4129 
Q 1250 4750 2034 4750 
z
" transform="scale(0.015625)"/>
        <path id="DejaVuSans-2e" d="M 684 794 
L 1344 794 
L 1344 0 
L 684 0 
L 684 794 
z
" transform="scale(0.015625)"/>
       </defs>
       <use xlink:href="#DejaVuSans-30"/>
       <use xlink:href="#DejaVuSans-2e" x="63.623047"/>
       <use xlink:href="#DejaVuSans-30" x="95.410156"/>
       <use xlink:href="#DejaVuSans-30" x="159.033203"/>
      </g>
     </g>
    </g>
    <g id="xtick_2">
     <g id="line2d_4">
      <path d="M 453.513581 153.3249 
L 453.513581 20.7396 
" clip-path="url(#p4f12343c04)" style="fill: none; stroke: #b0b0b0; stroke-opacity: 0.15; stroke-width: 0.8; stroke-linecap: square"/>
     </g>
     <g id="line2d_5">
      <g>
       <use xlink:href="#m774e9751c9" x="453.513581" y="153.3249" style="stroke: #000000; stroke-width: 0.8"/>
      </g>
     </g>
     <g id="text_3">
      <!-- 0.05 -->
      <g transform="translate(442.380768 165.423338) scale(0.1 -0.1)">
       <defs>
        <path id="DejaVuSans-35" d="M 691 4666 
L 3169 4666 
L 3169 4134 
L 1269 4134 
L 1269 2991 
Q 1406 3038 1543 3061 
Q 1681 3084 1819 3084 
Q 2600 3084 3056 2656 
Q 3513 2228 3513 1497 
Q 3513 744 3044 326 
Q 2575 -91 1722 -91 
Q 1428 -91 1123 -41 
Q 819 9 494 109 
L 494 744 
Q 775 591 1075 516 
Q 1375 441 1709 441 
Q 2250 441 2565 725 
Q 2881 1009 2881 1497 
Q 2881 1984 2565 2268 
Q 2250 2553 1709 2553 
Q 1456 2553 1204 2497 
Q 953 2441 691 2322 
L 691 4666 
z
" transform="scale(0.015625)"/>
       </defs>
       <use xlink:href="#DejaVuSans-30"/>
       <use xlink:href="#DejaVuSans-2e" x="63.623047"/>
       <use xlink:href="#DejaVuSans-30" x="95.410156"/>
       <use xlink:href="#DejaVuSans-35" x="159.033203"/>
      </g>
     </g>
    </g>
    <g id="xtick_3">
     <g id="line2d_6">
      <path d="M 555.087993 153.3249 
L 555.087993 20.7396 
" clip-path="url(#p4f12343c04)" style="fill: none; stroke: #b0b0b0; stroke-opacity: 0.15; stroke-width: 0.8; stroke-linecap: square"/>
     </g>
     <g id="line2d_7">
      <g>
       <use xlink:href="#m774e9751c9" x="555.087993" y="153.3249" style="stroke: #000000; stroke-width: 0.8"/>
      </g>
     </g>
     <g id="text_4">
      <!-- 0.10 -->
      <g transform="translate(543.955181 165.423338) scale(0.1 -0.1)">
       <defs>
        <path id="DejaVuSans-31" d="M 794 531 
L 1825 531 
L 1825 4091 
L 703 3866 
L 703 4441 
L 1819 4666 
L 2450 4666 
L 2450 531 
L 3481 531 
L 3481 0 
L 794 0 
L 794 531 
z
" transform="scale(0.015625)"/>
       </defs>
       <use xlink:href="#DejaVuSans-30"/>
       <use xlink:href="#DejaVuSans-2e" x="63.623047"/>
       <use xlink:href="#DejaVuSans-31" x="95.410156"/>
       <use xlink:href="#DejaVuSans-30" x="159.033203"/>
      </g>
     </g>
    </g>
    <g id="xtick_4">
     <g id="line2d_8">
      <path d="M 656.662406 153.3249 
L 656.662406 20.7396 
" clip-path="url(#p4f12343c04)" style="fill: none; stroke: #b0b0b0; stroke-opacity: 0.15; stroke-width: 0.8; stroke-linecap: square"/>
     </g>
     <g id="line2d_9">
      <g>
       <use xlink:href="#m774e9751c9" x="656.662406" y="153.3249" style="stroke: #000000; stroke-width: 0.8"/>
      </g>
     </g>
     <g id="text_5">
      <!-- 0.15 -->
      <g transform="translate(645.529594 165.423338) scale(0.1 -0.1)">
       <use xlink:href="#DejaVuSans-30"/>
       <use xlink:href="#DejaVuSans-2e" x="63.623047"/>
       <use xlink:href="#DejaVuSans-31" x="95.410156"/>
       <use xlink:href="#DejaVuSans-35" x="159.033203"/>
      </g>
     </g>
    </g>
    <g id="xtick_5">
     <g id="line2d_10">
      <path d="M 758.236819 153.3249 
L 758.236819 20.7396 
" clip-path="url(#p4f12343c04)" style="fill: none; stroke: #b0b0b0; stroke-opacity: 0.15; stroke-width: 0.8; stroke-linecap: square"/>
     </g>
     <g id="line2d_11">
      <g>
       <use xlink:href="#m774e9751c9" x="758.236819" y="153.3249" style="stroke: #000000; stroke-width: 0.8"/>
      </g>
     </g>
     <g id="text_6">
      <!-- 0.20 -->
      <g transform="translate(747.104006 165.423338) scale(0.1 -0.1)">
       <defs>
        <path id="DejaVuSans-32" d="M 1228 531 
L 3431 531 
L 3431 0 
L 469 0 
L 469 531 
Q 828 903 1448 1529 
Q 2069 2156 2228 2338 
Q 2531 2678 2651 2914 
Q 2772 3150 2772 3378 
Q 2772 3750 2511 3984 
Q 2250 4219 1831 4219 
Q 1534 4219 1204 4116 
Q 875 4013 500 3803 
L 500 4441 
Q 881 4594 1212 4672 
Q 1544 4750 1819 4750 
Q 2544 4750 2975 4387 
Q 3406 4025 3406 3419 
Q 3406 3131 3298 2873 
Q 3191 2616 2906 2266 
Q 2828 2175 2409 1742 
Q 1991 1309 1228 531 
z
" transform="scale(0.015625)"/>
       </defs>
       <use xlink:href="#DejaVuSans-30"/>
       <use xlink:href="#DejaVuSans-2e" x="63.623047"/>
       <use xlink:href="#DejaVuSans-32" x="95.410156"/>
       <use xlink:href="#DejaVuSans-30" x="159.033203"/>
      </g>
     </g>
    </g>
    <g id="xtick_6">
     <g id="line2d_12">
      <path d="M 859.811231 153.3249 
L 859.811231 20.7396 
" clip-path="url(#p4f12343c04)" style="fill: none; stroke: #b0b0b0; stroke-opacity: 0.15; stroke-width: 0.8; stroke-linecap: square"/>
     </g>
     <g id="line2d_13">
      <g>
       <use xlink:href="#m774e9751c9" x="859.811231" y="153.3249" style="stroke: #000000; stroke-width: 0.8"/>
      </g>
     </g>
     <g id="text_7">
      <!-- 0.25 -->
      <g transform="translate(848.678419 165.423338) scale(0.1 -0.1)">
       <use xlink:href="#DejaVuSans-30"/>
       <use xlink:href="#DejaVuSans-2e" x="63.623047"/>
       <use xlink:href="#DejaVuSans-32" x="95.410156"/>
       <use xlink:href="#DejaVuSans-35" x="159.033203"/>
      </g>
     </g>
    </g>
    <g id="xtick_7">
     <g id="line2d_14">
      <path d="M 961.385644 153.3249 
L 961.385644 20.7396 
" clip-path="url(#p4f12343c04)" style="fill: none; stroke: #b0b0b0; stroke-opacity: 0.15; stroke-width: 0.8; stroke-linecap: square"/>
     </g>
     <g id="line2d_15">
      <g>
       <use xlink:href="#m774e9751c9" x="961.385644" y="153.3249" style="stroke: #000000; stroke-width: 0.8"/>
      </g>
     </g>
     <g id="text_8">
      <!-- 0.30 -->
      <g transform="translate(950.252832 165.423338) scale(0.1 -0.1)">
       <defs>
        <path id="DejaVuSans-33" d="M 2597 2516 
Q 3050 2419 3304 2112 
Q 3559 1806 3559 1356 
Q 3559 666 3084 287 
Q 2609 -91 1734 -91 
Q 1441 -91 1130 -33 
Q 819 25 488 141 
L 488 750 
Q 750 597 1062 519 
Q 1375 441 1716 441 
Q 2309 441 2620 675 
Q 2931 909 2931 1356 
Q 2931 1769 2642 2001 
Q 2353 2234 1838 2234 
L 1294 2234 
L 1294 2753 
L 1863 2753 
Q 2328 2753 2575 2939 
Q 2822 3125 2822 3475 
Q 2822 3834 2567 4026 
Q 2313 4219 1838 4219 
Q 1578 4219 1281 4162 
Q 984 4106 628 3988 
L 628 4550 
Q 988 4650 1302 4700 
Q 1616 4750 1894 4750 
Q 2613 4750 3031 4423 
Q 3450 4097 3450 3541 
Q 3450 3153 3228 2886 
Q 3006 2619 2597 2516 
z
" transform="scale(0.015625)"/>
       </defs>
       <use xlink:href="#DejaVuSans-30"/>
       <use xlink:href="#DejaVuSans-2e" x="63.623047"/>
       <use xlink:href="#DejaVuSans-33" x="95.410156"/>
       <use xlink:href="#DejaVuSans-30" x="159.033203"/>
      </g>
     </g>
    </g>
    <g id="xtick_8">
     <g id="line2d_16">
      <path d="M 1062.960057 153.3249 
L 1062.960057 20.7396 
" clip-path="url(#p4f12343c04)" style="fill: none; stroke: #b0b0b0; stroke-opacity: 0.15; stroke-width: 0.8; stroke-linecap: square"/>
     </g>
     <g id="line2d_17">
      <g>
       <use xlink:href="#m774e9751c9" x="1062.960057" y="153.3249" style="stroke: #000000; stroke-width: 0.8"/>
      </g>
     </g>
     <g id="text_9">
      <!-- 0.35 -->
      <g transform="translate(1051.827244 165.423338) scale(0.1 -0.1)">
       <use xlink:href="#DejaVuSans-30"/>
       <use xlink:href="#DejaVuSans-2e" x="63.623047"/>
       <use xlink:href="#DejaVuSans-33" x="95.410156"/>
       <use xlink:href="#DejaVuSans-35" x="159.033203"/>
      </g>
     </g>
    </g>
   </g>
   <g id="matplotlib.axis_4">
    <g id="ytick_1">
     <g id="line2d_18">
      <path d="M 351.939168 132.877283 
L 1161.864 132.877283 
" clip-path="url(#p4f12343c04)" style="fill: none; stroke: #b0b0b0; stroke-opacity: 0.15; stroke-width: 0.8; stroke-linecap: square"/>
     </g>
     <g id="line2d_19">
      <defs>
       <path id="me1ef803e79" d="M 0 0 
L -3.5 0 
" style="stroke: #000000; stroke-width: 0.8"/>
      </defs>
      <g>
       <use xlink:href="#me1ef803e79" x="351.939168" y="132.877283" style="stroke: #000000; stroke-width: 0.8"/>
      </g>
     </g>
     <g id="text_10">
      <!-- 0.0 -->
      <g transform="translate(331.536043 136.676502) scale(0.1 -0.1)">
       <use xlink:href="#DejaVuSans-30"/>
       <use xlink:href="#DejaVuSans-2e" x="63.623047"/>
       <use xlink:href="#DejaVuSans-30" x="95.410156"/>
      </g>
     </g>
    </g>
    <g id="ytick_2">
     <g id="line2d_20">
      <path d="M 351.939168 109.369941 
L 1161.864 109.369941 
" clip-path="url(#p4f12343c04)" style="fill: none; stroke: #b0b0b0; stroke-opacity: 0.15; stroke-width: 0.8; stroke-linecap: square"/>
     </g>
     <g id="line2d_21">
      <g>
       <use xlink:href="#me1ef803e79" x="351.939168" y="109.369941" style="stroke: #000000; stroke-width: 0.8"/>
      </g>
     </g>
     <g id="text_11">
      <!-- 0.5 -->
      <g transform="translate(331.536043 113.169159) scale(0.1 -0.1)">
       <use xlink:href="#DejaVuSans-30"/>
       <use xlink:href="#DejaVuSans-2e" x="63.623047"/>
       <use xlink:href="#DejaVuSans-35" x="95.410156"/>
      </g>
     </g>
    </g>
    <g id="ytick_3">
     <g id="line2d_22">
      <path d="M 351.939168 85.862598 
L 1161.864 85.862598 
" clip-path="url(#p4f12343c04)" style="fill: none; stroke: #b0b0b0; stroke-opacity: 0.15; stroke-width: 0.8; stroke-linecap: square"/>
     </g>
     <g id="line2d_23">
      <g>
       <use xlink:href="#me1ef803e79" x="351.939168" y="85.862598" style="stroke: #000000; stroke-width: 0.8"/>
      </g>
     </g>
     <g id="text_12">
      <!-- 1.0 -->
      <g transform="translate(331.536043 89.661816) scale(0.1 -0.1)">
       <use xlink:href="#DejaVuSans-31"/>
       <use xlink:href="#DejaVuSans-2e" x="63.623047"/>
       <use xlink:href="#DejaVuSans-30" x="95.410156"/>
      </g>
     </g>
    </g>
    <g id="ytick_4">
     <g id="line2d_24">
      <path d="M 351.939168 62.355255 
L 1161.864 62.355255 
" clip-path="url(#p4f12343c04)" style="fill: none; stroke: #b0b0b0; stroke-opacity: 0.15; stroke-width: 0.8; stroke-linecap: square"/>
     </g>
     <g id="line2d_25">
      <g>
       <use xlink:href="#me1ef803e79" x="351.939168" y="62.355255" style="stroke: #000000; stroke-width: 0.8"/>
      </g>
     </g>
     <g id="text_13">
      <!-- 1.5 -->
      <g transform="translate(331.536043 66.154473) scale(0.1 -0.1)">
       <use xlink:href="#DejaVuSans-31"/>
       <use xlink:href="#DejaVuSans-2e" x="63.623047"/>
       <use xlink:href="#DejaVuSans-35" x="95.410156"/>
      </g>
     </g>
    </g>
    <g id="ytick_5">
     <g id="line2d_26">
      <path d="M 351.939168 38.847912 
L 1161.864 38.847912 
" clip-path="url(#p4f12343c04)" style="fill: none; stroke: #b0b0b0; stroke-opacity: 0.15; stroke-width: 0.8; stroke-linecap: square"/>
     </g>
     <g id="line2d_27">
      <g>
       <use xlink:href="#me1ef803e79" x="351.939168" y="38.847912" style="stroke: #000000; stroke-width: 0.8"/>
      </g>
     </g>
     <g id="text_14">
      <!-- 2.0 -->
      <g transform="translate(331.536043 42.647131) scale(0.1 -0.1)">
       <use xlink:href="#DejaVuSans-32"/>
       <use xlink:href="#DejaVuSans-2e" x="63.623047"/>
       <use xlink:href="#DejaVuSans-30" x="95.410156"/>
      </g>
     </g>
    </g>
   </g>
   <g id="line2d_28">
    <path d="M 388.753933 132.877283 
L 425.568698 147.298295 
L 462.383463 123.266002 
L 499.198228 98.107132 
L 536.012993 60.829506 
L 572.827759 39.348621 
L 609.642524 26.766205 
L 646.457289 28.641377 
L 683.272054 38.020907 
L 720.086819 51.771482 
L 756.901584 61.838677 
L 793.716349 66.393926 
L 830.531114 66.57813 
L 867.345879 84.406627 
L 904.160644 106.725069 
L 940.975409 129.04351 
L 977.790175 126.288163 
L 1014.60494 108.582712 
L 1051.419705 88.397873 
L 1088.23447 72.20385 
L 1125.049235 45.808327 
" clip-path="url(#p4f12343c04)" style="fill: none; stroke: #1b646b; stroke-width: 1.1; stroke-linecap: square"/>
   </g>
   <g id="line2d_29">
    <path d="M 351.939168 132.877283 
L 1161.864 132.877283 
" clip-path="url(#p4f12343c04)" style="fill: none; stroke: #aab0ac; stroke-width: 0.5; stroke-linecap: square"/>
   </g>
   <g id="patch_8">
    <path d="M 351.939168 153.3249 
L 351.939168 20.7396 
" style="fill: none; stroke: #000000; stroke-width: 0.8; stroke-linejoin: miter; stroke-linecap: square"/>
   </g>
   <g id="patch_9">
    <path d="M 351.939168 153.3249 
L 1161.864 153.3249 
" style="fill: none; stroke: #000000; stroke-width: 0.8; stroke-linejoin: miter; stroke-linecap: square"/>
   </g>
  </g>
  <g id="axes_3">
   <g id="patch_10">
    <path d="M 21.1248 352.20285 
L 226.457856 352.20285 
L 226.457856 219.61755 
L 21.1248 219.61755 
z
" style="fill: #ffffff"/>
   </g>
   <g id="PathCollection_2">
    <g clip-path="url(#pa3eac4bf1e)">
     <use xlink:href="#me9190596af" x="67.603066" y="225.644155" style="fill: #1b646b; stroke: #1b646b"/>
    </g>
   </g>
   <g id="matplotlib.axis_5"/>
   <g id="matplotlib.axis_6"/>
   <g id="line2d_30">
    <path d="M 67.603066 225.644155 
L 67.607401 225.656677 
L 68.283903 226.945809 
L 69.28269 228.060733 
L 71.126379 228.64723 
L 73.193636 228.626905 
L 76.428078 227.471332 
L 78.901816 227.000975 
L 79.781562 226.957422 
L 80.237405 227.175182 
L 81.183927 227.799422 
L 82.281431 228.205907 
L 84.464826 230.476404 
L 86.407233 231.884575 
L 86.74984 232.720768 
L 87.722496 234.433805 
L 88.079619 235.522598 
L 88.120268 236.007474 
L 87.940254 237.618888 
L 88.218986 239.224495 
L 88.851938 240.9956 
L 90.135261 243.120925 
L 91.398262 246.41605 
L 92.054442 247.644498 
L 92.08638 248.274547 
L 91.973144 248.968472 
L 92.269296 249.85983 
L 92.739656 250.727962 
L 92.992255 251.700617 
L 93.456806 252.580361 
L 94.574634 253.863687 
L 95.172744 254.249846 
L 96.775449 256.311295 
L 98.709147 257.699143 
L 98.976263 257.728177 
L 99.516305 257.603331 
L 101.987141 257.786246 
L 102.701389 257.560069 
L 104.492817 258.0824 
L 105.337721 258.526627 
L 108.296335 261.502663 
L 109.364804 262.364988 
L 109.852584 263.447974 
L 112.01275 265.924615 
L 114.445839 268.456133 
L 115.488179 269.58877 
L 116.222751 271.458589 
L 117.082173 273.160011 
L 117.424779 273.586819 
L 120.209187 276.446715 
L 121.716078 278.545911 
L 122.529042 279.466303 
L 123.339105 280.999324 
L 124.62243 282.906892 
L 125.281511 283.47016 
L 126.399339 284.962533 
L 126.707105 286.158753 
L 127.98172 288.350568 
L 130.289961 291.109134 
L 131.149382 291.530135 
L 131.814273 292.105018 
L 133.132439 292.903467 
L 133.922176 293.803535 
L 135.260667 295.66784 
L 136.976605 297.133793 
L 137.85635 298.091931 
L 138.829005 298.939738 
L 139.162903 299.383965 
L 139.496799 300.022724 
L 139.810371 301.184103 
L 140.077489 301.642849 
L 140.437516 301.968325 
L 141.549537 302.722933 
L 143.512268 303.463311 
L 145.762442 304.813415 
L 146.456366 305.010849 
L 147.205455 305.626382 
L 147.603228 306.352243 
L 148.012617 307.928817 
L 147.913899 308.312073 
L 147.559678 308.878244 
L 147.899381 310.983246 
L 148.532333 311.668459 
L 149.757589 315.172922 
L 150.300533 316.174612 
L 150.974133 316.732074 
L 151.880009 317.902166 
L 153.712085 319.18549 
L 154.702162 320.274282 
L 156.180018 321.029181 
L 156.432617 321.377593 
L 156.862327 322.782864 
L 157.634646 323.540663 
L 158.880226 324.507512 
L 159.954501 325.921493 
L 160.918447 327.715823 
L 162.306294 329.14432 
L 164.585502 331.751619 
L 166.809545 333.958241 
L 167.337973 334.843502 
L 167.834463 335.967427 
L 168.801312 337.477221 
L 169.562014 339.765138 
L 169.875586 340.467773 
L 170.322718 341.100725 
L 170.749525 342.023732 
L 171.25763 342.154677 
L 171.553779 342.392761 
L 172.279643 343.321865 
L 173.391664 344.24516 
L 175.07276 345.049416 
L 176.698692 345.252658 
L 177.990726 345.711403 
L 179.97959 346.176245 
L 179.97959 346.176245 
" clip-path="url(#pa3eac4bf1e)" style="fill: none; stroke: #1b646b; stroke-width: 1.2; stroke-linecap: square"/>
   </g>
   <g id="patch_11">
    <path d="M 21.1248 352.20285 
L 21.1248 219.61755 
" style="fill: none; stroke: #d6ddda; stroke-width: 0.8; stroke-linejoin: miter; stroke-linecap: square"/>
   </g>
   <g id="patch_12">
    <path d="M 226.457856 352.20285 
L 226.457856 219.61755 
" style="fill: none; stroke: #d6ddda; stroke-width: 0.8; stroke-linejoin: miter; stroke-linecap: square"/>
   </g>
   <g id="patch_13">
    <path d="M 21.1248 352.20285 
L 226.457856 352.20285 
" style="fill: none; stroke: #d6ddda; stroke-width: 0.8; stroke-linejoin: miter; stroke-linecap: square"/>
   </g>
   <g id="patch_14">
    <path d="M 21.1248 219.61755 
L 226.457856 219.61755 
" style="fill: none; stroke: #d6ddda; stroke-width: 0.8; stroke-linejoin: miter; stroke-linecap: square"/>
   </g>
   <g id="text_15">
    <!-- N ↑ -->
    <g transform="translate(25.231461 229.10785) scale(0.09 -0.09)">
     <use xlink:href="#DejaVuSans-4e"/>
     <use xlink:href="#DejaVuSans-20" x="74.804688"/>
     <use xlink:href="#DejaVuSans-2191" x="106.591797"/>
    </g>
   </g>
  </g>
  <g id="axes_4">
   <g id="patch_15">
    <path d="M 351.939168 352.20285 
L 1161.864 352.20285 
L 1161.864 219.61755 
L 351.939168 219.61755 
z
" style="fill: #ffffff"/>
   </g>
   <g id="matplotlib.axis_7">
    <g id="xtick_9">
     <g id="line2d_31">
      <path d="M 385.162249 352.20285 
L 385.162249 219.61755 
" clip-path="url(#p795f6f6618)" style="fill: none; stroke: #b0b0b0; stroke-opacity: 0.15; stroke-width: 0.8; stroke-linecap: square"/>
     </g>
     <g id="line2d_32">
      <g>
       <use xlink:href="#m774e9751c9" x="385.162249" y="352.20285" style="stroke: #000000; stroke-width: 0.8"/>
      </g>
     </g>
     <g id="text_16">
      <!-- 0.0 -->
      <g transform="translate(377.210686 364.301288) scale(0.1 -0.1)">
       <use xlink:href="#DejaVuSans-30"/>
       <use xlink:href="#DejaVuSans-2e" x="63.623047"/>
       <use xlink:href="#DejaVuSans-30" x="95.410156"/>
      </g>
     </g>
    </g>
    <g id="xtick_10">
     <g id="line2d_33">
      <path d="M 481.728704 352.20285 
L 481.728704 219.61755 
" clip-path="url(#p795f6f6618)" style="fill: none; stroke: #b0b0b0; stroke-opacity: 0.15; stroke-width: 0.8; stroke-linecap: square"/>
     </g>
     <g id="line2d_34">
      <g>
       <use xlink:href="#m774e9751c9" x="481.728704" y="352.20285" style="stroke: #000000; stroke-width: 0.8"/>
      </g>
     </g>
     <g id="text_17">
      <!-- 0.5 -->
      <g transform="translate(473.777141 364.301288) scale(0.1 -0.1)">
       <use xlink:href="#DejaVuSans-30"/>
       <use xlink:href="#DejaVuSans-2e" x="63.623047"/>
       <use xlink:href="#DejaVuSans-35" x="95.410156"/>
      </g>
     </g>
    </g>
    <g id="xtick_11">
     <g id="line2d_35">
      <path d="M 578.295159 352.20285 
L 578.295159 219.61755 
" clip-path="url(#p795f6f6618)" style="fill: none; stroke: #b0b0b0; stroke-opacity: 0.15; stroke-width: 0.8; stroke-linecap: square"/>
     </g>
     <g id="line2d_36">
      <g>
       <use xlink:href="#m774e9751c9" x="578.295159" y="352.20285" style="stroke: #000000; stroke-width: 0.8"/>
      </g>
     </g>
     <g id="text_18">
      <!-- 1.0 -->
      <g transform="translate(570.343596 364.301288) scale(0.1 -0.1)">
       <use xlink:href="#DejaVuSans-31"/>
       <use xlink:href="#DejaVuSans-2e" x="63.623047"/>
       <use xlink:href="#DejaVuSans-30" x="95.410156"/>
      </g>
     </g>
    </g>
    <g id="xtick_12">
     <g id="line2d_37">
      <path d="M 674.861614 352.20285 
L 674.861614 219.61755 
" clip-path="url(#p795f6f6618)" style="fill: none; stroke: #b0b0b0; stroke-opacity: 0.15; stroke-width: 0.8; stroke-linecap: square"/>
     </g>
     <g id="line2d_38">
      <g>
       <use xlink:href="#m774e9751c9" x="674.861614" y="352.20285" style="stroke: #000000; stroke-width: 0.8"/>
      </g>
     </g>
     <g id="text_19">
      <!-- 1.5 -->
      <g transform="translate(666.910051 364.301288) scale(0.1 -0.1)">
       <use xlink:href="#DejaVuSans-31"/>
       <use xlink:href="#DejaVuSans-2e" x="63.623047"/>
       <use xlink:href="#DejaVuSans-35" x="95.410156"/>
      </g>
     </g>
    </g>
    <g id="xtick_13">
     <g id="line2d_39">
      <path d="M 771.428069 352.20285 
L 771.428069 219.61755 
" clip-path="url(#p795f6f6618)" style="fill: none; stroke: #b0b0b0; stroke-opacity: 0.15; stroke-width: 0.8; stroke-linecap: square"/>
     </g>
     <g id="line2d_40">
      <g>
       <use xlink:href="#m774e9751c9" x="771.428069" y="352.20285" style="stroke: #000000; stroke-width: 0.8"/>
      </g>
     </g>
     <g id="text_20">
      <!-- 2.0 -->
      <g transform="translate(763.476507 364.301288) scale(0.1 -0.1)">
       <use xlink:href="#DejaVuSans-32"/>
       <use xlink:href="#DejaVuSans-2e" x="63.623047"/>
       <use xlink:href="#DejaVuSans-30" x="95.410156"/>
      </g>
     </g>
    </g>
    <g id="xtick_14">
     <g id="line2d_41">
      <path d="M 867.994524 352.20285 
L 867.994524 219.61755 
" clip-path="url(#p795f6f6618)" style="fill: none; stroke: #b0b0b0; stroke-opacity: 0.15; stroke-width: 0.8; stroke-linecap: square"/>
     </g>
     <g id="line2d_42">
      <g>
       <use xlink:href="#m774e9751c9" x="867.994524" y="352.20285" style="stroke: #000000; stroke-width: 0.8"/>
      </g>
     </g>
     <g id="text_21">
      <!-- 2.5 -->
      <g transform="translate(860.042962 364.301288) scale(0.1 -0.1)">
       <use xlink:href="#DejaVuSans-32"/>
       <use xlink:href="#DejaVuSans-2e" x="63.623047"/>
       <use xlink:href="#DejaVuSans-35" x="95.410156"/>
      </g>
     </g>
    </g>
    <g id="xtick_15">
     <g id="line2d_43">
      <path d="M 964.560979 352.20285 
L 964.560979 219.61755 
" clip-path="url(#p795f6f6618)" style="fill: none; stroke: #b0b0b0; stroke-opacity: 0.15; stroke-width: 0.8; stroke-linecap: square"/>
     </g>
     <g id="line2d_44">
      <g>
       <use xlink:href="#m774e9751c9" x="964.560979" y="352.20285" style="stroke: #000000; stroke-width: 0.8"/>
      </g>
     </g>
     <g id="text_22">
      <!-- 3.0 -->
      <g transform="translate(956.609417 364.301288) scale(0.1 -0.1)">
       <use xlink:href="#DejaVuSans-33"/>
       <use xlink:href="#DejaVuSans-2e" x="63.623047"/>
       <use xlink:href="#DejaVuSans-30" x="95.410156"/>
      </g>
     </g>
    </g>
    <g id="xtick_16">
     <g id="line2d_45">
      <path d="M 1061.127434 352.20285 
L 1061.127434 219.61755 
" clip-path="url(#p795f6f6618)" style="fill: none; stroke: #b0b0b0; stroke-opacity: 0.15; stroke-width: 0.8; stroke-linecap: square"/>
     </g>
     <g id="line2d_46">
      <g>
       <use xlink:href="#m774e9751c9" x="1061.127434" y="352.20285" style="stroke: #000000; stroke-width: 0.8"/>
      </g>
     </g>
     <g id="text_23">
      <!-- 3.5 -->
      <g transform="translate(1053.175872 364.301288) scale(0.1 -0.1)">
       <use xlink:href="#DejaVuSans-33"/>
       <use xlink:href="#DejaVuSans-2e" x="63.623047"/>
       <use xlink:href="#DejaVuSans-35" x="95.410156"/>
      </g>
     </g>
    </g>
    <g id="xtick_17">
     <g id="line2d_47">
      <path d="M 1157.693889 352.20285 
L 1157.693889 219.61755 
" clip-path="url(#p795f6f6618)" style="fill: none; stroke: #b0b0b0; stroke-opacity: 0.15; stroke-width: 0.8; stroke-linecap: square"/>
     </g>
     <g id="line2d_48">
      <g>
       <use xlink:href="#m774e9751c9" x="1157.693889" y="352.20285" style="stroke: #000000; stroke-width: 0.8"/>
      </g>
     </g>
     <g id="text_24">
      <!-- 4.0 -->
      <g transform="translate(1149.742327 364.301288) scale(0.1 -0.1)">
       <defs>
        <path id="DejaVuSans-34" d="M 2419 4116 
L 825 1625 
L 2419 1625 
L 2419 4116 
z
M 2253 4666 
L 3047 4666 
L 3047 1625 
L 3713 1625 
L 3713 1100 
L 3047 1100 
L 3047 0 
L 2419 0 
L 2419 1100 
L 313 1100 
L 313 1709 
L 2253 4666 
z
" transform="scale(0.015625)"/>
       </defs>
       <use xlink:href="#DejaVuSans-34"/>
       <use xlink:href="#DejaVuSans-2e" x="63.623047"/>
       <use xlink:href="#DejaVuSans-30" x="95.410156"/>
      </g>
     </g>
    </g>
   </g>
   <g id="matplotlib.axis_8">
    <g id="ytick_6">
     <g id="line2d_49">
      <path d="M 351.939168 341.365279 
L 1161.864 341.365279 
" clip-path="url(#p795f6f6618)" style="fill: none; stroke: #b0b0b0; stroke-opacity: 0.15; stroke-width: 0.8; stroke-linecap: square"/>
     </g>
     <g id="line2d_50">
      <g>
       <use xlink:href="#me1ef803e79" x="351.939168" y="341.365279" style="stroke: #000000; stroke-width: 0.8"/>
      </g>
     </g>
     <g id="text_25">
      <!-- −125 -->
      <g transform="translate(319.97198 345.164497) scale(0.1 -0.1)">
       <defs>
        <path id="DejaVuSans-2212" d="M 678 2272 
L 4684 2272 
L 4684 1741 
L 678 1741 
L 678 2272 
z
" transform="scale(0.015625)"/>
       </defs>
       <use xlink:href="#DejaVuSans-2212"/>
       <use xlink:href="#DejaVuSans-31" x="83.789062"/>
       <use xlink:href="#DejaVuSans-32" x="147.412109"/>
       <use xlink:href="#DejaVuSans-35" x="211.035156"/>
      </g>
     </g>
    </g>
    <g id="ytick_7">
     <g id="line2d_51">
      <path d="M 351.939168 318.221054 
L 1161.864 318.221054 
" clip-path="url(#p795f6f6618)" style="fill: none; stroke: #b0b0b0; stroke-opacity: 0.15; stroke-width: 0.8; stroke-linecap: square"/>
     </g>
     <g id="line2d_52">
      <g>
       <use xlink:href="#me1ef803e79" x="351.939168" y="318.221054" style="stroke: #000000; stroke-width: 0.8"/>
      </g>
     </g>
     <g id="text_26">
      <!-- −100 -->
      <g transform="translate(319.97198 322.020272) scale(0.1 -0.1)">
       <use xlink:href="#DejaVuSans-2212"/>
       <use xlink:href="#DejaVuSans-31" x="83.789062"/>
       <use xlink:href="#DejaVuSans-30" x="147.412109"/>
       <use xlink:href="#DejaVuSans-30" x="211.035156"/>
      </g>
     </g>
    </g>
    <g id="ytick_8">
     <g id="line2d_53">
      <path d="M 351.939168 295.076829 
L 1161.864 295.076829 
" clip-path="url(#p795f6f6618)" style="fill: none; stroke: #b0b0b0; stroke-opacity: 0.15; stroke-width: 0.8; stroke-linecap: square"/>
     </g>
     <g id="line2d_54">
      <g>
       <use xlink:href="#me1ef803e79" x="351.939168" y="295.076829" style="stroke: #000000; stroke-width: 0.8"/>
      </g>
     </g>
     <g id="text_27">
      <!-- −75 -->
      <g transform="translate(326.33448 298.876048) scale(0.1 -0.1)">
       <defs>
        <path id="DejaVuSans-37" d="M 525 4666 
L 3525 4666 
L 3525 4397 
L 1831 0 
L 1172 0 
L 2766 4134 
L 525 4134 
L 525 4666 
z
" transform="scale(0.015625)"/>
       </defs>
       <use xlink:href="#DejaVuSans-2212"/>
       <use xlink:href="#DejaVuSans-37" x="83.789062"/>
       <use xlink:href="#DejaVuSans-35" x="147.412109"/>
      </g>
     </g>
    </g>
    <g id="ytick_9">
     <g id="line2d_55">
      <path d="M 351.939168 271.932604 
L 1161.864 271.932604 
" clip-path="url(#p795f6f6618)" style="fill: none; stroke: #b0b0b0; stroke-opacity: 0.15; stroke-width: 0.8; stroke-linecap: square"/>
     </g>
     <g id="line2d_56">
      <g>
       <use xlink:href="#me1ef803e79" x="351.939168" y="271.932604" style="stroke: #000000; stroke-width: 0.8"/>
      </g>
     </g>
     <g id="text_28">
      <!-- −50 -->
      <g transform="translate(326.33448 275.731823) scale(0.1 -0.1)">
       <use xlink:href="#DejaVuSans-2212"/>
       <use xlink:href="#DejaVuSans-35" x="83.789062"/>
       <use xlink:href="#DejaVuSans-30" x="147.412109"/>
      </g>
     </g>
    </g>
    <g id="ytick_10">
     <g id="line2d_57">
      <path d="M 351.939168 248.788379 
L 1161.864 248.788379 
" clip-path="url(#p795f6f6618)" style="fill: none; stroke: #b0b0b0; stroke-opacity: 0.15; stroke-width: 0.8; stroke-linecap: square"/>
     </g>
     <g id="line2d_58">
      <g>
       <use xlink:href="#me1ef803e79" x="351.939168" y="248.788379" style="stroke: #000000; stroke-width: 0.8"/>
      </g>
     </g>
     <g id="text_29">
      <!-- −25 -->
      <g transform="translate(326.33448 252.587598) scale(0.1 -0.1)">
       <use xlink:href="#DejaVuSans-2212"/>
       <use xlink:href="#DejaVuSans-32" x="83.789062"/>
       <use xlink:href="#DejaVuSans-35" x="147.412109"/>
      </g>
     </g>
    </g>
    <g id="ytick_11">
     <g id="line2d_59">
      <path d="M 351.939168 225.644155 
L 1161.864 225.644155 
" clip-path="url(#p795f6f6618)" style="fill: none; stroke: #b0b0b0; stroke-opacity: 0.15; stroke-width: 0.8; stroke-linecap: square"/>
     </g>
     <g id="line2d_60">
      <g>
       <use xlink:href="#me1ef803e79" x="351.939168" y="225.644155" style="stroke: #000000; stroke-width: 0.8"/>
      </g>
     </g>
     <g id="text_30">
      <!-- 0 -->
      <g transform="translate(341.076668 229.443373) scale(0.1 -0.1)">
       <use xlink:href="#DejaVuSans-30"/>
      </g>
     </g>
    </g>
   </g>
   <g id="line2d_61">
    <path d="M 388.753933 225.644155 
L 392.345617 226.916512 
L 395.937302 227.756371 
L 399.528986 228.79994 
L 417.487408 232.269778 
L 424.670777 233.053312 
L 428.262461 233.255054 
L 431.854146 233.602675 
L 435.44583 234.090875 
L 442.629199 235.598977 
L 449.812568 236.776468 
L 453.404252 237.271455 
L 460.587621 238.937432 
L 464.179305 239.955766 
L 467.77099 240.61143 
L 474.954359 241.284812 
L 478.546043 241.858154 
L 482.137727 242.684719 
L 485.729412 243.269011 
L 496.504465 246.533746 
L 500.096149 246.92239 
L 507.279518 247.431523 
L 510.871203 247.878068 
L 518.054571 249.162579 
L 521.646256 249.843082 
L 525.23794 250.647571 
L 532.421309 252.839845 
L 536.012993 253.661695 
L 543.196362 254.564782 
L 550.379731 255.47832 
L 553.971415 256.0932 
L 557.5631 256.909732 
L 561.154784 257.586659 
L 568.338153 258.426998 
L 571.929837 259.103896 
L 575.521522 259.903096 
L 579.113206 260.448365 
L 597.071628 262.074634 
L 604.254997 263.332677 
L 607.846681 263.817091 
L 611.438366 263.924217 
L 618.621735 265.268368 
L 622.213419 265.843775 
L 625.805103 265.852601 
L 629.396788 266.210175 
L 632.988472 266.822111 
L 636.580157 267.764275 
L 643.763525 269.392605 
L 647.35521 270.371818 
L 654.538579 272.586447 
L 658.130263 273.247492 
L 665.313632 274.360663 
L 668.905316 275.157902 
L 676.088685 276.35431 
L 679.680369 276.776651 
L 694.047107 279.317354 
L 697.638791 279.829373 
L 701.230476 280.698618 
L 704.82216 281.868766 
L 708.413845 282.882698 
L 712.005529 283.614316 
L 722.780582 284.883632 
L 729.963951 286.350876 
L 740.739004 289.117046 
L 744.330689 290.093938 
L 747.922373 290.722897 
L 755.105742 291.803514 
L 758.697426 292.364453 
L 765.880795 293.002089 
L 773.064164 294.597369 
L 776.655848 295.118538 
L 780.247533 295.26276 
L 783.839217 295.676278 
L 787.430901 296.319506 
L 794.61427 297.835199 
L 805.389323 300.407644 
L 808.981008 301.176258 
L 816.164377 302.262398 
L 823.347745 302.665655 
L 826.93943 302.954991 
L 830.531114 303.603697 
L 834.122799 304.523792 
L 837.714483 305.711444 
L 841.306167 306.771727 
L 844.897852 307.483947 
L 848.489536 307.796854 
L 852.081221 307.859792 
L 862.856274 307.220261 
L 873.631327 311.775099 
L 884.40638 312.79584 
L 891.589749 312.940366 
L 898.773118 313.126074 
L 902.364802 313.32228 
L 905.956487 309.934797 
L 913.139855 310.924232 
L 916.73154 315.02638 
L 920.323224 314.889442 
L 923.914909 314.50881 
L 927.506593 315.964766 
L 931.098277 318.375555 
L 934.689962 321.00236 
L 938.281646 321.792578 
L 941.873331 321.473838 
L 949.056699 317.863015 
L 952.648384 316.604845 
L 956.240068 317.421792 
L 959.831753 319.353426 
L 963.423437 323.51588 
L 967.015121 327.064756 
L 970.606806 329.635484 
L 974.19849 330.608332 
L 981.381859 332.142762 
L 984.973543 332.514004 
L 992.156912 333.984023 
L 995.748597 334.5498 
L 999.340281 334.75586 
L 1006.52365 334.358737 
L 1010.115334 334.631104 
L 1017.298703 336.615626 
L 1020.890387 337.416701 
L 1024.482072 337.827524 
L 1028.073756 338.368627 
L 1031.665441 338.746864 
L 1038.848809 339.841804 
L 1042.440494 340.532445 
L 1049.623863 341.62687 
L 1056.807231 342.449713 
L 1063.9906 342.998556 
L 1078.357338 344.569807 
L 1085.540707 345.80782 
L 1089.132391 346.176245 
L 1092.724075 345.771159 
L 1103.499129 343.908474 
L 1110.682497 341.764101 
L 1114.274182 341.237922 
L 1121.457551 341.755805 
L 1125.049235 342.161047 
L 1125.049235 342.161047 
" clip-path="url(#p795f6f6618)" style="fill: none; stroke: #1b646b; stroke-width: 1.1; stroke-linecap: square"/>
   </g>
   <g id="line2d_62">
    <path d="M 351.939168 225.644155 
L 1161.864 225.644155 
" clip-path="url(#p795f6f6618)" style="fill: none; stroke: #aab0ac; stroke-width: 0.5; stroke-linecap: square"/>
   </g>
   <g id="patch_16">
    <path d="M 351.939168 352.20285 
L 351.939168 219.61755 
" style="fill: none; stroke: #000000; stroke-width: 0.8; stroke-linejoin: miter; stroke-linecap: square"/>
   </g>
   <g id="patch_17">
    <path d="M 351.939168 352.20285 
L 1161.864 352.20285 
" style="fill: none; stroke: #000000; stroke-width: 0.8; stroke-linejoin: miter; stroke-linecap: square"/>
   </g>
  </g>
  <g id="axes_5">
   <g id="patch_18">
    <path d="M 21.1248 551.0808 
L 226.457856 551.0808 
L 226.457856 418.4955 
L 21.1248 418.4955 
z
" style="fill: #ffffff"/>
   </g>
   <g id="PathCollection_3">
    <g clip-path="url(#p0baa739c67)">
     <use xlink:href="#me9190596af" x="68.673732" y="425.679839" style="fill: #1b646b; stroke: #1b646b"/>
    </g>
   </g>
   <g id="matplotlib.axis_9"/>
   <g id="matplotlib.axis_10"/>
   <g id="line2d_63">
    <path d="M 68.673732 425.679839 
L 68.82075 425.62213 
L 70.505146 425.009643 
L 71.08964 424.797109 
L 72.614736 424.522105 
L 74.383597 424.597122 
L 75.539921 424.797137 
L 77.236897 425.547187 
L 78.746366 426.797257 
L 80.305848 428.697352 
L 82.290346 431.047464 
L 83.009147 431.972509 
L 83.734181 432.647549 
L 84.331098 433.57259 
L 85.406171 435.222681 
L 85.999954 436.522737 
L 86.653116 437.922806 
L 87.068776 438.972856 
L 87.178148 439.947893 
L 87.465674 441.297959 
L 88.056337 442.873026 
L 89.197027 444.298102 
L 90.765879 445.548173 
L 92.037827 446.273209 
L 93.244153 447.398263 
L 94.3286 448.373321 
L 95.284909 449.848391 
L 95.638057 450.973447 
L 95.724874 451.438588 
L 95.863557 452.18163 
L 95.976825 453.619062 
L 96.156821 454.399089 
L 96.646839 454.999115 
L 97.33688 455.349126 
L 97.726891 455.369127 
L 98.536925 455.34913 
L 100.246982 455.099116 
L 101.927056 455.199135 
L 106.307216 455.969156 
L 107.200882 456.231993 
L 108.368996 456.743045 
L 110.057374 457.969233 
L 111.807445 459.449288 
L 114.327544 461.369377 
L 115.757601 462.749431 
L 116.957646 464.199478 
L 118.39769 465.769537 
L 119.647753 466.749579 
L 120.867786 467.469607 
L 121.937843 467.969622 
L 125.797995 469.149669 
L 126.538022 469.469684 
L 127.23805 469.869699 
L 128.562352 470.943459 
L 128.718106 471.069746 
L 128.761805 471.11813 
L 131.798215 474.47988 
L 132.268236 475.079916 
L 132.73506 475.926022 
L 132.748266 475.949949 
L 132.938259 476.499971 
L 133.098266 477.349995 
L 133.098194 477.354583 
L 133.221662 477.949922 
L 133.24354 481.300072 
L 133.223284 482.880802 
L 133.218545 483.250161 
L 133.387297 484.425215 
L 133.921713 485.575273 
L 134.034102 485.722011 
L 134.821763 486.75033 
L 136.805933 488.521966 
L 137.593815 489.225457 
L 140.550248 491.575593 
L 142.847271 493.425691 
L 145.372426 496.200828 
L 147.838217 498.850962 
L 149.997719 501.576109 
L 152.163481 504.10124 
L 153.162979 505.00322 
L 156.029165 508.201214 
L 159.69932 513.051395 
L 161.139376 515.101471 
L 163.269459 518.801617 
L 163.600594 519.257377 
L 163.617335 519.302005 
L 164.03298 520.152043 
L 164.814281 521.277104 
L 165.842473 521.827135 
L 167.414437 522.877199 
L 168.864538 524.052253 
L 170.008353 525.177315 
L 170.970924 526.227369 
L 171.627205 527.152418 
L 172.283505 528.302474 
L 173.121054 529.85255 
L 174.189864 532.002653 
L 175.443079 534.327765 
L 176.09311 535.802845 
L 176.990045 537.152907 
L 177.580711 538.802983 
L 177.930733 539.953037 
L 178.458882 541.678127 
L 178.505768 542.903172 
L 178.816286 544.270425 
L 178.70005 544.892644 
L 178.628973 545.054195 
L 178.908924 544.678263 
" clip-path="url(#p0baa739c67)" style="fill: none; stroke: #1b646b; stroke-width: 1.2; stroke-linecap: square"/>
   </g>
   <g id="patch_19">
    <path d="M 21.1248 551.0808 
L 21.1248 418.4955 
" style="fill: none; stroke: #d6ddda; stroke-width: 0.8; stroke-linejoin: miter; stroke-linecap: square"/>
   </g>
   <g id="patch_20">
    <path d="M 226.457856 551.0808 
L 226.457856 418.4955 
" style="fill: none; stroke: #d6ddda; stroke-width: 0.8; stroke-linejoin: miter; stroke-linecap: square"/>
   </g>
   <g id="patch_21">
    <path d="M 21.1248 551.0808 
L 226.457856 551.0808 
" style="fill: none; stroke: #d6ddda; stroke-width: 0.8; stroke-linejoin: miter; stroke-linecap: square"/>
   </g>
   <g id="patch_22">
    <path d="M 21.1248 418.4955 
L 226.457856 418.4955 
" style="fill: none; stroke: #d6ddda; stroke-width: 0.8; stroke-linejoin: miter; stroke-linecap: square"/>
   </g>
   <g id="text_31">
    <!-- N ↑ -->
    <g transform="translate(25.231461 427.9858) scale(0.09 -0.09)">
     <use xlink:href="#DejaVuSans-4e"/>
     <use xlink:href="#DejaVuSans-20" x="74.804688"/>
     <use xlink:href="#DejaVuSans-2191" x="106.591797"/>
    </g>
   </g>
  </g>
  <g id="axes_6">
   <g id="patch_23">
    <path d="M 351.939168 551.0808 
L 1161.864 551.0808 
L 1161.864 418.4955 
L 351.939168 418.4955 
z
" style="fill: #ffffff"/>
   </g>
   <g id="matplotlib.axis_11">
    <g id="xtick_18">
     <g id="line2d_64">
      <path d="M 376.059187 551.0808 
L 376.059187 418.4955 
" clip-path="url(#p648015edf1)" style="fill: none; stroke: #b0b0b0; stroke-opacity: 0.15; stroke-width: 0.8; stroke-linecap: square"/>
     </g>
     <g id="line2d_65">
      <g>
       <use xlink:href="#m774e9751c9" x="376.059187" y="551.0808" style="stroke: #000000; stroke-width: 0.8"/>
      </g>
     </g>
     <g id="text_32">
      <!-- 0.0 -->
      <g transform="translate(368.107624 563.179237) scale(0.1 -0.1)">
       <use xlink:href="#DejaVuSans-30"/>
       <use xlink:href="#DejaVuSans-2e" x="63.623047"/>
       <use xlink:href="#DejaVuSans-30" x="95.410156"/>
      </g>
     </g>
    </g>
    <g id="xtick_19">
     <g id="line2d_66">
      <path d="M 513.422101 551.0808 
L 513.422101 418.4955 
" clip-path="url(#p648015edf1)" style="fill: none; stroke: #b0b0b0; stroke-opacity: 0.15; stroke-width: 0.8; stroke-linecap: square"/>
     </g>
     <g id="line2d_67">
      <g>
       <use xlink:href="#m774e9751c9" x="513.422101" y="551.0808" style="stroke: #000000; stroke-width: 0.8"/>
      </g>
     </g>
     <g id="text_33">
      <!-- 0.2 -->
      <g transform="translate(505.470539 563.179237) scale(0.1 -0.1)">
       <use xlink:href="#DejaVuSans-30"/>
       <use xlink:href="#DejaVuSans-2e" x="63.623047"/>
       <use xlink:href="#DejaVuSans-32" x="95.410156"/>
      </g>
     </g>
    </g>
    <g id="xtick_20">
     <g id="line2d_68">
      <path d="M 650.785016 551.0808 
L 650.785016 418.4955 
" clip-path="url(#p648015edf1)" style="fill: none; stroke: #b0b0b0; stroke-opacity: 0.15; stroke-width: 0.8; stroke-linecap: square"/>
     </g>
     <g id="line2d_69">
      <g>
       <use xlink:href="#m774e9751c9" x="650.785016" y="551.0808" style="stroke: #000000; stroke-width: 0.8"/>
      </g>
     </g>
     <g id="text_34">
      <!-- 0.4 -->
      <g transform="translate(642.833453 563.179237) scale(0.1 -0.1)">
       <use xlink:href="#DejaVuSans-30"/>
       <use xlink:href="#DejaVuSans-2e" x="63.623047"/>
       <use xlink:href="#DejaVuSans-34" x="95.410156"/>
      </g>
     </g>
    </g>
    <g id="xtick_21">
     <g id="line2d_70">
      <path d="M 788.147931 551.0808 
L 788.147931 418.4955 
" clip-path="url(#p648015edf1)" style="fill: none; stroke: #b0b0b0; stroke-opacity: 0.15; stroke-width: 0.8; stroke-linecap: square"/>
     </g>
     <g id="line2d_71">
      <g>
       <use xlink:href="#m774e9751c9" x="788.147931" y="551.0808" style="stroke: #000000; stroke-width: 0.8"/>
      </g>
     </g>
     <g id="text_35">
      <!-- 0.6 -->
      <g transform="translate(780.196368 563.179237) scale(0.1 -0.1)">
       <defs>
        <path id="DejaVuSans-36" d="M 2113 2584 
Q 1688 2584 1439 2293 
Q 1191 2003 1191 1497 
Q 1191 994 1439 701 
Q 1688 409 2113 409 
Q 2538 409 2786 701 
Q 3034 994 3034 1497 
Q 3034 2003 2786 2293 
Q 2538 2584 2113 2584 
z
M 3366 4563 
L 3366 3988 
Q 3128 4100 2886 4159 
Q 2644 4219 2406 4219 
Q 1781 4219 1451 3797 
Q 1122 3375 1075 2522 
Q 1259 2794 1537 2939 
Q 1816 3084 2150 3084 
Q 2853 3084 3261 2657 
Q 3669 2231 3669 1497 
Q 3669 778 3244 343 
Q 2819 -91 2113 -91 
Q 1303 -91 875 529 
Q 447 1150 447 2328 
Q 447 3434 972 4092 
Q 1497 4750 2381 4750 
Q 2619 4750 2861 4703 
Q 3103 4656 3366 4563 
z
" transform="scale(0.015625)"/>
       </defs>
       <use xlink:href="#DejaVuSans-30"/>
       <use xlink:href="#DejaVuSans-2e" x="63.623047"/>
       <use xlink:href="#DejaVuSans-36" x="95.410156"/>
      </g>
     </g>
    </g>
    <g id="xtick_22">
     <g id="line2d_72">
      <path d="M 925.510845 551.0808 
L 925.510845 418.4955 
" clip-path="url(#p648015edf1)" style="fill: none; stroke: #b0b0b0; stroke-opacity: 0.15; stroke-width: 0.8; stroke-linecap: square"/>
     </g>
     <g id="line2d_73">
      <g>
       <use xlink:href="#m774e9751c9" x="925.510845" y="551.0808" style="stroke: #000000; stroke-width: 0.8"/>
      </g>
     </g>
     <g id="text_36">
      <!-- 0.8 -->
      <g transform="translate(917.559283 563.179237) scale(0.1 -0.1)">
       <defs>
        <path id="DejaVuSans-38" d="M 2034 2216 
Q 1584 2216 1326 1975 
Q 1069 1734 1069 1313 
Q 1069 891 1326 650 
Q 1584 409 2034 409 
Q 2484 409 2743 651 
Q 3003 894 3003 1313 
Q 3003 1734 2745 1975 
Q 2488 2216 2034 2216 
z
M 1403 2484 
Q 997 2584 770 2862 
Q 544 3141 544 3541 
Q 544 4100 942 4425 
Q 1341 4750 2034 4750 
Q 2731 4750 3128 4425 
Q 3525 4100 3525 3541 
Q 3525 3141 3298 2862 
Q 3072 2584 2669 2484 
Q 3125 2378 3379 2068 
Q 3634 1759 3634 1313 
Q 3634 634 3220 271 
Q 2806 -91 2034 -91 
Q 1263 -91 848 271 
Q 434 634 434 1313 
Q 434 1759 690 2068 
Q 947 2378 1403 2484 
z
M 1172 3481 
Q 1172 3119 1398 2916 
Q 1625 2713 2034 2713 
Q 2441 2713 2670 2916 
Q 2900 3119 2900 3481 
Q 2900 3844 2670 4047 
Q 2441 4250 2034 4250 
Q 1625 4250 1398 4047 
Q 1172 3844 1172 3481 
z
" transform="scale(0.015625)"/>
       </defs>
       <use xlink:href="#DejaVuSans-30"/>
       <use xlink:href="#DejaVuSans-2e" x="63.623047"/>
       <use xlink:href="#DejaVuSans-38" x="95.410156"/>
      </g>
     </g>
    </g>
    <g id="xtick_23">
     <g id="line2d_74">
      <path d="M 1062.87376 551.0808 
L 1062.87376 418.4955 
" clip-path="url(#p648015edf1)" style="fill: none; stroke: #b0b0b0; stroke-opacity: 0.15; stroke-width: 0.8; stroke-linecap: square"/>
     </g>
     <g id="line2d_75">
      <g>
       <use xlink:href="#m774e9751c9" x="1062.87376" y="551.0808" style="stroke: #000000; stroke-width: 0.8"/>
      </g>
     </g>
     <g id="text_37">
      <!-- 1.0 -->
      <g transform="translate(1054.922197 563.179237) scale(0.1 -0.1)">
       <use xlink:href="#DejaVuSans-31"/>
       <use xlink:href="#DejaVuSans-2e" x="63.623047"/>
       <use xlink:href="#DejaVuSans-30" x="95.410156"/>
      </g>
     </g>
    </g>
   </g>
   <g id="matplotlib.axis_12">
    <g id="ytick_12">
     <g id="line2d_76">
      <path d="M 351.939168 530.290541 
L 1161.864 530.290541 
" clip-path="url(#p648015edf1)" style="fill: none; stroke: #b0b0b0; stroke-opacity: 0.15; stroke-width: 0.8; stroke-linecap: square"/>
     </g>
     <g id="line2d_77">
      <g>
       <use xlink:href="#me1ef803e79" x="351.939168" y="530.290541" style="stroke: #000000; stroke-width: 0.8"/>
      </g>
     </g>
     <g id="text_38">
      <!-- −60 -->
      <g transform="translate(326.33448 534.08976) scale(0.1 -0.1)">
       <use xlink:href="#DejaVuSans-2212"/>
       <use xlink:href="#DejaVuSans-36" x="83.789062"/>
       <use xlink:href="#DejaVuSans-30" x="147.412109"/>
      </g>
     </g>
    </g>
    <g id="ytick_13">
     <g id="line2d_78">
      <path d="M 351.939168 495.034396 
L 1161.864 495.034396 
" clip-path="url(#p648015edf1)" style="fill: none; stroke: #b0b0b0; stroke-opacity: 0.15; stroke-width: 0.8; stroke-linecap: square"/>
     </g>
     <g id="line2d_79">
      <g>
       <use xlink:href="#me1ef803e79" x="351.939168" y="495.034396" style="stroke: #000000; stroke-width: 0.8"/>
      </g>
     </g>
     <g id="text_39">
      <!-- −40 -->
      <g transform="translate(326.33448 498.833614) scale(0.1 -0.1)">
       <use xlink:href="#DejaVuSans-2212"/>
       <use xlink:href="#DejaVuSans-34" x="83.789062"/>
       <use xlink:href="#DejaVuSans-30" x="147.412109"/>
      </g>
     </g>
    </g>
    <g id="ytick_14">
     <g id="line2d_80">
      <path d="M 351.939168 459.77825 
L 1161.864 459.77825 
" clip-path="url(#p648015edf1)" style="fill: none; stroke: #b0b0b0; stroke-opacity: 0.15; stroke-width: 0.8; stroke-linecap: square"/>
     </g>
     <g id="line2d_81">
      <g>
       <use xlink:href="#me1ef803e79" x="351.939168" y="459.77825" style="stroke: #000000; stroke-width: 0.8"/>
      </g>
     </g>
     <g id="text_40">
      <!-- −20 -->
      <g transform="translate(326.33448 463.577469) scale(0.1 -0.1)">
       <use xlink:href="#DejaVuSans-2212"/>
       <use xlink:href="#DejaVuSans-32" x="83.789062"/>
       <use xlink:href="#DejaVuSans-30" x="147.412109"/>
      </g>
     </g>
    </g>
    <g id="ytick_15">
     <g id="line2d_82">
      <path d="M 351.939168 424.522105 
L 1161.864 424.522105 
" clip-path="url(#p648015edf1)" style="fill: none; stroke: #b0b0b0; stroke-opacity: 0.15; stroke-width: 0.8; stroke-linecap: square"/>
     </g>
     <g id="line2d_83">
      <g>
       <use xlink:href="#me1ef803e79" x="351.939168" y="424.522105" style="stroke: #000000; stroke-width: 0.8"/>
      </g>
     </g>
     <g id="text_41">
      <!-- 0 -->
      <g transform="translate(341.076668 428.321323) scale(0.1 -0.1)">
       <use xlink:href="#DejaVuSans-30"/>
      </g>
     </g>
    </g>
   </g>
   <g id="line2d_84">
    <path d="M 388.753933 424.522105 
L 401.44868 429.053068 
L 414.143426 430.224866 
L 426.838173 430.485782 
L 439.532919 430.334623 
L 452.227666 428.258024 
L 464.922413 426.238297 
L 477.617159 424.887194 
L 490.311906 426.573041 
L 503.006652 429.68437 
L 515.701399 433.790784 
L 528.396146 438.032176 
L 541.090892 441.844071 
L 553.785639 444.705988 
L 566.480385 446.566132 
L 579.175132 448.016541 
L 591.869878 449.796258 
L 604.564625 452.017718 
L 617.259372 454.218306 
L 629.954118 455.954052 
L 642.648865 457.41727 
L 655.343611 458.721269 
L 668.038358 459.598228 
L 680.733105 460.004387 
L 693.427851 460.421788 
L 706.122598 461.707217 
L 718.817344 463.650973 
L 731.512091 466.146671 
L 744.206837 468.666985 
L 756.901584 471.139239 
L 769.596331 473.29273 
L 782.291077 475.528066 
L 794.985824 478.436539 
L 807.68057 481.667679 
L 820.375317 484.724635 
L 833.070063 487.547533 
L 845.76481 490.384883 
L 858.459557 493.201884 
L 871.154303 495.65633 
L 883.84905 497.775089 
L 896.543796 499.544764 
L 909.238543 501.391924 
L 921.93329 503.237621 
L 934.628036 504.985994 
L 947.322783 506.424934 
L 960.017529 507.574014 
L 972.712276 509.03924 
L 985.407022 511.074219 
L 998.101769 514.494489 
L 1010.796516 518.116475 
L 1023.491262 521.725043 
L 1036.186009 524.192846 
L 1048.880755 527.09552 
L 1061.575502 530.15878 
L 1074.270249 533.702313 
L 1086.964995 536.756208 
L 1099.659742 539.913666 
L 1112.354488 542.284508 
L 1125.049235 545.054195 
" clip-path="url(#p648015edf1)" style="fill: none; stroke: #1b646b; stroke-width: 1.1; stroke-linecap: square"/>
   </g>
   <g id="line2d_85">
    <path d="M 351.939168 424.522105 
L 1161.864 424.522105 
" clip-path="url(#p648015edf1)" style="fill: none; stroke: #aab0ac; stroke-width: 0.5; stroke-linecap: square"/>
   </g>
   <g id="patch_24">
    <path d="M 351.939168 551.0808 
L 351.939168 418.4955 
" style="fill: none; stroke: #000000; stroke-width: 0.8; stroke-linejoin: miter; stroke-linecap: square"/>
   </g>
   <g id="patch_25">
    <path d="M 351.939168 551.0808 
L 1161.864 551.0808 
" style="fill: none; stroke: #000000; stroke-width: 0.8; stroke-linejoin: miter; stroke-linecap: square"/>
   </g>
  </g>
  <g id="text_42">
   <!-- Mustang Tank * † -->
   <g style="fill: #202d30" transform="translate(21.1248 13.03632) scale(0.12 -0.12)">
    <defs>
     <path id="DejaVuSans-Bold-4d" d="M 588 4666 
L 2119 4666 
L 3181 2169 
L 4250 4666 
L 5778 4666 
L 5778 0 
L 4641 0 
L 4641 3413 
L 3566 897 
L 2803 897 
L 1728 3413 
L 1728 0 
L 588 0 
L 588 4666 
z
" transform="scale(0.015625)"/>
     <path id="DejaVuSans-Bold-75" d="M 500 1363 
L 500 3500 
L 1625 3500 
L 1625 3150 
Q 1625 2866 1622 2436 
Q 1619 2006 1619 1863 
Q 1619 1441 1641 1255 
Q 1663 1069 1716 984 
Q 1784 875 1895 815 
Q 2006 756 2150 756 
Q 2500 756 2700 1025 
Q 2900 1294 2900 1772 
L 2900 3500 
L 4019 3500 
L 4019 0 
L 2900 0 
L 2900 506 
Q 2647 200 2364 54 
Q 2081 -91 1741 -91 
Q 1134 -91 817 281 
Q 500 653 500 1363 
z
" transform="scale(0.015625)"/>
     <path id="DejaVuSans-Bold-73" d="M 3272 3391 
L 3272 2541 
Q 2913 2691 2578 2766 
Q 2244 2841 1947 2841 
Q 1628 2841 1473 2761 
Q 1319 2681 1319 2516 
Q 1319 2381 1436 2309 
Q 1553 2238 1856 2203 
L 2053 2175 
Q 2913 2066 3209 1816 
Q 3506 1566 3506 1031 
Q 3506 472 3093 190 
Q 2681 -91 1863 -91 
Q 1516 -91 1145 -36 
Q 775 19 384 128 
L 384 978 
Q 719 816 1070 734 
Q 1422 653 1784 653 
Q 2113 653 2278 743 
Q 2444 834 2444 1013 
Q 2444 1163 2330 1236 
Q 2216 1309 1875 1350 
L 1678 1375 
Q 931 1469 631 1722 
Q 331 1975 331 2491 
Q 331 3047 712 3315 
Q 1094 3584 1881 3584 
Q 2191 3584 2531 3537 
Q 2872 3491 3272 3391 
z
" transform="scale(0.015625)"/>
     <path id="DejaVuSans-Bold-74" d="M 1759 4494 
L 1759 3500 
L 2913 3500 
L 2913 2700 
L 1759 2700 
L 1759 1216 
Q 1759 972 1856 886 
Q 1953 800 2241 800 
L 2816 800 
L 2816 0 
L 1856 0 
Q 1194 0 917 276 
Q 641 553 641 1216 
L 641 2700 
L 84 2700 
L 84 3500 
L 641 3500 
L 641 4494 
L 1759 4494 
z
" transform="scale(0.015625)"/>
     <path id="DejaVuSans-Bold-61" d="M 2106 1575 
Q 1756 1575 1579 1456 
Q 1403 1338 1403 1106 
Q 1403 894 1545 773 
Q 1688 653 1941 653 
Q 2256 653 2472 879 
Q 2688 1106 2688 1447 
L 2688 1575 
L 2106 1575 
z
M 3816 1997 
L 3816 0 
L 2688 0 
L 2688 519 
Q 2463 200 2181 54 
Q 1900 -91 1497 -91 
Q 953 -91 614 226 
Q 275 544 275 1050 
Q 275 1666 698 1953 
Q 1122 2241 2028 2241 
L 2688 2241 
L 2688 2328 
Q 2688 2594 2478 2717 
Q 2269 2841 1825 2841 
Q 1466 2841 1156 2769 
Q 847 2697 581 2553 
L 581 3406 
Q 941 3494 1303 3539 
Q 1666 3584 2028 3584 
Q 2975 3584 3395 3211 
Q 3816 2838 3816 1997 
z
" transform="scale(0.015625)"/>
     <path id="DejaVuSans-Bold-6e" d="M 4056 2131 
L 4056 0 
L 2931 0 
L 2931 347 
L 2931 1631 
Q 2931 2084 2911 2256 
Q 2891 2428 2841 2509 
Q 2775 2619 2662 2680 
Q 2550 2741 2406 2741 
Q 2056 2741 1856 2470 
Q 1656 2200 1656 1722 
L 1656 0 
L 538 0 
L 538 3500 
L 1656 3500 
L 1656 2988 
Q 1909 3294 2193 3439 
Q 2478 3584 2822 3584 
Q 3428 3584 3742 3212 
Q 4056 2841 4056 2131 
z
" transform="scale(0.015625)"/>
     <path id="DejaVuSans-Bold-67" d="M 2919 594 
Q 2688 288 2409 144 
Q 2131 0 1766 0 
Q 1125 0 706 504 
Q 288 1009 288 1791 
Q 288 2575 706 3076 
Q 1125 3578 1766 3578 
Q 2131 3578 2409 3434 
Q 2688 3291 2919 2981 
L 2919 3500 
L 4044 3500 
L 4044 353 
Q 4044 -491 3511 -936 
Q 2978 -1381 1966 -1381 
Q 1638 -1381 1331 -1331 
Q 1025 -1281 716 -1178 
L 716 -306 
Q 1009 -475 1290 -558 
Q 1572 -641 1856 -641 
Q 2406 -641 2662 -400 
Q 2919 -159 2919 353 
L 2919 594 
z
M 2181 2772 
Q 1834 2772 1640 2515 
Q 1447 2259 1447 1791 
Q 1447 1309 1634 1061 
Q 1822 813 2181 813 
Q 2531 813 2725 1069 
Q 2919 1325 2919 1791 
Q 2919 2259 2725 2515 
Q 2531 2772 2181 2772 
z
" transform="scale(0.015625)"/>
     <path id="DejaVuSans-Bold-20" transform="scale(0.015625)"/>
     <path id="DejaVuSans-Bold-54" d="M 31 4666 
L 4331 4666 
L 4331 3756 
L 2784 3756 
L 2784 0 
L 1581 0 
L 1581 3756 
L 31 3756 
L 31 4666 
z
" transform="scale(0.015625)"/>
     <path id="DejaVuSans-Bold-6b" d="M 538 4863 
L 1656 4863 
L 1656 2216 
L 2944 3500 
L 4244 3500 
L 2534 1894 
L 4378 0 
L 3022 0 
L 1656 1459 
L 1656 0 
L 538 0 
L 538 4863 
z
" transform="scale(0.015625)"/>
     <path id="DejaVuSans-Bold-2a" d="M 3219 3803 
L 2188 3263 
L 3219 2719 
L 2981 2278 
L 1941 2853 
L 1941 1778 
L 1409 1778 
L 1409 2853 
L 366 2278 
L 128 2719 
L 1172 3263 
L 128 3803 
L 366 4244 
L 1409 3675 
L 1409 4750 
L 1941 4750 
L 1941 3675 
L 2981 4244 
L 3219 3803 
z
" transform="scale(0.015625)"/>
     <path id="DejaVuSans-Bold-2020" d="M 1069 4666 
L 2100 4666 
L 2100 3475 
L 3009 3475 
L 3009 2731 
L 2100 2731 
L 2100 -616 
L 1069 -616 
L 1069 2731 
L 166 2731 
L 166 3475 
L 1069 3475 
L 1069 4666 
z
" transform="scale(0.015625)"/>
    </defs>
    <use xlink:href="#DejaVuSans-Bold-4d"/>
    <use xlink:href="#DejaVuSans-Bold-75" x="99.511719"/>
    <use xlink:href="#DejaVuSans-Bold-73" x="170.703125"/>
    <use xlink:href="#DejaVuSans-Bold-74" x="230.224609"/>
    <use xlink:href="#DejaVuSans-Bold-61" x="278.027344"/>
    <use xlink:href="#DejaVuSans-Bold-6e" x="345.507812"/>
    <use xlink:href="#DejaVuSans-Bold-67" x="416.699219"/>
    <use xlink:href="#DejaVuSans-Bold-20" x="488.28125"/>
    <use xlink:href="#DejaVuSans-Bold-54" x="523.095703"/>
    <use xlink:href="#DejaVuSans-Bold-61" x="578.433594"/>
    <use xlink:href="#DejaVuSans-Bold-6e" x="645.914062"/>
    <use xlink:href="#DejaVuSans-Bold-6b" x="717.105469"/>
    <use xlink:href="#DejaVuSans-Bold-20" x="783.609375"/>
    <use xlink:href="#DejaVuSans-Bold-2a" x="818.423828"/>
    <use xlink:href="#DejaVuSans-Bold-20" x="870.71875"/>
    <use xlink:href="#DejaVuSans-Bold-2020" x="905.533203"/>
   </g>
  </g>
  <g id="text_43">
   <!-- 1: 0.38 +0/−0 -->
   <g transform="translate(21.1248 174.552218) scale(0.1 -0.1)">
    <defs>
     <path id="DejaVuSans-3a" d="M 750 794 
L 1409 794 
L 1409 0 
L 750 0 
L 750 794 
z
M 750 3309 
L 1409 3309 
L 1409 2516 
L 750 2516 
L 750 3309 
z
" transform="scale(0.015625)"/>
     <path id="DejaVuSans-2b" d="M 2944 4013 
L 2944 2272 
L 4684 2272 
L 4684 1741 
L 2944 1741 
L 2944 0 
L 2419 0 
L 2419 1741 
L 678 1741 
L 678 2272 
L 2419 2272 
L 2419 4013 
L 2944 4013 
z
" transform="scale(0.015625)"/>
     <path id="DejaVuSans-2f" d="M 1625 4666 
L 2156 4666 
L 531 -594 
L 0 -594 
L 1625 4666 
z
" transform="scale(0.015625)"/>
    </defs>
    <use xlink:href="#DejaVuSans-31"/>
    <use xlink:href="#DejaVuSans-3a" x="63.623047"/>
    <use xlink:href="#DejaVuSans-20" x="97.314453"/>
    <use xlink:href="#DejaVuSans-30" x="129.101562"/>
    <use xlink:href="#DejaVuSans-2e" x="192.724609"/>
    <use xlink:href="#DejaVuSans-33" x="224.511719"/>
    <use xlink:href="#DejaVuSans-38" x="288.134766"/>
    <use xlink:href="#DejaVuSans-20" x="351.757812"/>
    <use xlink:href="#DejaVuSans-2b" x="383.544922"/>
    <use xlink:href="#DejaVuSans-30" x="467.333984"/>
    <use xlink:href="#DejaVuSans-2f" x="530.957031"/>
    <use xlink:href="#DejaVuSans-2212" x="564.648438"/>
    <use xlink:href="#DejaVuSans-30" x="648.4375"/>
   </g>
  </g>
  <g id="text_44">
   <!-- Paria River * † -->
   <g style="fill: #202d30" transform="translate(21.1248 211.91427) scale(0.12 -0.12)">
    <defs>
     <path id="DejaVuSans-Bold-50" d="M 588 4666 
L 2584 4666 
Q 3475 4666 3951 4270 
Q 4428 3875 4428 3144 
Q 4428 2409 3951 2014 
Q 3475 1619 2584 1619 
L 1791 1619 
L 1791 0 
L 588 0 
L 588 4666 
z
M 1791 3794 
L 1791 2491 
L 2456 2491 
Q 2806 2491 2997 2661 
Q 3188 2831 3188 3144 
Q 3188 3456 2997 3625 
Q 2806 3794 2456 3794 
L 1791 3794 
z
" transform="scale(0.015625)"/>
     <path id="DejaVuSans-Bold-72" d="M 3138 2547 
Q 2991 2616 2845 2648 
Q 2700 2681 2553 2681 
Q 2122 2681 1889 2404 
Q 1656 2128 1656 1613 
L 1656 0 
L 538 0 
L 538 3500 
L 1656 3500 
L 1656 2925 
Q 1872 3269 2151 3426 
Q 2431 3584 2822 3584 
Q 2878 3584 2943 3579 
Q 3009 3575 3134 3559 
L 3138 2547 
z
" transform="scale(0.015625)"/>
     <path id="DejaVuSans-Bold-69" d="M 538 3500 
L 1656 3500 
L 1656 0 
L 538 0 
L 538 3500 
z
M 538 4863 
L 1656 4863 
L 1656 3950 
L 538 3950 
L 538 4863 
z
" transform="scale(0.015625)"/>
     <path id="DejaVuSans-Bold-52" d="M 2297 2597 
Q 2675 2597 2839 2737 
Q 3003 2878 3003 3200 
Q 3003 3519 2839 3656 
Q 2675 3794 2297 3794 
L 1791 3794 
L 1791 2597 
L 2297 2597 
z
M 1791 1766 
L 1791 0 
L 588 0 
L 588 4666 
L 2425 4666 
Q 3347 4666 3776 4356 
Q 4206 4047 4206 3378 
Q 4206 2916 3982 2619 
Q 3759 2322 3309 2181 
Q 3556 2125 3751 1926 
Q 3947 1728 4147 1325 
L 4800 0 
L 3519 0 
L 2950 1159 
Q 2778 1509 2601 1637 
Q 2425 1766 2131 1766 
L 1791 1766 
z
" transform="scale(0.015625)"/>
     <path id="DejaVuSans-Bold-76" d="M 97 3500 
L 1216 3500 
L 2088 1081 
L 2956 3500 
L 4078 3500 
L 2700 0 
L 1472 0 
L 97 3500 
z
" transform="scale(0.015625)"/>
     <path id="DejaVuSans-Bold-65" d="M 4031 1759 
L 4031 1441 
L 1416 1441 
Q 1456 1047 1700 850 
Q 1944 653 2381 653 
Q 2734 653 3104 758 
Q 3475 863 3866 1075 
L 3866 213 
Q 3469 63 3072 -14 
Q 2675 -91 2278 -91 
Q 1328 -91 801 392 
Q 275 875 275 1747 
Q 275 2603 792 3093 
Q 1309 3584 2216 3584 
Q 3041 3584 3536 3087 
Q 4031 2591 4031 1759 
z
M 2881 2131 
Q 2881 2450 2695 2645 
Q 2509 2841 2209 2841 
Q 1884 2841 1681 2658 
Q 1478 2475 1428 2131 
L 2881 2131 
z
" transform="scale(0.015625)"/>
    </defs>
    <use xlink:href="#DejaVuSans-Bold-50"/>
    <use xlink:href="#DejaVuSans-Bold-61" x="70.666016"/>
    <use xlink:href="#DejaVuSans-Bold-72" x="138.146484"/>
    <use xlink:href="#DejaVuSans-Bold-69" x="187.462891"/>
    <use xlink:href="#DejaVuSans-Bold-61" x="221.740234"/>
    <use xlink:href="#DejaVuSans-Bold-20" x="289.220703"/>
    <use xlink:href="#DejaVuSans-Bold-52" x="324.035156"/>
    <use xlink:href="#DejaVuSans-Bold-69" x="401.037109"/>
    <use xlink:href="#DejaVuSans-Bold-76" x="435.314453"/>
    <use xlink:href="#DejaVuSans-Bold-65" x="500.5"/>
    <use xlink:href="#DejaVuSans-Bold-72" x="568.322266"/>
    <use xlink:href="#DejaVuSans-Bold-20" x="617.638672"/>
    <use xlink:href="#DejaVuSans-Bold-2a" x="652.453125"/>
    <use xlink:href="#DejaVuSans-Bold-20" x="704.748047"/>
    <use xlink:href="#DejaVuSans-Bold-2020" x="739.5625"/>
   </g>
  </g>
  <g id="text_45">
   <!-- 1: 3.83 +0/−130 -->
   <g transform="translate(21.1248 373.430168) scale(0.1 -0.1)">
    <use xlink:href="#DejaVuSans-31"/>
    <use xlink:href="#DejaVuSans-3a" x="63.623047"/>
    <use xlink:href="#DejaVuSans-20" x="97.314453"/>
    <use xlink:href="#DejaVuSans-33" x="129.101562"/>
    <use xlink:href="#DejaVuSans-2e" x="192.724609"/>
    <use xlink:href="#DejaVuSans-38" x="224.511719"/>
    <use xlink:href="#DejaVuSans-33" x="288.134766"/>
    <use xlink:href="#DejaVuSans-20" x="351.757812"/>
    <use xlink:href="#DejaVuSans-2b" x="383.544922"/>
    <use xlink:href="#DejaVuSans-30" x="467.333984"/>
    <use xlink:href="#DejaVuSans-2f" x="530.957031"/>
    <use xlink:href="#DejaVuSans-2212" x="564.648438"/>
    <use xlink:href="#DejaVuSans-31" x="648.4375"/>
    <use xlink:href="#DejaVuSans-33" x="712.060547"/>
    <use xlink:href="#DejaVuSans-30" x="775.683594"/>
   </g>
  </g>
  <g id="text_46">
   <!-- Petrified Hollow * † -->
   <g style="fill: #202d30" transform="translate(21.1248 410.79222) scale(0.12 -0.12)">
    <defs>
     <path id="DejaVuSans-Bold-66" d="M 2841 4863 
L 2841 4128 
L 2222 4128 
Q 1984 4128 1890 4042 
Q 1797 3956 1797 3744 
L 1797 3500 
L 2753 3500 
L 2753 2700 
L 1797 2700 
L 1797 0 
L 678 0 
L 678 2700 
L 122 2700 
L 122 3500 
L 678 3500 
L 678 3744 
Q 678 4316 997 4589 
Q 1316 4863 1984 4863 
L 2841 4863 
z
" transform="scale(0.015625)"/>
     <path id="DejaVuSans-Bold-64" d="M 2919 2988 
L 2919 4863 
L 4044 4863 
L 4044 0 
L 2919 0 
L 2919 506 
Q 2688 197 2409 53 
Q 2131 -91 1766 -91 
Q 1119 -91 703 423 
Q 288 938 288 1747 
Q 288 2556 703 3070 
Q 1119 3584 1766 3584 
Q 2128 3584 2408 3439 
Q 2688 3294 2919 2988 
z
M 2181 722 
Q 2541 722 2730 984 
Q 2919 1247 2919 1747 
Q 2919 2247 2730 2509 
Q 2541 2772 2181 2772 
Q 1825 2772 1636 2509 
Q 1447 2247 1447 1747 
Q 1447 1247 1636 984 
Q 1825 722 2181 722 
z
" transform="scale(0.015625)"/>
     <path id="DejaVuSans-Bold-48" d="M 588 4666 
L 1791 4666 
L 1791 2888 
L 3566 2888 
L 3566 4666 
L 4769 4666 
L 4769 0 
L 3566 0 
L 3566 1978 
L 1791 1978 
L 1791 0 
L 588 0 
L 588 4666 
z
" transform="scale(0.015625)"/>
     <path id="DejaVuSans-Bold-6f" d="M 2203 2784 
Q 1831 2784 1636 2517 
Q 1441 2250 1441 1747 
Q 1441 1244 1636 976 
Q 1831 709 2203 709 
Q 2569 709 2762 976 
Q 2956 1244 2956 1747 
Q 2956 2250 2762 2517 
Q 2569 2784 2203 2784 
z
M 2203 3584 
Q 3106 3584 3614 3096 
Q 4122 2609 4122 1747 
Q 4122 884 3614 396 
Q 3106 -91 2203 -91 
Q 1297 -91 786 396 
Q 275 884 275 1747 
Q 275 2609 786 3096 
Q 1297 3584 2203 3584 
z
" transform="scale(0.015625)"/>
     <path id="DejaVuSans-Bold-6c" d="M 538 4863 
L 1656 4863 
L 1656 0 
L 538 0 
L 538 4863 
z
" transform="scale(0.015625)"/>
     <path id="DejaVuSans-Bold-77" d="M 225 3500 
L 1313 3500 
L 1900 1088 
L 2491 3500 
L 3425 3500 
L 4013 1113 
L 4603 3500 
L 5691 3500 
L 4769 0 
L 3547 0 
L 2956 2406 
L 2369 0 
L 1147 0 
L 225 3500 
z
" transform="scale(0.015625)"/>
    </defs>
    <use xlink:href="#DejaVuSans-Bold-50"/>
    <use xlink:href="#DejaVuSans-Bold-65" x="73.291016"/>
    <use xlink:href="#DejaVuSans-Bold-74" x="141.113281"/>
    <use xlink:href="#DejaVuSans-Bold-72" x="188.916016"/>
    <use xlink:href="#DejaVuSans-Bold-69" x="238.232422"/>
    <use xlink:href="#DejaVuSans-Bold-66" x="272.509766"/>
    <use xlink:href="#DejaVuSans-Bold-69" x="316.015625"/>
    <use xlink:href="#DejaVuSans-Bold-65" x="350.292969"/>
    <use xlink:href="#DejaVuSans-Bold-64" x="418.115234"/>
    <use xlink:href="#DejaVuSans-Bold-20" x="489.697266"/>
    <use xlink:href="#DejaVuSans-Bold-48" x="524.511719"/>
    <use xlink:href="#DejaVuSans-Bold-6f" x="608.203125"/>
    <use xlink:href="#DejaVuSans-Bold-6c" x="676.904297"/>
    <use xlink:href="#DejaVuSans-Bold-6c" x="711.181641"/>
    <use xlink:href="#DejaVuSans-Bold-6f" x="745.458984"/>
    <use xlink:href="#DejaVuSans-Bold-77" x="814.160156"/>
    <use xlink:href="#DejaVuSans-Bold-20" x="906.542969"/>
    <use xlink:href="#DejaVuSans-Bold-2a" x="941.357422"/>
    <use xlink:href="#DejaVuSans-Bold-20" x="993.652344"/>
    <use xlink:href="#DejaVuSans-Bold-2020" x="1028.466797"/>
   </g>
  </g>
  <g id="text_47">
   <!-- 1: 1.09 +0/−68 -->
   <g transform="translate(21.1248 572.308117) scale(0.1 -0.1)">
    <defs>
     <path id="DejaVuSans-39" d="M 703 97 
L 703 672 
Q 941 559 1184 500 
Q 1428 441 1663 441 
Q 2288 441 2617 861 
Q 2947 1281 2994 2138 
Q 2813 1869 2534 1725 
Q 2256 1581 1919 1581 
Q 1219 1581 811 2004 
Q 403 2428 403 3163 
Q 403 3881 828 4315 
Q 1253 4750 1959 4750 
Q 2769 4750 3195 4129 
Q 3622 3509 3622 2328 
Q 3622 1225 3098 567 
Q 2575 -91 1691 -91 
Q 1453 -91 1209 -44 
Q 966 3 703 97 
z
M 1959 2075 
Q 2384 2075 2632 2365 
Q 2881 2656 2881 3163 
Q 2881 3666 2632 3958 
Q 2384 4250 1959 4250 
Q 1534 4250 1286 3958 
Q 1038 3666 1038 3163 
Q 1038 2656 1286 2365 
Q 1534 2075 1959 2075 
z
" transform="scale(0.015625)"/>
    </defs>
    <use xlink:href="#DejaVuSans-31"/>
    <use xlink:href="#DejaVuSans-3a" x="63.623047"/>
    <use xlink:href="#DejaVuSans-20" x="97.314453"/>
    <use xlink:href="#DejaVuSans-31" x="129.101562"/>
    <use xlink:href="#DejaVuSans-2e" x="192.724609"/>
    <use xlink:href="#DejaVuSans-30" x="224.511719"/>
    <use xlink:href="#DejaVuSans-39" x="288.134766"/>
    <use xlink:href="#DejaVuSans-20" x="351.757812"/>
    <use xlink:href="#DejaVuSans-2b" x="383.544922"/>
    <use xlink:href="#DejaVuSans-30" x="467.333984"/>
    <use xlink:href="#DejaVuSans-2f" x="530.957031"/>
    <use xlink:href="#DejaVuSans-2212" x="564.648438"/>
    <use xlink:href="#DejaVuSans-36" x="648.4375"/>
    <use xlink:href="#DejaVuSans-38" x="712.060547"/>
   </g>
  </g>
  <g id="text_48">
   <!-- X: miles from start. Y: ft relative to first valid sample. Cutouts: N up; dot=start; color/number=part. Metrics: part: miles +ascent/−descent (ft). * Map section. † DEM gap; see data. -->
   <g transform="translate(21.1248 589.5972) scale(0.09 -0.09)">
    <defs>
     <path id="DejaVuSans-58" d="M 403 4666 
L 1081 4666 
L 2241 2931 
L 3406 4666 
L 4084 4666 
L 2584 2425 
L 4184 0 
L 3506 0 
L 2194 1984 
L 872 0 
L 191 0 
L 1856 2491 
L 403 4666 
z
" transform="scale(0.015625)"/>
     <path id="DejaVuSans-6d" d="M 3328 2828 
Q 3544 3216 3844 3400 
Q 4144 3584 4550 3584 
Q 5097 3584 5394 3201 
Q 5691 2819 5691 2113 
L 5691 0 
L 5113 0 
L 5113 2094 
Q 5113 2597 4934 2840 
Q 4756 3084 4391 3084 
Q 3944 3084 3684 2787 
Q 3425 2491 3425 1978 
L 3425 0 
L 2847 0 
L 2847 2094 
Q 2847 2600 2669 2842 
Q 2491 3084 2119 3084 
Q 1678 3084 1418 2786 
Q 1159 2488 1159 1978 
L 1159 0 
L 581 0 
L 581 3500 
L 1159 3500 
L 1159 2956 
Q 1356 3278 1631 3431 
Q 1906 3584 2284 3584 
Q 2666 3584 2933 3390 
Q 3200 3197 3328 2828 
z
" transform="scale(0.015625)"/>
     <path id="DejaVuSans-69" d="M 603 3500 
L 1178 3500 
L 1178 0 
L 603 0 
L 603 3500 
z
M 603 4863 
L 1178 4863 
L 1178 4134 
L 603 4134 
L 603 4863 
z
" transform="scale(0.015625)"/>
     <path id="DejaVuSans-6c" d="M 603 4863 
L 1178 4863 
L 1178 0 
L 603 0 
L 603 4863 
z
" transform="scale(0.015625)"/>
     <path id="DejaVuSans-65" d="M 3597 1894 
L 3597 1613 
L 953 1613 
Q 991 1019 1311 708 
Q 1631 397 2203 397 
Q 2534 397 2845 478 
Q 3156 559 3463 722 
L 3463 178 
Q 3153 47 2828 -22 
Q 2503 -91 2169 -91 
Q 1331 -91 842 396 
Q 353 884 353 1716 
Q 353 2575 817 3079 
Q 1281 3584 2069 3584 
Q 2775 3584 3186 3129 
Q 3597 2675 3597 1894 
z
M 3022 2063 
Q 3016 2534 2758 2815 
Q 2500 3097 2075 3097 
Q 1594 3097 1305 2825 
Q 1016 2553 972 2059 
L 3022 2063 
z
" transform="scale(0.015625)"/>
     <path id="DejaVuSans-73" d="M 2834 3397 
L 2834 2853 
Q 2591 2978 2328 3040 
Q 2066 3103 1784 3103 
Q 1356 3103 1142 2972 
Q 928 2841 928 2578 
Q 928 2378 1081 2264 
Q 1234 2150 1697 2047 
L 1894 2003 
Q 2506 1872 2764 1633 
Q 3022 1394 3022 966 
Q 3022 478 2636 193 
Q 2250 -91 1575 -91 
Q 1294 -91 989 -36 
Q 684 19 347 128 
L 347 722 
Q 666 556 975 473 
Q 1284 391 1588 391 
Q 1994 391 2212 530 
Q 2431 669 2431 922 
Q 2431 1156 2273 1281 
Q 2116 1406 1581 1522 
L 1381 1569 
Q 847 1681 609 1914 
Q 372 2147 372 2553 
Q 372 3047 722 3315 
Q 1072 3584 1716 3584 
Q 2034 3584 2315 3537 
Q 2597 3491 2834 3397 
z
" transform="scale(0.015625)"/>
     <path id="DejaVuSans-66" d="M 2375 4863 
L 2375 4384 
L 1825 4384 
Q 1516 4384 1395 4259 
Q 1275 4134 1275 3809 
L 1275 3500 
L 2222 3500 
L 2222 3053 
L 1275 3053 
L 1275 0 
L 697 0 
L 697 3053 
L 147 3053 
L 147 3500 
L 697 3500 
L 697 3744 
Q 697 4328 969 4595 
Q 1241 4863 1831 4863 
L 2375 4863 
z
" transform="scale(0.015625)"/>
     <path id="DejaVuSans-72" d="M 2631 2963 
Q 2534 3019 2420 3045 
Q 2306 3072 2169 3072 
Q 1681 3072 1420 2755 
Q 1159 2438 1159 1844 
L 1159 0 
L 581 0 
L 581 3500 
L 1159 3500 
L 1159 2956 
Q 1341 3275 1631 3429 
Q 1922 3584 2338 3584 
Q 2397 3584 2469 3576 
Q 2541 3569 2628 3553 
L 2631 2963 
z
" transform="scale(0.015625)"/>
     <path id="DejaVuSans-6f" d="M 1959 3097 
Q 1497 3097 1228 2736 
Q 959 2375 959 1747 
Q 959 1119 1226 758 
Q 1494 397 1959 397 
Q 2419 397 2687 759 
Q 2956 1122 2956 1747 
Q 2956 2369 2687 2733 
Q 2419 3097 1959 3097 
z
M 1959 3584 
Q 2709 3584 3137 3096 
Q 3566 2609 3566 1747 
Q 3566 888 3137 398 
Q 2709 -91 1959 -91 
Q 1206 -91 779 398 
Q 353 888 353 1747 
Q 353 2609 779 3096 
Q 1206 3584 1959 3584 
z
" transform="scale(0.015625)"/>
     <path id="DejaVuSans-74" d="M 1172 4494 
L 1172 3500 
L 2356 3500 
L 2356 3053 
L 1172 3053 
L 1172 1153 
Q 1172 725 1289 603 
Q 1406 481 1766 481 
L 2356 481 
L 2356 0 
L 1766 0 
Q 1100 0 847 248 
Q 594 497 594 1153 
L 594 3053 
L 172 3053 
L 172 3500 
L 594 3500 
L 594 4494 
L 1172 4494 
z
" transform="scale(0.015625)"/>
     <path id="DejaVuSans-61" d="M 2194 1759 
Q 1497 1759 1228 1600 
Q 959 1441 959 1056 
Q 959 750 1161 570 
Q 1363 391 1709 391 
Q 2188 391 2477 730 
Q 2766 1069 2766 1631 
L 2766 1759 
L 2194 1759 
z
M 3341 1997 
L 3341 0 
L 2766 0 
L 2766 531 
Q 2569 213 2275 61 
Q 1981 -91 1556 -91 
Q 1019 -91 701 211 
Q 384 513 384 1019 
Q 384 1609 779 1909 
Q 1175 2209 1959 2209 
L 2766 2209 
L 2766 2266 
Q 2766 2663 2505 2880 
Q 2244 3097 1772 3097 
Q 1472 3097 1187 3025 
Q 903 2953 641 2809 
L 641 3341 
Q 956 3463 1253 3523 
Q 1550 3584 1831 3584 
Q 2591 3584 2966 3190 
Q 3341 2797 3341 1997 
z
" transform="scale(0.015625)"/>
     <path id="DejaVuSans-59" d="M -13 4666 
L 666 4666 
L 1959 2747 
L 3244 4666 
L 3922 4666 
L 2272 2222 
L 2272 0 
L 1638 0 
L 1638 2222 
L -13 4666 
z
" transform="scale(0.015625)"/>
     <path id="DejaVuSans-76" d="M 191 3500 
L 800 3500 
L 1894 563 
L 2988 3500 
L 3597 3500 
L 2284 0 
L 1503 0 
L 191 3500 
z
" transform="scale(0.015625)"/>
     <path id="DejaVuSans-64" d="M 2906 2969 
L 2906 4863 
L 3481 4863 
L 3481 0 
L 2906 0 
L 2906 525 
Q 2725 213 2448 61 
Q 2172 -91 1784 -91 
Q 1150 -91 751 415 
Q 353 922 353 1747 
Q 353 2572 751 3078 
Q 1150 3584 1784 3584 
Q 2172 3584 2448 3432 
Q 2725 3281 2906 2969 
z
M 947 1747 
Q 947 1113 1208 752 
Q 1469 391 1925 391 
Q 2381 391 2643 752 
Q 2906 1113 2906 1747 
Q 2906 2381 2643 2742 
Q 2381 3103 1925 3103 
Q 1469 3103 1208 2742 
Q 947 2381 947 1747 
z
" transform="scale(0.015625)"/>
     <path id="DejaVuSans-70" d="M 1159 525 
L 1159 -1331 
L 581 -1331 
L 581 3500 
L 1159 3500 
L 1159 2969 
Q 1341 3281 1617 3432 
Q 1894 3584 2278 3584 
Q 2916 3584 3314 3078 
Q 3713 2572 3713 1747 
Q 3713 922 3314 415 
Q 2916 -91 2278 -91 
Q 1894 -91 1617 61 
Q 1341 213 1159 525 
z
M 3116 1747 
Q 3116 2381 2855 2742 
Q 2594 3103 2138 3103 
Q 1681 3103 1420 2742 
Q 1159 2381 1159 1747 
Q 1159 1113 1420 752 
Q 1681 391 2138 391 
Q 2594 391 2855 752 
Q 3116 1113 3116 1747 
z
" transform="scale(0.015625)"/>
     <path id="DejaVuSans-43" d="M 4122 4306 
L 4122 3641 
Q 3803 3938 3442 4084 
Q 3081 4231 2675 4231 
Q 1875 4231 1450 3742 
Q 1025 3253 1025 2328 
Q 1025 1406 1450 917 
Q 1875 428 2675 428 
Q 3081 428 3442 575 
Q 3803 722 4122 1019 
L 4122 359 
Q 3791 134 3420 21 
Q 3050 -91 2638 -91 
Q 1578 -91 968 557 
Q 359 1206 359 2328 
Q 359 3453 968 4101 
Q 1578 4750 2638 4750 
Q 3056 4750 3426 4639 
Q 3797 4528 4122 4306 
z
" transform="scale(0.015625)"/>
     <path id="DejaVuSans-75" d="M 544 1381 
L 544 3500 
L 1119 3500 
L 1119 1403 
Q 1119 906 1312 657 
Q 1506 409 1894 409 
Q 2359 409 2629 706 
Q 2900 1003 2900 1516 
L 2900 3500 
L 3475 3500 
L 3475 0 
L 2900 0 
L 2900 538 
Q 2691 219 2414 64 
Q 2138 -91 1772 -91 
Q 1169 -91 856 284 
Q 544 659 544 1381 
z
M 1991 3584 
L 1991 3584 
z
" transform="scale(0.015625)"/>
     <path id="DejaVuSans-3b" d="M 750 3309 
L 1409 3309 
L 1409 2516 
L 750 2516 
L 750 3309 
z
M 750 794 
L 1409 794 
L 1409 256 
L 897 -744 
L 494 -744 
L 750 256 
L 750 794 
z
" transform="scale(0.015625)"/>
     <path id="DejaVuSans-3d" d="M 678 2906 
L 4684 2906 
L 4684 2381 
L 678 2381 
L 678 2906 
z
M 678 1631 
L 4684 1631 
L 4684 1100 
L 678 1100 
L 678 1631 
z
" transform="scale(0.015625)"/>
     <path id="DejaVuSans-63" d="M 3122 3366 
L 3122 2828 
Q 2878 2963 2633 3030 
Q 2388 3097 2138 3097 
Q 1578 3097 1268 2742 
Q 959 2388 959 1747 
Q 959 1106 1268 751 
Q 1578 397 2138 397 
Q 2388 397 2633 464 
Q 2878 531 3122 666 
L 3122 134 
Q 2881 22 2623 -34 
Q 2366 -91 2075 -91 
Q 1284 -91 818 406 
Q 353 903 353 1747 
Q 353 2603 823 3093 
Q 1294 3584 2113 3584 
Q 2378 3584 2631 3529 
Q 2884 3475 3122 3366 
z
" transform="scale(0.015625)"/>
     <path id="DejaVuSans-6e" d="M 3513 2113 
L 3513 0 
L 2938 0 
L 2938 2094 
Q 2938 2591 2744 2837 
Q 2550 3084 2163 3084 
Q 1697 3084 1428 2787 
Q 1159 2491 1159 1978 
L 1159 0 
L 581 0 
L 581 3500 
L 1159 3500 
L 1159 2956 
Q 1366 3272 1645 3428 
Q 1925 3584 2291 3584 
Q 2894 3584 3203 3211 
Q 3513 2838 3513 2113 
z
" transform="scale(0.015625)"/>
     <path id="DejaVuSans-62" d="M 3116 1747 
Q 3116 2381 2855 2742 
Q 2594 3103 2138 3103 
Q 1681 3103 1420 2742 
Q 1159 2381 1159 1747 
Q 1159 1113 1420 752 
Q 1681 391 2138 391 
Q 2594 391 2855 752 
Q 3116 1113 3116 1747 
z
M 1159 2969 
Q 1341 3281 1617 3432 
Q 1894 3584 2278 3584 
Q 2916 3584 3314 3078 
Q 3713 2572 3713 1747 
Q 3713 922 3314 415 
Q 2916 -91 2278 -91 
Q 1894 -91 1617 61 
Q 1341 213 1159 525 
L 1159 0 
L 581 0 
L 581 4863 
L 1159 4863 
L 1159 2969 
z
" transform="scale(0.015625)"/>
     <path id="DejaVuSans-4d" d="M 628 4666 
L 1569 4666 
L 2759 1491 
L 3956 4666 
L 4897 4666 
L 4897 0 
L 4281 0 
L 4281 4097 
L 3078 897 
L 2444 897 
L 1241 4097 
L 1241 0 
L 628 0 
L 628 4666 
z
" transform="scale(0.015625)"/>
     <path id="DejaVuSans-28" d="M 1984 4856 
Q 1566 4138 1362 3434 
Q 1159 2731 1159 2009 
Q 1159 1288 1364 580 
Q 1569 -128 1984 -844 
L 1484 -844 
Q 1016 -109 783 600 
Q 550 1309 550 2009 
Q 550 2706 781 3412 
Q 1013 4119 1484 4856 
L 1984 4856 
z
" transform="scale(0.015625)"/>
     <path id="DejaVuSans-29" d="M 513 4856 
L 1013 4856 
Q 1481 4119 1714 3412 
Q 1947 2706 1947 2009 
Q 1947 1309 1714 600 
Q 1481 -109 1013 -844 
L 513 -844 
Q 928 -128 1133 580 
Q 1338 1288 1338 2009 
Q 1338 2731 1133 3434 
Q 928 4138 513 4856 
z
" transform="scale(0.015625)"/>
     <path id="DejaVuSans-2a" d="M 3009 3897 
L 1888 3291 
L 3009 2681 
L 2828 2375 
L 1778 3009 
L 1778 1831 
L 1422 1831 
L 1422 3009 
L 372 2375 
L 191 2681 
L 1313 3291 
L 191 3897 
L 372 4206 
L 1422 3572 
L 1422 4750 
L 1778 4750 
L 1778 3572 
L 2828 4206 
L 3009 3897 
z
" transform="scale(0.015625)"/>
     <path id="DejaVuSans-2020" d="M 1325 4666 
L 1875 4666 
L 1875 3353 
L 3022 3353 
L 3022 2875 
L 1875 2875 
L 1875 -616 
L 1325 -616 
L 1325 2875 
L 178 2875 
L 178 3353 
L 1325 3353 
L 1325 4666 
z
" transform="scale(0.015625)"/>
     <path id="DejaVuSans-44" d="M 1259 4147 
L 1259 519 
L 2022 519 
Q 2988 519 3436 956 
Q 3884 1394 3884 2338 
Q 3884 3275 3436 3711 
Q 2988 4147 2022 4147 
L 1259 4147 
z
M 628 4666 
L 1925 4666 
Q 3281 4666 3915 4102 
Q 4550 3538 4550 2338 
Q 4550 1131 3912 565 
Q 3275 0 1925 0 
L 628 0 
L 628 4666 
z
" transform="scale(0.015625)"/>
     <path id="DejaVuSans-45" d="M 628 4666 
L 3578 4666 
L 3578 4134 
L 1259 4134 
L 1259 2753 
L 3481 2753 
L 3481 2222 
L 1259 2222 
L 1259 531 
L 3634 531 
L 3634 0 
L 628 0 
L 628 4666 
z
" transform="scale(0.015625)"/>
     <path id="DejaVuSans-67" d="M 2906 1791 
Q 2906 2416 2648 2759 
Q 2391 3103 1925 3103 
Q 1463 3103 1205 2759 
Q 947 2416 947 1791 
Q 947 1169 1205 825 
Q 1463 481 1925 481 
Q 2391 481 2648 825 
Q 2906 1169 2906 1791 
z
M 3481 434 
Q 3481 -459 3084 -895 
Q 2688 -1331 1869 -1331 
Q 1566 -1331 1297 -1286 
Q 1028 -1241 775 -1147 
L 775 -588 
Q 1028 -725 1275 -790 
Q 1522 -856 1778 -856 
Q 2344 -856 2625 -561 
Q 2906 -266 2906 331 
L 2906 616 
Q 2728 306 2450 153 
Q 2172 0 1784 0 
Q 1141 0 747 490 
Q 353 981 353 1791 
Q 353 2603 747 3093 
Q 1141 3584 1784 3584 
Q 2172 3584 2450 3431 
Q 2728 3278 2906 2969 
L 2906 3500 
L 3481 3500 
L 3481 434 
z
" transform="scale(0.015625)"/>
    </defs>
    <use xlink:href="#DejaVuSans-58"/>
    <use xlink:href="#DejaVuSans-3a" x="68.505859"/>
    <use xlink:href="#DejaVuSans-20" x="102.197266"/>
    <use xlink:href="#DejaVuSans-6d" x="133.984375"/>
    <use xlink:href="#DejaVuSans-69" x="231.396484"/>
    <use xlink:href="#DejaVuSans-6c" x="259.179688"/>
    <use xlink:href="#DejaVuSans-65" x="286.962891"/>
    <use xlink:href="#DejaVuSans-73" x="348.486328"/>
    <use xlink:href="#DejaVuSans-20" x="400.585938"/>
    <use xlink:href="#DejaVuSans-66" x="432.373047"/>
    <use xlink:href="#DejaVuSans-72" x="467.578125"/>
    <use xlink:href="#DejaVuSans-6f" x="506.441406"/>
    <use xlink:href="#DejaVuSans-6d" x="567.623047"/>
    <use xlink:href="#DejaVuSans-20" x="665.035156"/>
    <use xlink:href="#DejaVuSans-73" x="696.822266"/>
    <use xlink:href="#DejaVuSans-74" x="748.921875"/>
    <use xlink:href="#DejaVuSans-61" x="788.130859"/>
    <use xlink:href="#DejaVuSans-72" x="849.410156"/>
    <use xlink:href="#DejaVuSans-74" x="890.523438"/>
    <use xlink:href="#DejaVuSans-2e" x="929.732422"/>
    <use xlink:href="#DejaVuSans-20" x="961.519531"/>
    <use xlink:href="#DejaVuSans-59" x="993.306641"/>
    <use xlink:href="#DejaVuSans-3a" x="1041.140625"/>
    <use xlink:href="#DejaVuSans-20" x="1074.832031"/>
    <use xlink:href="#DejaVuSans-66" x="1106.619141"/>
    <use xlink:href="#DejaVuSans-74" x="1140.074219"/>
    <use xlink:href="#DejaVuSans-20" x="1179.283203"/>
    <use xlink:href="#DejaVuSans-72" x="1211.070312"/>
    <use xlink:href="#DejaVuSans-65" x="1249.933594"/>
    <use xlink:href="#DejaVuSans-6c" x="1311.457031"/>
    <use xlink:href="#DejaVuSans-61" x="1339.240234"/>
    <use xlink:href="#DejaVuSans-74" x="1400.519531"/>
    <use xlink:href="#DejaVuSans-69" x="1439.728516"/>
    <use xlink:href="#DejaVuSans-76" x="1467.511719"/>
    <use xlink:href="#DejaVuSans-65" x="1526.691406"/>
    <use xlink:href="#DejaVuSans-20" x="1588.214844"/>
    <use xlink:href="#DejaVuSans-74" x="1620.001953"/>
    <use xlink:href="#DejaVuSans-6f" x="1659.210938"/>
    <use xlink:href="#DejaVuSans-20" x="1720.392578"/>
    <use xlink:href="#DejaVuSans-66" x="1752.179688"/>
    <use xlink:href="#DejaVuSans-69" x="1787.384766"/>
    <use xlink:href="#DejaVuSans-72" x="1815.167969"/>
    <use xlink:href="#DejaVuSans-73" x="1856.28125"/>
    <use xlink:href="#DejaVuSans-74" x="1908.380859"/>
    <use xlink:href="#DejaVuSans-20" x="1947.589844"/>
    <use xlink:href="#DejaVuSans-76" x="1979.376953"/>
    <use xlink:href="#DejaVuSans-61" x="2038.556641"/>
    <use xlink:href="#DejaVuSans-6c" x="2099.835938"/>
    <use xlink:href="#DejaVuSans-69" x="2127.619141"/>
    <use xlink:href="#DejaVuSans-64" x="2155.402344"/>
    <use xlink:href="#DejaVuSans-20" x="2218.878906"/>
    <use xlink:href="#DejaVuSans-73" x="2250.666016"/>
    <use xlink:href="#DejaVuSans-61" x="2302.765625"/>
    <use xlink:href="#DejaVuSans-6d" x="2364.044922"/>
    <use xlink:href="#DejaVuSans-70" x="2461.457031"/>
    <use xlink:href="#DejaVuSans-6c" x="2524.933594"/>
    <use xlink:href="#DejaVuSans-65" x="2552.716797"/>
    <use xlink:href="#DejaVuSans-2e" x="2614.240234"/>
    <use xlink:href="#DejaVuSans-20" x="2646.027344"/>
    <use xlink:href="#DejaVuSans-43" x="2677.814453"/>
    <use xlink:href="#DejaVuSans-75" x="2747.638672"/>
    <use xlink:href="#DejaVuSans-74" x="2811.017578"/>
    <use xlink:href="#DejaVuSans-6f" x="2850.226562"/>
    <use xlink:href="#DejaVuSans-75" x="2911.408203"/>
    <use xlink:href="#DejaVuSans-74" x="2974.787109"/>
    <use xlink:href="#DejaVuSans-73" x="3013.996094"/>
    <use xlink:href="#DejaVuSans-3a" x="3066.095703"/>
    <use xlink:href="#DejaVuSans-20" x="3099.787109"/>
    <use xlink:href="#DejaVuSans-4e" x="3131.574219"/>
    <use xlink:href="#DejaVuSans-20" x="3206.378906"/>
    <use xlink:href="#DejaVuSans-75" x="3238.166016"/>
    <use xlink:href="#DejaVuSans-70" x="3301.544922"/>
    <use xlink:href="#DejaVuSans-3b" x="3365.021484"/>
    <use xlink:href="#DejaVuSans-20" x="3398.712891"/>
    <use xlink:href="#DejaVuSans-64" x="3430.5"/>
    <use xlink:href="#DejaVuSans-6f" x="3493.976562"/>
    <use xlink:href="#DejaVuSans-74" x="3555.158203"/>
    <use xlink:href="#DejaVuSans-3d" x="3594.367188"/>
    <use xlink:href="#DejaVuSans-73" x="3678.15625"/>
    <use xlink:href="#DejaVuSans-74" x="3730.255859"/>
    <use xlink:href="#DejaVuSans-61" x="3769.464844"/>
    <use xlink:href="#DejaVuSans-72" x="3830.744141"/>
    <use xlink:href="#DejaVuSans-74" x="3871.857422"/>
    <use xlink:href="#DejaVuSans-3b" x="3911.066406"/>
    <use xlink:href="#DejaVuSans-20" x="3944.757812"/>
    <use xlink:href="#DejaVuSans-63" x="3976.544922"/>
    <use xlink:href="#DejaVuSans-6f" x="4031.525391"/>
    <use xlink:href="#DejaVuSans-6c" x="4092.707031"/>
    <use xlink:href="#DejaVuSans-6f" x="4120.490234"/>
    <use xlink:href="#DejaVuSans-72" x="4181.671875"/>
    <use xlink:href="#DejaVuSans-2f" x="4222.785156"/>
    <use xlink:href="#DejaVuSans-6e" x="4256.476562"/>
    <use xlink:href="#DejaVuSans-75" x="4319.855469"/>
    <use xlink:href="#DejaVuSans-6d" x="4383.234375"/>
    <use xlink:href="#DejaVuSans-62" x="4480.646484"/>
    <use xlink:href="#DejaVuSans-65" x="4544.123047"/>
    <use xlink:href="#DejaVuSans-72" x="4605.646484"/>
    <use xlink:href="#DejaVuSans-3d" x="4646.759766"/>
    <use xlink:href="#DejaVuSans-70" x="4730.548828"/>
    <use xlink:href="#DejaVuSans-61" x="4794.025391"/>
    <use xlink:href="#DejaVuSans-72" x="4855.304688"/>
    <use xlink:href="#DejaVuSans-74" x="4896.417969"/>
    <use xlink:href="#DejaVuSans-2e" x="4935.626953"/>
    <use xlink:href="#DejaVuSans-20" x="4967.414062"/>
    <use xlink:href="#DejaVuSans-4d" x="4999.201172"/>
    <use xlink:href="#DejaVuSans-65" x="5085.480469"/>
    <use xlink:href="#DejaVuSans-74" x="5147.003906"/>
    <use xlink:href="#DejaVuSans-72" x="5186.212891"/>
    <use xlink:href="#DejaVuSans-69" x="5227.326172"/>
    <use xlink:href="#DejaVuSans-63" x="5255.109375"/>
    <use xlink:href="#DejaVuSans-73" x="5310.089844"/>
    <use xlink:href="#DejaVuSans-3a" x="5362.189453"/>
    <use xlink:href="#DejaVuSans-20" x="5395.880859"/>
    <use xlink:href="#DejaVuSans-70" x="5427.667969"/>
    <use xlink:href="#DejaVuSans-61" x="5491.144531"/>
    <use xlink:href="#DejaVuSans-72" x="5552.423828"/>
    <use xlink:href="#DejaVuSans-74" x="5593.537109"/>
    <use xlink:href="#DejaVuSans-3a" x="5632.746094"/>
    <use xlink:href="#DejaVuSans-20" x="5666.4375"/>
    <use xlink:href="#DejaVuSans-6d" x="5698.224609"/>
    <use xlink:href="#DejaVuSans-69" x="5795.636719"/>
    <use xlink:href="#DejaVuSans-6c" x="5823.419922"/>
    <use xlink:href="#DejaVuSans-65" x="5851.203125"/>
    <use xlink:href="#DejaVuSans-73" x="5912.726562"/>
    <use xlink:href="#DejaVuSans-20" x="5964.826172"/>
    <use xlink:href="#DejaVuSans-2b" x="5996.613281"/>
    <use xlink:href="#DejaVuSans-61" x="6080.402344"/>
    <use xlink:href="#DejaVuSans-73" x="6141.681641"/>
    <use xlink:href="#DejaVuSans-63" x="6193.78125"/>
    <use xlink:href="#DejaVuSans-65" x="6248.761719"/>
    <use xlink:href="#DejaVuSans-6e" x="6310.285156"/>
    <use xlink:href="#DejaVuSans-74" x="6373.664062"/>
    <use xlink:href="#DejaVuSans-2f" x="6412.873047"/>
    <use xlink:href="#DejaVuSans-2212" x="6446.564453"/>
    <use xlink:href="#DejaVuSans-64" x="6530.353516"/>
    <use xlink:href="#DejaVuSans-65" x="6593.830078"/>
    <use xlink:href="#DejaVuSans-73" x="6655.353516"/>
    <use xlink:href="#DejaVuSans-63" x="6707.453125"/>
    <use xlink:href="#DejaVuSans-65" x="6762.433594"/>
    <use xlink:href="#DejaVuSans-6e" x="6823.957031"/>
    <use xlink:href="#DejaVuSans-74" x="6887.335938"/>
    <use xlink:href="#DejaVuSans-20" x="6926.544922"/>
    <use xlink:href="#DejaVuSans-28" x="6958.332031"/>
    <use xlink:href="#DejaVuSans-66" x="6997.345703"/>
    <use xlink:href="#DejaVuSans-74" x="7030.800781"/>
    <use xlink:href="#DejaVuSans-29" x="7070.009766"/>
    <use xlink:href="#DejaVuSans-2e" x="7109.023438"/>
    <use xlink:href="#DejaVuSans-20" x="7140.810547"/>
    <use xlink:href="#DejaVuSans-2a" x="7172.597656"/>
    <use xlink:href="#DejaVuSans-20" x="7222.597656"/>
    <use xlink:href="#DejaVuSans-4d" x="7254.384766"/>
    <use xlink:href="#DejaVuSans-61" x="7340.664062"/>
    <use xlink:href="#DejaVuSans-70" x="7401.943359"/>
    <use xlink:href="#DejaVuSans-20" x="7465.419922"/>
    <use xlink:href="#DejaVuSans-73" x="7497.207031"/>
    <use xlink:href="#DejaVuSans-65" x="7549.306641"/>
    <use xlink:href="#DejaVuSans-63" x="7610.830078"/>
    <use xlink:href="#DejaVuSans-74" x="7665.810547"/>
    <use xlink:href="#DejaVuSans-69" x="7705.019531"/>
    <use xlink:href="#DejaVuSans-6f" x="7732.802734"/>
    <use xlink:href="#DejaVuSans-6e" x="7793.984375"/>
    <use xlink:href="#DejaVuSans-2e" x="7857.363281"/>
    <use xlink:href="#DejaVuSans-20" x="7889.150391"/>
    <use xlink:href="#DejaVuSans-2020" x="7920.9375"/>
    <use xlink:href="#DejaVuSans-20" x="7970.9375"/>
    <use xlink:href="#DejaVuSans-44" x="8002.724609"/>
    <use xlink:href="#DejaVuSans-45" x="8079.726562"/>
    <use xlink:href="#DejaVuSans-4d" x="8142.910156"/>
    <use xlink:href="#DejaVuSans-20" x="8229.189453"/>
    <use xlink:href="#DejaVuSans-67" x="8260.976562"/>
    <use xlink:href="#DejaVuSans-61" x="8324.453125"/>
    <use xlink:href="#DejaVuSans-70" x="8385.732422"/>
    <use xlink:href="#DejaVuSans-3b" x="8449.208984"/>
    <use xlink:href="#DejaVuSans-20" x="8482.900391"/>
    <use xlink:href="#DejaVuSans-73" x="8514.6875"/>
    <use xlink:href="#DejaVuSans-65" x="8566.787109"/>
    <use xlink:href="#DejaVuSans-65" x="8628.310547"/>
    <use xlink:href="#DejaVuSans-20" x="8689.833984"/>
    <use xlink:href="#DejaVuSans-64" x="8721.621094"/>
    <use xlink:href="#DejaVuSans-61" x="8785.097656"/>
    <use xlink:href="#DejaVuSans-74" x="8846.376953"/>
    <use xlink:href="#DejaVuSans-61" x="8885.585938"/>
    <use xlink:href="#DejaVuSans-2e" x="8946.865234"/>
   </g>
  </g>
 </g>
 <defs>
  <clipPath id="p5c20b7d0ab">
   <rect x="21.1248" y="20.7396" width="205.333056" height="132.5853"/>
  </clipPath>
  <clipPath id="p4f12343c04">
   <rect x="351.939168" y="20.7396" width="809.924832" height="132.5853"/>
  </clipPath>
  <clipPath id="pa3eac4bf1e">
   <rect x="21.1248" y="219.61755" width="205.333056" height="132.5853"/>
  </clipPath>
  <clipPath id="p795f6f6618">
   <rect x="351.939168" y="219.61755" width="809.924832" height="132.5853"/>
  </clipPath>
  <clipPath id="p0baa739c67">
   <rect x="21.1248" y="418.4955" width="205.333056" height="132.5853"/>
  </clipPath>
  <clipPath id="p648015edf1">
   <rect x="351.939168" y="418.4955" width="809.924832" height="132.5853"/>
  </clipPath>
 </defs>
</svg>
