<?xml version="1.0" encoding="utf-8" standalone="no"?>
<!DOCTYPE svg PUBLIC "-//W3C//DTD SVG 1.1//EN"
  "http://www.w3.org/Graphics/SVG/1.1/DTD/svg11.dtd">
<svg xmlns:xlink="http://www.w3.org/1999/xlink" width="1173.6pt" height="592.56pt" viewBox="0 0 1173.6 592.56" xmlns="http://www.w3.org/2000/svg" version="1.1">
 <metadata>
  <rdf:RDF xmlns:dc="http://purl.org/dc/elements/1.1/" xmlns:cc="http://creativecommons.org/ns#" xmlns:rdf="http://www.w3.org/1999/02/22-rdf-syntax-ns#">
   <cc:Work>
    <dc:type rdf:resource="http://purl.org/dc/dcmitype/StillImage"/>
    <dc:date>2026-10-09T12:57:22.960091</dc:date>
    <dc:format>image/svg+xml</dc:format>
    <dc:creator>
     <cc:Agent>
      <dc:title>Matplotlib v3.6.3, https://matplotlib.org/</dc:title>
     </cc:Agent>
    </dc:creator>
   </cc:Work>
  </rdf:RDF>
 </metadata>
 <defs>
  <style type="text/css">*{stroke-linejoin: round; stroke-linecap: butt}</style>
 </defs>
 <g id="figure_1">
  <g id="patch_1">
   <path d="M 0 592.56 
L 1173.6 592.56 
L 1173.6 0 
L 0 0 
z
" style="fill: #ffffff"/>
  </g>
  <g id="axes_1">
   <g id="patch_2">
    <path d="M 21.1248 232.87608 
L 226.457856 232.87608 
L 226.457856 20.7396 
L 21.1248 20.7396 
z
" style="fill: #ffffff"/>
   </g>
   <g id="PathCollection_1">
    <defs>
     <path id="m5948eb2edb" d="M 0 1.414214 
C 0.375054 1.414214 0.734797 1.265203 1 1 
C 1.265203 0.734797 1.414214 0.375054 1.414214 0 
C 1.414214 -0.375054 1.265203 -0.734797 1 -1 
C 0.734797 -1.265203 0.375054 -1.414214 0 -1.414214 
C -0.375054 -1.414214 -0.734797 -1.265203 -1 -1 
C -1.265203 -0.734797 -1.414214 -0.375054 -1.414214 0 
C -1.414214 0.375054 -1.265203 0.734797 -1 1 
C -0.734797 1.265203 -0.375054 1.414214 0 1.414214 
z
" style="stroke: #1b646b"/>
    </defs>
    <g clip-path="url(#p07a22ea634)">
     <use xlink:href="#m5948eb2edb" x="31.32198" y="181.717138" style="fill: #1b646b; stroke: #1b646b"/>
    </g>
   </g>
   <g id="matplotlib.axis_1"/>
   <g id="matplotlib.axis_2"/>
   <g id="line2d_1">
    <path d="M 31.32198 181.717138 
L 31.334156 181.132693 
L 31.219505 180.174344 
L 31.248905 179.204235 
L 30.481635 176.064613 
L 30.543371 174.374274 
L 31.013726 172.09011 
L 31.019607 171.596237 
L 31.536995 170.920101 
L 31.495842 169.656023 
L 31.998531 166.960298 
L 32.116124 166.078382 
L 32.415974 165.775591 
L 33.306709 165.284657 
L 33.771187 164.820181 
L 34.36501 164.667316 
L 35.132276 164.144043 
L 35.790773 163.300346 
L 36.172937 162.774135 
L 36.511003 162.197948 
L 37.198901 161.439502 
L 37.83976 160.595802 
L 38.451219 160.257733 
L 39.591833 159.543381 
L 42.064137 157.744273 
L 42.431606 157.209243 
L 43.222389 155.216111 
L 43.401713 154.516458 
L 43.43699 153.810925 
L 43.583976 153.493434 
L 44.071968 152.973104 
L 44.745163 152.076489 
L 45.000918 151.86189 
L 45.932812 150.386149 
L 46.414925 149.97459 
L 46.544275 149.710015 
L 46.679503 149.069154 
L 47.014631 148.50473 
L 47.270387 148.240154 
L 47.934763 147.21713 
L 48.234615 146.923158 
L 49.97493 145.717869 
L 50.298298 145.682596 
L 50.651066 145.526792 
L 51.256649 144.800676 
L 52.129746 144.080449 
L 54.067022 143.639491 
L 55.960201 143.072121 
L 58.670625 142.219606 
L 59.652491 142.287218 
L 61.016522 142.748755 
L 61.713236 143.204412 
L 62.074821 143.683583 
L 62.780352 144.036353 
L 63.183094 143.933464 
L 63.256588 143.845272 
L 63.688729 142.875164 
L 63.794558 142.102018 
L 64.026796 141.763948 
L 64.92047 141.278891 
L 65.046881 140.617457 
L 65.229142 140.361701 
L 66.246287 139.406292 
L 66.534377 139.171114 
L 67.263429 138.392088 
L 67.610316 138.383269 
L 69.186006 138.921239 
L 70.053224 139.044707 
L 72.73131 138.941817 
L 73.477999 138.730156 
L 75.106603 138.215705 
L 75.685729 137.862939 
L 76.006161 137.22208 
L 76.258976 136.928108 
L 77.276118 136.495968 
L 80.512752 135.884507 
L 80.883158 135.908025 
L 81.429946 136.193178 
L 82.144298 136.234333 
L 82.699904 136.751725 
L 83.746447 136.760544 
L 84.102151 136.983964 
L 84.451977 137.039817 
L 84.55487 136.981023 
L 84.895875 136.572401 
L 85.289801 135.869805 
L 85.477941 135.422971 
L 85.589652 134.943796 
L 86.209934 134.070698 
L 86.515663 133.794366 
L 87.815019 133.179963 
L 88.793946 133.047676 
L 90.128579 132.974183 
L 91.933569 132.489129 
L 93.39755 133.379865 
L 93.435764 133.662078 
L 92.86546 135.187793 
L 93.033026 135.575837 
L 93.227045 135.508223 
L 93.382852 135.134879 
L 93.770896 135.017289 
L 95.023214 134.929099 
L 96.399007 134.502839 
L 96.640064 134.576331 
L 96.960493 135.305383 
L 97.327957 135.458247 
L 98.283365 135.320081 
L 98.298064 135.070205 
L 98.133442 134.18241 
L 98.459751 133.662079 
L 98.644952 132.983004 
L 98.512663 132.339204 
L 98.97126 129.079054 
L 99.185859 128.7939 
L 99.820841 128.602818 
L 100.796828 128.444074 
L 101.590555 127.720903 
L 101.74048 127.403413 
L 101.558216 125.280933 
L 101.666986 124.243212 
L 102.016811 123.64057 
L 103.736548 121.832637 
L 103.92175 121.832641 
L 104.104015 122.156011 
L 104.192208 122.743954 
L 104.183389 123.625871 
L 104.2657 123.811073 
L 104.880102 124.105045 
L 105.044726 123.978637 
L 105.365155 122.964434 
L 105.573877 122.517596 
L 106.126543 122.023724 
L 106.344082 121.52397 
L 106.567502 121.415201 
L 107.079014 121.582764 
L 107.490575 121.832641 
L 108.075579 122.097216 
L 108.68998 122.341209 
L 109.348478 122.729256 
L 109.604234 122.68516 
L 110.453813 121.94435 
L 112.511617 121.30349 
L 113.211269 121.180024 
L 114.907488 121.435778 
L 115.43664 121.870858 
L 115.671817 121.914955 
L 115.962848 121.803245 
L 117.047608 121.620982 
L 117.629672 121.194721 
L 117.829573 121.062434 
L 118.141181 121.097712 
L 118.896693 121.318192 
L 119.613983 121.31819 
L 122.186239 121.670957 
L 122.874136 121.371106 
L 123.609065 121.424021 
L 124.799652 121.568067 
L 125.181817 121.929652 
L 125.484608 122.067821 
L 126.390042 122.047242 
L 127.377785 122.538175 
L 128.074501 122.473502 
L 129.829515 122.899761 
L 130.40864 123.046747 
L 131.170025 122.579332 
L 131.184726 121.568066 
L 131.528675 121.077134 
L 132.290062 120.430394 
L 133.26017 119.842452 
L 134.494852 119.466168 
L 134.847617 119.510262 
L 135.121013 119.695465 
L 135.770692 120.744946 
L 136.702581 120.906629 
L 137.331681 120.730246 
L 137.752064 120.406877 
L 138.29297 119.275085 
L 138.41644 118.966415 
L 138.642798 118.754751 
L 140.374296 118.049222 
L 141.256212 117.843441 
L 142.073455 117.505373 
L 142.711374 117.593564 
L 144.195933 116.923305 
L 145.330664 116.90273 
L 146.080293 116.511747 
L 146.485976 116.438254 
L 147.714779 116.594061 
L 148.523201 116.835113 
L 149.781403 116.967404 
L 151.195409 116.379459 
L 153.949925 115.365258 
L 154.637821 115.512243 
L 156.751482 116.805721 
L 157.145403 116.814535 
L 157.69219 116.461774 
L 158.34775 115.776818 
L 159.494242 114.894901 
L 161.531468 112.851797 
L 162.927836 111.81701 
L 163.327636 111.664149 
L 163.777415 111.631812 
L 167.560834 111.808196 
L 169.268815 111.258466 
L 169.615702 111.058565 
L 169.839118 110.793991 
L 170.153669 109.970869 
L 170.191887 109.191844 
L 170.773949 108.453974 
L 171.905742 107.598514 
L 172.211474 107.436828 
L 174.719058 106.722478 
L 175.356976 106.222725 
L 176.753345 104.69407 
L 177.358926 104.497108 
L 180.216335 104.988042 
L 180.530887 104.761684 
L 182.262379 102.27762 
L 183.905686 100.631372 
L 185.202103 97.238938 
L 185.422582 96.030712 
L 185.110973 94.163988 
L 185.14331 93.649537 
L 185.528413 92.708827 
L 185.845902 92.273748 
L 186.289801 91.959198 
L 187.321642 91.465324 
L 188.15946 90.768611 
L 188.485771 90.583409 
L 189.276555 90.504033 
L 189.605807 90.289438 
L 190.528879 89.372243 
L 190.849308 89.063569 
L 191.722406 86.961674 
L 192.216279 86.550111 
L 192.689571 86.417825 
L 192.904172 86.291415 
L 196.387743 85.506507 
L 196.690533 85.139047 
L 197.013904 84.336501 
L 197.625366 82.749052 
L 197.989891 82.04352 
L 197.925216 81.302709 
L 197.928158 80.647152 
L 198.295622 79.671163 
L 198.492583 79.353674 
L 199.198116 78.803947 
L 199.997718 78.480577 
L 200.747351 78.045495 
L 201.326476 78.045499 
L 201.89384 78.324772 
L 202.487665 79.068522 
L 202.74342 79.068522 
L 204.133909 78.818645 
L 205.603766 78.833344 
L 207.658634 78.442362 
L 208.076075 78.157209 
L 208.540551 78.251279 
L 209.37837 78.748093 
L 212.265174 77.319389 
L 212.544451 76.114102 
L 212.897217 75.811312 
L 214.428811 74.973491 
L 214.887409 74.899998 
L 215.201956 74.732435 
L 215.481232 74.276773 
L 215.92807 73.953407 
L 215.945708 73.777021 
L 215.822237 72.116082 
L 215.939826 71.945579 
L 216.148549 71.898542 
L 217.124535 71.945578 
L 217.124535 71.945578 
" clip-path="url(#p07a22ea634)" style="fill: none; stroke: #1b646b; stroke-width: 1.2; stroke-linecap: square"/>
   </g>
   <g id="patch_3">
    <path d="M 21.1248 232.87608 
L 21.1248 20.7396 
" style="fill: none; stroke: #d6ddda; stroke-width: 0.8; stroke-linejoin: miter; stroke-linecap: square"/>
   </g>
   <g id="patch_4">
    <path d="M 226.457856 232.87608 
L 226.457856 20.7396 
" style="fill: none; stroke: #d6ddda; stroke-width: 0.8; stroke-linejoin: miter; stroke-linecap: square"/>
   </g>
   <g id="patch_5">
    <path d="M 21.1248 232.87608 
L 226.457856 232.87608 
" style="fill: none; stroke: #d6ddda; stroke-width: 0.8; stroke-linejoin: miter; stroke-linecap: square"/>
   </g>
   <g id="patch_6">
    <path d="M 21.1248 20.7396 
L 226.457856 20.7396 
" style="fill: none; stroke: #d6ddda; stroke-width: 0.8; stroke-linejoin: miter; stroke-linecap: square"/>
   </g>
   <g id="text_1">
    <!-- N ↑ -->
    <g transform="translate(25.231461 31.820923) scale(0.09 -0.09)">
     <defs>
      <path id="DejaVuSans-4e" d="M 628 4666 
L 1478 4666 
L 3547 763 
L 3547 4666 
L 4159 4666 
L 4159 0 
L 3309 0 
L 1241 3903 
L 1241 0 
L 628 0 
L 628 4666 
z
" transform="scale(0.015625)"/>
      <path id="DejaVuSans-20" transform="scale(0.015625)"/>
      <path id="DejaVuSans-2191" d="M 2541 4688 
L 2822 4688 
L 4047 3456 
L 3672 3081 
L 2947 3813 
L 2947 0 
L 2416 0 
L 2416 3813 
L 1684 3081 
L 1309 3456 
L 2541 4688 
z
" transform="scale(0.015625)"/>
     </defs>
     <use xlink:href="#DejaVuSans-4e"/>
     <use xlink:href="#DejaVuSans-20" x="74.804688"/>
     <use xlink:href="#DejaVuSans-2191" x="106.591797"/>
    </g>
   </g>
  </g>
  <g id="axes_2">
   <g id="patch_7">
    <path d="M 351.939168 232.87608 
L 1161.864 232.87608 
L 1161.864 20.7396 
L 351.939168 20.7396 
z
" style="fill: #ffffff"/>
   </g>
   <g id="matplotlib.axis_3">
    <g id="xtick_1">
     <g id="line2d_2">
      <path d="M 386.355577 232.87608 
L 386.355577 20.7396 
" clip-path="url(#p841020a8a1)" style="fill: none; stroke: #b0b0b0; stroke-opacity: 0.15; stroke-width: 0.8; stroke-linecap: square"/>
     </g>
     <g id="line2d_3">
      <defs>
       <path id="m65cb66035b" d="M 0 0 
L 0 3.5 
" style="stroke: #000000; stroke-width: 0.8"/>
      </defs>
      <g>
       <use xlink:href="#m65cb66035b" x="386.355577" y="232.87608" style="stroke: #000000; stroke-width: 0.8"/>
      </g>
     </g>
     <g id="text_2">
      <!-- 0 -->
      <g transform="translate(383.174327 244.974518) scale(0.1 -0.1)">
       <defs>
        <path id="DejaVuSans-30" d="M 2034 4250 
Q 1547 4250 1301 3770 
Q 1056 3291 1056 2328 
Q 1056 1369 1301 889 
Q 1547 409 2034 409 
Q 2525 409 2770 889 
Q 3016 1369 3016 2328 
Q 3016 3291 2770 3770 
Q 2525 4250 2034 4250 
z
M 2034 4750 
Q 2819 4750 3233 4129 
Q 3647 3509 3647 2328 
Q 3647 1150 3233 529 
Q 2819 -91 2034 -91 
Q 1250 -91 836 529 
Q 422 1150 422 2328 
Q 422 3509 836 4129 
Q 1250 4750 2034 4750 
z
" transform="scale(0.015625)"/>
       </defs>
       <use xlink:href="#DejaVuSans-30"/>
      </g>
     </g>
    </g>
    <g id="xtick_2">
     <g id="line2d_4">
      <path d="M 515.027534 232.87608 
L 515.027534 20.7396 
" clip-path="url(#p841020a8a1)" style="fill: none; stroke: #b0b0b0; stroke-opacity: 0.15; stroke-width: 0.8; stroke-linecap: square"/>
     </g>
     <g id="line2d_5">
      <g>
       <use xlink:href="#m65cb66035b" x="515.027534" y="232.87608" style="stroke: #000000; stroke-width: 0.8"/>
      </g>
     </g>
     <g id="text_3">
      <!-- 1 -->
      <g transform="translate(511.846284 244.974518) scale(0.1 -0.1)">
       <defs>
        <path id="DejaVuSans-31" d="M 794 531 
L 1825 531 
L 1825 4091 
L 703 3866 
L 703 4441 
L 1819 4666 
L 2450 4666 
L 2450 531 
L 3481 531 
L 3481 0 
L 794 0 
L 794 531 
z
" transform="scale(0.015625)"/>
       </defs>
       <use xlink:href="#DejaVuSans-31"/>
      </g>
     </g>
    </g>
    <g id="xtick_3">
     <g id="line2d_6">
      <path d="M 643.699491 232.87608 
L 643.699491 20.7396 
" clip-path="url(#p841020a8a1)" style="fill: none; stroke: #b0b0b0; stroke-opacity: 0.15; stroke-width: 0.8; stroke-linecap: square"/>
     </g>
     <g id="line2d_7">
      <g>
       <use xlink:href="#m65cb66035b" x="643.699491" y="232.87608" style="stroke: #000000; stroke-width: 0.8"/>
      </g>
     </g>
     <g id="text_4">
      <!-- 2 -->
      <g transform="translate(640.518241 244.974518) scale(0.1 -0.1)">
       <defs>
        <path id="DejaVuSans-32" d="M 1228 531 
L 3431 531 
L 3431 0 
L 469 0 
L 469 531 
Q 828 903 1448 1529 
Q 2069 2156 2228 2338 
Q 2531 2678 2651 2914 
Q 2772 3150 2772 3378 
Q 2772 3750 2511 3984 
Q 2250 4219 1831 4219 
Q 1534 4219 1204 4116 
Q 875 4013 500 3803 
L 500 4441 
Q 881 4594 1212 4672 
Q 1544 4750 1819 4750 
Q 2544 4750 2975 4387 
Q 3406 4025 3406 3419 
Q 3406 3131 3298 2873 
Q 3191 2616 2906 2266 
Q 2828 2175 2409 1742 
Q 1991 1309 1228 531 
z
" transform="scale(0.015625)"/>
       </defs>
       <use xlink:href="#DejaVuSans-32"/>
      </g>
     </g>
    </g>
    <g id="xtick_4">
     <g id="line2d_8">
      <path d="M 772.371449 232.87608 
L 772.371449 20.7396 
" clip-path="url(#p841020a8a1)" style="fill: none; stroke: #b0b0b0; stroke-opacity: 0.15; stroke-width: 0.8; stroke-linecap: square"/>
     </g>
     <g id="line2d_9">
      <g>
       <use xlink:href="#m65cb66035b" x="772.371449" y="232.87608" style="stroke: #000000; stroke-width: 0.8"/>
      </g>
     </g>
     <g id="text_5">
      <!-- 3 -->
      <g transform="translate(769.190199 244.974518) scale(0.1 -0.1)">
       <defs>
        <path id="DejaVuSans-33" d="M 2597 2516 
Q 3050 2419 3304 2112 
Q 3559 1806 3559 1356 
Q 3559 666 3084 287 
Q 2609 -91 1734 -91 
Q 1441 -91 1130 -33 
Q 819 25 488 141 
L 488 750 
Q 750 597 1062 519 
Q 1375 441 1716 441 
Q 2309 441 2620 675 
Q 2931 909 2931 1356 
Q 2931 1769 2642 2001 
Q 2353 2234 1838 2234 
L 1294 2234 
L 1294 2753 
L 1863 2753 
Q 2328 2753 2575 2939 
Q 2822 3125 2822 3475 
Q 2822 3834 2567 4026 
Q 2313 4219 1838 4219 
Q 1578 4219 1281 4162 
Q 984 4106 628 3988 
L 628 4550 
Q 988 4650 1302 4700 
Q 1616 4750 1894 4750 
Q 2613 4750 3031 4423 
Q 3450 4097 3450 3541 
Q 3450 3153 3228 2886 
Q 3006 2619 2597 2516 
z
" transform="scale(0.015625)"/>
       </defs>
       <use xlink:href="#DejaVuSans-33"/>
      </g>
     </g>
    </g>
    <g id="xtick_5">
     <g id="line2d_10">
      <path d="M 901.043406 232.87608 
L 901.043406 20.7396 
" clip-path="url(#p841020a8a1)" style="fill: none; stroke: #b0b0b0; stroke-opacity: 0.15; stroke-width: 0.8; stroke-linecap: square"/>
     </g>
     <g id="line2d_11">
      <g>
       <use xlink:href="#m65cb66035b" x="901.043406" y="232.87608" style="stroke: #000000; stroke-width: 0.8"/>
      </g>
     </g>
     <g id="text_6">
      <!-- 4 -->
      <g transform="translate(897.862156 244.974518) scale(0.1 -0.1)">
       <defs>
        <path id="DejaVuSans-34" d="M 2419 4116 
L 825 1625 
L 2419 1625 
L 2419 4116 
z
M 2253 4666 
L 3047 4666 
L 3047 1625 
L 3713 1625 
L 3713 1100 
L 3047 1100 
L 3047 0 
L 2419 0 
L 2419 1100 
L 313 1100 
L 313 1709 
L 2253 4666 
z
" transform="scale(0.015625)"/>
       </defs>
       <use xlink:href="#DejaVuSans-34"/>
      </g>
     </g>
    </g>
    <g id="xtick_6">
     <g id="line2d_12">
      <path d="M 1029.715363 232.87608 
L 1029.715363 20.7396 
" clip-path="url(#p841020a8a1)" style="fill: none; stroke: #b0b0b0; stroke-opacity: 0.15; stroke-width: 0.8; stroke-linecap: square"/>
     </g>
     <g id="line2d_13">
      <g>
       <use xlink:href="#m65cb66035b" x="1029.715363" y="232.87608" style="stroke: #000000; stroke-width: 0.8"/>
      </g>
     </g>
     <g id="text_7">
      <!-- 5 -->
      <g transform="translate(1026.534113 244.974518) scale(0.1 -0.1)">
       <defs>
        <path id="DejaVuSans-35" d="M 691 4666 
L 3169 4666 
L 3169 4134 
L 1269 4134 
L 1269 2991 
Q 1406 3038 1543 3061 
Q 1681 3084 1819 3084 
Q 2600 3084 3056 2656 
Q 3513 2228 3513 1497 
Q 3513 744 3044 326 
Q 2575 -91 1722 -91 
Q 1428 -91 1123 -41 
Q 819 9 494 109 
L 494 744 
Q 775 591 1075 516 
Q 1375 441 1709 441 
Q 2250 441 2565 725 
Q 2881 1009 2881 1497 
Q 2881 1984 2565 2268 
Q 2250 2553 1709 2553 
Q 1456 2553 1204 2497 
Q 953 2441 691 2322 
L 691 4666 
z
" transform="scale(0.015625)"/>
       </defs>
       <use xlink:href="#DejaVuSans-35"/>
      </g>
     </g>
    </g>
    <g id="xtick_7">
     <g id="line2d_14">
      <path d="M 1158.38732 232.87608 
L 1158.38732 20.7396 
" clip-path="url(#p841020a8a1)" style="fill: none; stroke: #b0b0b0; stroke-opacity: 0.15; stroke-width: 0.8; stroke-linecap: square"/>
     </g>
     <g id="line2d_15">
      <g>
       <use xlink:href="#m65cb66035b" x="1158.38732" y="232.87608" style="stroke: #000000; stroke-width: 0.8"/>
      </g>
     </g>
     <g id="text_8">
      <!-- 6 -->
      <g transform="translate(1155.20607 244.974518) scale(0.1 -0.1)">
       <defs>
        <path id="DejaVuSans-36" d="M 2113 2584 
Q 1688 2584 1439 2293 
Q 1191 2003 1191 1497 
Q 1191 994 1439 701 
Q 1688 409 2113 409 
Q 2538 409 2786 701 
Q 3034 994 3034 1497 
Q 3034 2003 2786 2293 
Q 2538 2584 2113 2584 
z
M 3366 4563 
L 3366 3988 
Q 3128 4100 2886 4159 
Q 2644 4219 2406 4219 
Q 1781 4219 1451 3797 
Q 1122 3375 1075 2522 
Q 1259 2794 1537 2939 
Q 1816 3084 2150 3084 
Q 2853 3084 3261 2657 
Q 3669 2231 3669 1497 
Q 3669 778 3244 343 
Q 2819 -91 2113 -91 
Q 1303 -91 875 529 
Q 447 1150 447 2328 
Q 447 3434 972 4092 
Q 1497 4750 2381 4750 
Q 2619 4750 2861 4703 
Q 3103 4656 3366 4563 
z
" transform="scale(0.015625)"/>
       </defs>
       <use xlink:href="#DejaVuSans-36"/>
      </g>
     </g>
    </g>
   </g>
   <g id="matplotlib.axis_4">
    <g id="ytick_1">
     <g id="line2d_16">
      <path d="M 351.939168 224.468361 
L 1161.864 224.468361 
" clip-path="url(#p841020a8a1)" style="fill: none; stroke: #b0b0b0; stroke-opacity: 0.15; stroke-width: 0.8; stroke-linecap: square"/>
     </g>
     <g id="line2d_17">
      <defs>
       <path id="m2364245d35" d="M 0 0 
L -3.5 0 
" style="stroke: #000000; stroke-width: 0.8"/>
      </defs>
      <g>
       <use xlink:href="#m2364245d35" x="351.939168" y="224.468361" style="stroke: #000000; stroke-width: 0.8"/>
      </g>
     </g>
     <g id="text_9">
      <!-- −400 -->
      <g transform="translate(319.97198 228.26758) scale(0.1 -0.1)">
       <defs>
        <path id="DejaVuSans-2212" d="M 678 2272 
L 4684 2272 
L 4684 1741 
L 678 1741 
L 678 2272 
z
" transform="scale(0.015625)"/>
       </defs>
       <use xlink:href="#DejaVuSans-2212"/>
       <use xlink:href="#DejaVuSans-34" x="83.789062"/>
       <use xlink:href="#DejaVuSans-30" x="147.412109"/>
       <use xlink:href="#DejaVuSans-30" x="211.035156"/>
      </g>
     </g>
    </g>
    <g id="ytick_2">
     <g id="line2d_18">
      <path d="M 351.939168 180.245832 
L 1161.864 180.245832 
" clip-path="url(#p841020a8a1)" style="fill: none; stroke: #b0b0b0; stroke-opacity: 0.15; stroke-width: 0.8; stroke-linecap: square"/>
     </g>
     <g id="line2d_19">
      <g>
       <use xlink:href="#m2364245d35" x="351.939168" y="180.245832" style="stroke: #000000; stroke-width: 0.8"/>
      </g>
     </g>
     <g id="text_10">
      <!-- −300 -->
      <g transform="translate(319.97198 184.04505) scale(0.1 -0.1)">
       <use xlink:href="#DejaVuSans-2212"/>
       <use xlink:href="#DejaVuSans-33" x="83.789062"/>
       <use xlink:href="#DejaVuSans-30" x="147.412109"/>
       <use xlink:href="#DejaVuSans-30" x="211.035156"/>
      </g>
     </g>
    </g>
    <g id="ytick_3">
     <g id="line2d_20">
      <path d="M 351.939168 136.023302 
L 1161.864 136.023302 
" clip-path="url(#p841020a8a1)" style="fill: none; stroke: #b0b0b0; stroke-opacity: 0.15; stroke-width: 0.8; stroke-linecap: square"/>
     </g>
     <g id="line2d_21">
      <g>
       <use xlink:href="#m2364245d35" x="351.939168" y="136.023302" style="stroke: #000000; stroke-width: 0.8"/>
      </g>
     </g>
     <g id="text_11">
      <!-- −200 -->
      <g transform="translate(319.97198 139.822521) scale(0.1 -0.1)">
       <use xlink:href="#DejaVuSans-2212"/>
       <use xlink:href="#DejaVuSans-32" x="83.789062"/>
       <use xlink:href="#DejaVuSans-30" x="147.412109"/>
       <use xlink:href="#DejaVuSans-30" x="211.035156"/>
      </g>
     </g>
    </g>
    <g id="ytick_4">
     <g id="line2d_22">
      <path d="M 351.939168 91.800773 
L 1161.864 91.800773 
" clip-path="url(#p841020a8a1)" style="fill: none; stroke: #b0b0b0; stroke-opacity: 0.15; stroke-width: 0.8; stroke-linecap: square"/>
     </g>
     <g id="line2d_23">
      <g>
       <use xlink:href="#m2364245d35" x="351.939168" y="91.800773" style="stroke: #000000; stroke-width: 0.8"/>
      </g>
     </g>
     <g id="text_12">
      <!-- −100 -->
      <g transform="translate(319.97198 95.599992) scale(0.1 -0.1)">
       <use xlink:href="#DejaVuSans-2212"/>
       <use xlink:href="#DejaVuSans-31" x="83.789062"/>
       <use xlink:href="#DejaVuSans-30" x="147.412109"/>
       <use xlink:href="#DejaVuSans-30" x="211.035156"/>
      </g>
     </g>
    </g>
    <g id="ytick_5">
     <g id="line2d_24">
      <path d="M 351.939168 47.578244 
L 1161.864 47.578244 
" clip-path="url(#p841020a8a1)" style="fill: none; stroke: #b0b0b0; stroke-opacity: 0.15; stroke-width: 0.8; stroke-linecap: square"/>
     </g>
     <g id="line2d_25">
      <g>
       <use xlink:href="#m2364245d35" x="351.939168" y="47.578244" style="stroke: #000000; stroke-width: 0.8"/>
      </g>
     </g>
     <g id="text_13">
      <!-- 0 -->
      <g transform="translate(341.076668 51.377462) scale(0.1 -0.1)">
       <use xlink:href="#DejaVuSans-30"/>
      </g>
     </g>
    </g>
   </g>
   <g id="line2d_26">
    <path d="M 388.753933 47.578244 
L 391.152289 47.447708 
L 395.949001 46.787141 
L 403.144069 46.22349 
L 405.542425 45.89582 
L 410.339137 44.89751 
L 417.534205 43.071482 
L 419.932562 42.839103 
L 422.330918 43.077247 
L 424.729274 44.025322 
L 429.525986 46.380949 
L 431.924342 46.944336 
L 434.322698 47.098203 
L 436.721054 46.412748 
L 439.11941 45.228836 
L 443.916122 41.995038 
L 446.314478 40.90859 
L 448.712834 40.164421 
L 451.11119 39.904711 
L 453.509546 39.253054 
L 455.907902 38.376068 
L 463.10297 34.363443 
L 465.501326 33.596588 
L 467.899682 33.124049 
L 470.298038 32.916882 
L 475.09475 32.358426 
L 477.493106 31.809976 
L 482.289818 30.486558 
L 484.688174 30.382167 
L 487.08653 31.102463 
L 489.484886 32.907291 
L 494.281598 37.432945 
L 496.679955 39.019428 
L 499.078311 40.332453 
L 501.476667 41.840586 
L 503.875023 43.779583 
L 506.273379 46.294745 
L 508.671735 49.438744 
L 511.070091 53.004031 
L 513.468447 56.964211 
L 515.866803 59.612449 
L 518.265159 60.985222 
L 520.663515 62.084461 
L 523.061871 64.538631 
L 525.460227 68.01928 
L 527.858583 70.416223 
L 530.256939 70.997206 
L 535.053651 69.833716 
L 537.452007 69.762658 
L 539.850363 70.67758 
L 544.647075 78.40874 
L 547.045431 81.148325 
L 549.443787 79.731133 
L 551.842143 77.153355 
L 556.638855 72.398454 
L 561.435567 69.141752 
L 563.833923 68.554383 
L 566.232279 68.134169 
L 568.630635 67.209262 
L 571.028992 66.120984 
L 573.427348 64.800971 
L 575.825704 63.154369 
L 578.22406 60.931925 
L 580.622416 59.152122 
L 583.020772 59.194877 
L 585.419128 62.023695 
L 587.817484 65.037551 
L 590.21584 67.535256 
L 592.614196 68.745811 
L 595.012552 70.386341 
L 597.410908 72.223668 
L 602.20762 76.259981 
L 604.605976 78.767443 
L 607.004332 80.511588 
L 609.402688 81.656063 
L 611.801044 80.825708 
L 614.1994 79.552578 
L 616.597756 77.511337 
L 618.996112 75.155053 
L 621.394468 73.219569 
L 626.19118 70.853577 
L 628.589536 68.9133 
L 630.987892 66.535096 
L 633.386248 64.742148 
L 635.784604 63.753804 
L 638.18296 64.125815 
L 640.581316 66.28979 
L 642.979672 69.940752 
L 645.378029 74.971545 
L 650.174741 86.20843 
L 652.573097 89.513756 
L 654.971453 90.530406 
L 657.369809 88.136893 
L 659.768165 84.892074 
L 662.166521 81.91625 
L 666.963233 80.241385 
L 669.361589 77.430417 
L 671.759945 73.887992 
L 674.158301 69.839397 
L 676.556657 67.781504 
L 678.955013 67.767333 
L 681.353369 71.072187 
L 683.751725 76.136642 
L 686.150081 81.786228 
L 690.946793 91.747385 
L 693.345149 97.888829 
L 695.743505 105.803791 
L 698.141861 114.579348 
L 700.540217 121.834167 
L 705.336929 135.579951 
L 710.133641 151.285944 
L 714.930353 165.951082 
L 717.328709 174.125766 
L 719.727066 181.349889 
L 722.125422 190.188735 
L 724.523778 198.328241 
L 726.922134 207.827408 
L 729.32049 214.830707 
L 731.718846 220.028306 
L 734.117202 222.669439 
L 736.515558 223.233513 
L 741.31227 222.057268 
L 743.710626 221.684483 
L 746.108982 221.447228 
L 748.507338 220.850903 
L 750.905694 220.391497 
L 753.30405 220.13189 
L 755.702406 220.294101 
L 758.100762 220.223988 
L 762.897474 219.772339 
L 765.29583 219.785337 
L 772.490898 218.983437 
L 774.889254 219.084408 
L 779.685966 218.376157 
L 794.076102 215.862647 
L 796.474459 214.721536 
L 798.872815 213.864751 
L 801.271171 214.221402 
L 806.067883 216.43055 
L 808.466239 215.866163 
L 810.864595 214.679014 
L 813.262951 213.186324 
L 815.661307 212.273463 
L 818.059663 212.293207 
L 822.856375 212.920064 
L 825.254731 212.859823 
L 832.449799 211.321958 
L 842.043223 210.848785 
L 849.238291 210.325012 
L 858.831715 209.209275 
L 861.230071 208.610942 
L 863.628427 207.75794 
L 866.026783 206.622466 
L 868.425139 205.890973 
L 870.823496 205.550175 
L 875.620208 206.27177 
L 878.018564 206.411614 
L 880.41692 206.085572 
L 882.815276 205.615523 
L 885.213632 204.907103 
L 887.611988 202.894649 
L 890.010344 199.274905 
L 892.4087 195.87879 
L 894.807056 193.785662 
L 897.205412 193.394964 
L 899.603768 193.229363 
L 902.002124 193.180498 
L 904.40048 192.809159 
L 906.798836 192.197116 
L 909.197192 191.436138 
L 911.595548 190.937882 
L 916.39226 190.411248 
L 921.188972 189.766059 
L 923.587328 189.446484 
L 925.985684 189.647711 
L 930.782396 191.783253 
L 933.180752 192.083624 
L 935.579108 191.672432 
L 937.977464 192.757283 
L 942.774176 196.790579 
L 945.172533 197.15132 
L 952.367601 196.609576 
L 959.562669 195.837037 
L 964.359381 195.716411 
L 966.757737 195.351213 
L 973.952805 193.908199 
L 981.147873 193.102137 
L 983.546229 192.807897 
L 988.342941 192.551527 
L 990.741297 192.541425 
L 995.538009 192.092563 
L 997.936365 191.70782 
L 1002.733077 191.085248 
L 1005.131433 190.810899 
L 1009.928145 189.258566 
L 1012.326501 188.148811 
L 1017.123213 187.104391 
L 1024.318282 187.298553 
L 1026.716638 187.088864 
L 1031.51335 186.198757 
L 1033.911706 185.702245 
L 1036.310062 185.38964 
L 1038.708418 185.285743 
L 1048.301842 184.2741 
L 1055.49691 182.658982 
L 1057.895266 182.36896 
L 1060.293622 181.939596 
L 1065.090334 181.421187 
L 1067.48869 181.440668 
L 1069.887046 181.107643 
L 1072.285402 180.458092 
L 1074.683758 179.525128 
L 1077.082114 178.830622 
L 1079.48047 178.360999 
L 1081.878826 178.107562 
L 1084.277182 177.968173 
L 1089.073894 178.03409 
L 1093.870606 177.594067 
L 1096.268963 177.218145 
L 1101.065675 176.214162 
L 1103.464031 175.846531 
L 1105.862387 175.789068 
L 1110.659099 175.280866 
L 1113.057455 174.430018 
L 1115.455811 173.204467 
L 1117.854167 171.699882 
L 1120.252523 169.592147 
L 1122.650879 167.945308 
L 1125.049235 166.798394 
L 1125.049235 166.798394 
" clip-path="url(#p841020a8a1)" style="fill: none; stroke: #1b646b; stroke-width: 1.1; stroke-linecap: square"/>
   </g>
   <g id="line2d_27">
    <path d="M 351.939168 47.578244 
L 1161.864 47.578244 
" clip-path="url(#p841020a8a1)" style="fill: none; stroke: #aab0ac; stroke-width: 0.5; stroke-linecap: square"/>
   </g>
   <g id="patch_8">
    <path d="M 351.939168 232.87608 
L 351.939168 20.7396 
" style="fill: none; stroke: #000000; stroke-width: 0.8; stroke-linejoin: miter; stroke-linecap: square"/>
   </g>
   <g id="patch_9">
    <path d="M 351.939168 232.87608 
L 1161.864 232.87608 
" style="fill: none; stroke: #000000; stroke-width: 0.8; stroke-linejoin: miter; stroke-linecap: square"/>
   </g>
  </g>
  <g id="axes_3">
   <g id="patch_10">
    <path d="M 21.1248 551.0808 
L 226.457856 551.0808 
L 226.457856 338.94432 
L 21.1248 338.94432 
z
" style="fill: #ffffff"/>
   </g>
   <g id="PathCollection_2">
    <g clip-path="url(#p4df3e71d3c)">
     <use xlink:href="#m5948eb2edb" x="78.38963" y="486.4361" style="fill: #1b646b; stroke: #1b646b"/>
    </g>
   </g>
   <g id="matplotlib.axis_5"/>
   <g id="matplotlib.axis_6"/>
   <g id="line2d_28">
    <path d="M 78.38963 486.4361 
L 78.865257 486.513109 
L 79.576139 486.57044 
L 79.996555 486.780647 
L 80.206759 486.685096 
L 80.340531 486.486357 
L 80.497228 485.951286 
L 80.711257 485.702854 
L 80.98644 485.614952 
L 81.215756 485.70286 
L 81.403029 485.989503 
L 81.448892 486.92588 
L 81.341878 487.334826 
L 79.434727 489.456004 
L 79.469128 489.933747 
L 79.820745 490.315942 
L 81.441246 490.824261 
L 82.595472 492.035811 
L 85.507793 493.728935 
L 86.218673 494.512433 
L 88.003524 495.75456 
L 89.662242 497.703756 
L 91.041966 498.640131 
L 92.024202 498.934416 
L 92.88414 499.614727 
L 95.276673 502.274796 
L 96.01813 503.20735 
L 96.881893 506.322233 
L 97.424607 507.342692 
L 98.456528 508.619221 
L 98.815791 509.609103 
L 99.117725 511.642371 
L 100.271955 513.419579 
L 101.13571 513.706223 
L 101.789266 514.195432 
L 102.064441 514.558519 
L 103.142228 515.342016 
L 103.291287 515.66688 
L 103.891331 516.431268 
L 104.487552 516.779066 
L 104.89268 517.21859 
L 104.938541 517.501412 
L 104.888856 519.324479 
L 104.972941 519.62259 
L 105.171679 519.897769 
L 105.5577 520.127087 
L 106.035442 520.26085 
L 106.604911 520.176771 
L 107.552749 519.859551 
L 108.829282 519.878659 
L 109.406391 519.679919 
L 109.746547 519.74871 
L 110.354235 520.604824 
L 110.400095 521.457121 
L 110.682919 521.781986 
L 111.936516 522.183291 
L 111.990025 522.534909 
L 111.424376 523.249613 
L 110.323658 524.006357 
L 109.543985 524.342689 
L 109.314666 524.743992 
L 109.207652 525.233199 
L 109.32613 525.661258 
L 109.586021 526.150466 
L 110.239574 526.941609 
L 110.354232 527.335269 
L 110.079052 528.520071 
L 110.273973 528.978702 
L 110.587372 529.349433 
L 111.313539 529.723981 
L 111.554326 530.018271 
L 112.769703 532.987919 
L 113.216868 533.114039 
L 113.61435 532.961165 
L 114.329051 532.47578 
L 114.68067 532.693629 
L 114.810618 533.037606 
L 115.456523 533.431264 
L 115.039934 534.788055 
L 115.357155 535.208467 
L 116.511381 536.144844 
L 117.126715 536.832792 
L 119.698879 539.974428 
L 120.684941 540.505674 
L 122.76408 541.361794 
L 123.585797 541.419118 
L 125.148969 541.044574 
L 126.773294 540.482748 
L 128.240922 540.505678 
L 128.959444 540.284006 
L 129.215512 540.005005 
L 129.593885 539.362914 
L 129.891998 539.286475 
L 130.358275 539.745112 
L 130.679321 539.928566 
L 131.046227 540.005005 
L 131.833544 539.764222 
L 132.892221 539.183286 
L 133.431116 538.613817 
L 134.589167 537.184412 
L 135.345907 536.660806 
L 139.251933 535.349881 
L 141.434262 533.240169 
L 143.490464 530.583921 
L 144.220457 529.597858 
L 145.852426 526.903389 
L 146.207865 526.0167 
L 146.624461 523.666207 
L 146.536552 523.322231 
L 146.226979 522.641926 
L 146.288128 522.33617 
L 146.601525 521.380684 
L 146.559485 521.029067 
L 146.314882 520.409911 
L 146.039702 520.146198 
L 145.409084 520.050648 
L 145.118616 519.993319 
L 144.369516 519.546153 
L 144.117264 518.712969 
L 144.235746 518.426324 
L 145.584893 517.444084 
L 145.439657 517.18801 
L 144.552969 516.74467 
L 144.361872 516.553572 
L 144.285429 516.278392 
L 144.426843 516.049076 
L 145.195053 515.800649 
L 145.363221 515.284688 
L 142.90189 513.832351 
L 142.489117 513.732979 
L 142.362993 513.488375 
L 142.619066 512.571109 
L 142.756655 512.330327 
L 143.024193 512.246245 
L 143.693028 512.227136 
L 143.95292 512.081902 
L 144.033181 511.791434 
L 143.578373 511.413062 
L 143.043298 511.145525 
L 142.909535 510.900921 
L 143.02419 510.706002 
L 143.926171 510.591344 
L 143.887951 509.341569 
L 144.128733 508.389905 
L 143.253505 506.551551 
L 142.657284 506.368098 
L 140.97945 506.417783 
L 140.769246 506.157891 
L 140.494064 505.997369 
L 140.32972 505.748943 
L 140.562863 505.01131 
L 140.436736 504.755239 
L 140.471132 504.487704 
L 140.650765 504.418904 
L 141.66358 504.717019 
L 141.980801 504.606184 
L 142.179542 503.673629 
L 142.045773 503.406095 
L 140.688987 502.462073 
L 140.799823 501.819989 
L 140.723382 501.017381 
L 140.97945 500.921831 
L 141.613893 501.132039 
L 142.080171 501.605959 
L 142.378285 501.571557 
L 142.599955 501.277273 
L 142.687862 500.902722 
L 142.982149 500.233883 
L 142.351527 499.335726 
L 141.579499 497.822236 
L 141.185839 495.544361 
L 141.01767 495.261535 
L 141.082647 494.684423 
L 140.822753 494.397777 
L 140.031613 493.996474 
L 139.488896 493.316168 
L 139.339842 492.945441 
L 139.263402 492.196338 
L 139.454498 491.940269 
L 140.035431 491.596296 
L 140.096584 491.328758 
L 139.725855 490.805153 
L 138.839163 490.422957 
L 138.449328 489.857311 
L 138.101531 488.424083 
L 138.655712 488.305602 
L 139.10288 488.63429 
L 139.561515 488.729834 
L 140.043079 488.576961 
L 140.36412 488.34 
L 140.551397 488.022779 
L 140.543749 487.652046 
L 140.402338 486.74243 
L 139.997212 485.423859 
L 140.539928 485.251867 
L 141.143796 485.324489 
L 141.239347 484.73591 
L 141.139973 484.430154 
L 141.166726 483.895082 
L 140.903017 482.740851 
L 140.490243 482.010866 
L 139.958996 481.399355 
L 140.00868 481.257944 
L 140.688987 480.787843 
L 140.688988 480.531769 
L 140.570503 480.256594 
L 140.566683 479.633619 
L 140.776888 478.976243 
L 139.798475 477.409247 
L 139.209896 477.179931 
L 137.898968 476.335282 
L 137.023744 476.300886 
L 136.010932 476.021883 
L 135.345913 476.098322 
L 135.055444 475.983662 
L 134.883455 475.792567 
L 134.650321 475.25749 
L 134.627387 474.913519 
L 134.833774 474.741528 
L 135.223611 474.817966 
L 135.838943 474.867656 
L 137.039034 474.340224 
L 137.218663 474.16442 
L 137.149868 473.614059 
L 136.920549 473.117208 
L 136.22878 472.524807 
L 135.659309 472.448363 
L 134.917854 472.551559 
L 134.210793 472.371929 
L 133.259134 471.836858 
L 132.345688 471.511992 
L 132.07815 470.957809 
L 132.143125 470.709385 
L 132.32658 470.556506 
L 132.590294 470.552685 
L 132.949553 470.223998 
L 132.785211 469.769187 
L 132.628514 469.612487 
L 132.34569 469.123274 
L 131.997891 467.854393 
L 132.146944 467.204663 
L 132.07815 466.639016 
L 132.265427 465.981642 
L 132.517673 465.981638 
L 133.186515 466.734566 
L 133.530488 467.529528 
L 134.344561 468.588207 
L 135.105132 469.153853 
L 136.186736 469.63924 
L 136.737098 469.841802 
L 137.619966 469.841803 
L 138.116818 469.620126 
L 138.288805 469.42139 
L 138.751262 468.676112 
L 139.25576 468.263342 
L 139.389524 467.949942 
L 139.427743 467.441623 
L 139.741146 466.554933 
L 140.230353 466.046617 
L 140.299146 465.817299 
L 140.28386 464.987933 
L 140.440562 464.758622 
L 140.398516 464.433756 
L 140.662232 463.707588 
L 141.143799 462.893513 
L 141.380758 462.771211 
L 141.640648 462.809431 
L 142.061065 463.180159 
L 142.496766 463.772559 
L 144.101978 465.339557 
L 144.812863 466.791894 
L 144.797573 467.147336 
L 145.474057 468.817524 
L 145.615469 469.990859 
L 145.997664 470.739959 
L 146.475407 472.173189 
L 146.911108 473.128673 
L 147.430893 474.454887 
L 148.37873 476.319995 
L 148.906162 476.862706 
L 150.645145 477.607988 
L 151.084664 477.428358 
L 151.81848 477.474222 
L 152.819828 477.722643 
L 152.991815 477.906101 
L 153.370186 478.716352 
L 153.763846 478.907449 
L 154.298922 478.850121 
L 154.524414 478.594051 
L 155.120636 477.737935 
L 155.617487 477.336627 
L 155.724505 477.027054 
L 155.888845 476.931506 
L 156.141097 476.93915 
L 156.874909 477.130246 
L 158.224053 476.912397 
L 160.735071 476.021884 
L 163.601523 475.811677 
L 164.816905 475.849897 
L 166.349499 475.211632 
L 167.400535 474.69567 
L 167.618386 474.393738 
L 168.031153 473.442073 
L 168.06173 473.136318 
L 167.90121 472.306952 
L 168.279583 471.225343 
L 168.321623 470.594728 
L 169.028684 469.237938 
L 169.193026 468.091357 
L 169.047794 467.365182 
L 168.902558 467.021207 
L 167.947073 465.53065 
L 167.228546 464.414647 
L 166.609396 463.860462 
L 165.848825 461.911275 
L 165.481923 461.567301 
L 164.828367 461.242437 
L 164.671671 461.020764 
L 164.213039 460.046167 
L 164.094558 459.472876 
L 163.937856 459.274135 
L 163.693254 459.186233 
L 162.573424 458.498278 
L 162.149188 457.970854 
L 162.076569 457.382275 
L 162.122432 456.46883 
L 162.023063 456.205118 
L 161.564433 455.872609 
L 160.777109 455.574492 
L 160.517219 455.375756 
L 159.385923 453.78965 
L 158.873785 453.713211 
L 158.384575 453.518293 
L 158.124685 453.338656 
L 156.981925 452.40228 
L 156.767895 452.375533 
L 156.057015 452.555163 
L 155.800946 452.516942 
L 154.180438 451.80224 
L 153.542174 451.381827 
L 152.754856 451.14104 
L 152.196853 451.171619 
L 152.047797 450.965231 
L 152.173923 450.732097 
L 152.919202 449.975348 
L 153.660659 449.841585 
L 155.307915 450.101476 
L 155.934714 449.975348 
L 156.259577 449.669598 
L 156.44303 449.019867 
L 156.416274 448.534481 
L 156.068482 447.31146 
L 156.339839 446.050217 
L 156.615017 445.476928 
L 157.19595 444.636101 
L 157.635477 443.776164 
L 159.340061 442.331469 
L 160.115916 442.21681 
L 161.189881 442.41937 
L 163.047343 442.151834 
L 163.555661 441.616766 
L 163.647388 441.261325 
L 163.643568 439.514698 
L 164.407956 437.641947 
L 164.327695 436.514475 
L 164.446178 435.597208 
L 163.891994 432.891275 
L 163.792625 431.89757 
L 162.87536 430.34204 
L 162.737766 430.040106 
L 162.516096 429.279539 
L 162.084214 428.297296 
L 162.026889 427.368568 
L 162.183587 426.527737 
L 162.107148 425.839791 
L 161.763173 424.586194 
L 162.233272 422.56821 
L 162.733947 421.998742 
L 163.219335 421.616546 
L 163.41043 421.11205 
L 163.502158 420.095414 
L 163.162002 419.1705 
L 162.871535 418.857105 
L 162.118615 418.50166 
L 161.056116 418.436691 
L 160.803868 418.207374 
L 160.444602 417.538534 
L 159.852201 417.221309 
L 158.663579 416.8009 
L 157.757781 416.17028 
L 157.02779 415.398247 
L 153.996991 413.24649 
L 152.827473 411.832371 
L 152.20832 411.595415 
L 150.954721 411.396675 
L 149.425947 410.609356 
L 148.848834 410.131611 
L 148.394022 409.539211 
L 146.204048 407.662638 
L 145.611647 406.596316 
L 145.14537 406.01538 
L 144.117268 404.391056 
L 143.421679 403.550227 
L 142.928646 402.277522 
L 142.057242 401.436695 
L 141.869969 400.378016 
L 141.120868 399.391956 
L 140.796006 398.119245 
L 140.474962 397.660612 
L 139.794652 397.175229 
L 138.774198 396.303823 
L 137.986878 394.8706 
L 137.788134 393.83103 
L 137.650545 391.423203 
L 137.119298 389.019206 
L 136.603334 388.289215 
L 136.018577 386.538766 
L 135.972716 385.499198 
L 135.865702 385.097894 
L 135.303876 383.550009 
L 135.101309 381.78045 
L 135.189216 381.42883 
L 134.990477 379.632518 
L 135.258013 378.550908 
L 135.120423 377.377572 
L 134.745872 376.38769 
L 135.196858 375.906126 
L 135.437644 375.619479 
L 135.647849 374.893306 
L 135.537012 374.117457 
L 135.208323 373.00145 
L 135.242723 372.206481 
L 135.479682 371.147809 
L 135.965068 370.199962 
L 135.980358 369.867457 
L 135.842771 369.168041 
L 136.018578 368.460979 
L 137.600864 363.052935 
L 138.155043 362.441426 
L 140.19214 361.218405 
L 141.491598 360.110037 
L 143.123568 358.286971 
L 143.364351 357.740439 
L 143.421677 357.297093 
L 143.754185 356.230766 
L 143.540157 354.541468 
L 143.754186 353.624202 
L 144.50329 352.286522 
L 144.388632 351.54125 
L 144.23193 351.243138 
L 143.952929 351.025282 
L 143.834449 350.700422 
L 143.89178 349.228975 
L 143.765651 348.586887 
L 143.765651 348.586887 
" clip-path="url(#p4df3e71d3c)" style="fill: none; stroke: #1b646b; stroke-width: 1.2; stroke-linecap: square"/>
   </g>
   <g id="patch_11">
    <path d="M 21.1248 551.0808 
L 21.1248 338.94432 
" style="fill: none; stroke: #d6ddda; stroke-width: 0.8; stroke-linejoin: miter; stroke-linecap: square"/>
   </g>
   <g id="patch_12">
    <path d="M 226.457856 551.0808 
L 226.457856 338.94432 
" style="fill: none; stroke: #d6ddda; stroke-width: 0.8; stroke-linejoin: miter; stroke-linecap: square"/>
   </g>
   <g id="patch_13">
    <path d="M 21.1248 551.0808 
L 226.457856 551.0808 
" style="fill: none; stroke: #d6ddda; stroke-width: 0.8; stroke-linejoin: miter; stroke-linecap: square"/>
   </g>
   <g id="patch_14">
    <path d="M 21.1248 338.94432 
L 226.457856 338.94432 
" style="fill: none; stroke: #d6ddda; stroke-width: 0.8; stroke-linejoin: miter; stroke-linecap: square"/>
   </g>
   <g id="text_14">
    <!-- N ↑ -->
    <g transform="translate(25.231461 350.025643) scale(0.09 -0.09)">
     <use xlink:href="#DejaVuSans-4e"/>
     <use xlink:href="#DejaVuSans-20" x="74.804688"/>
     <use xlink:href="#DejaVuSans-2191" x="106.591797"/>
    </g>
   </g>
  </g>
  <g id="axes_4">
   <g id="patch_15">
    <path d="M 351.939168 551.0808 
L 1161.864 551.0808 
L 1161.864 338.94432 
L 351.939168 338.94432 
z
" style="fill: #ffffff"/>
   </g>
   <g id="matplotlib.axis_7">
    <g id="xtick_8">
     <g id="line2d_29">
      <path d="M 386.779951 551.0808 
L 386.779951 338.94432 
" clip-path="url(#p52a82b204c)" style="fill: none; stroke: #b0b0b0; stroke-opacity: 0.15; stroke-width: 0.8; stroke-linecap: square"/>
     </g>
     <g id="line2d_30">
      <g>
       <use xlink:href="#m65cb66035b" x="386.779951" y="551.0808" style="stroke: #000000; stroke-width: 0.8"/>
      </g>
     </g>
     <g id="text_15">
      <!-- 0 -->
      <g transform="translate(383.598701 563.179237) scale(0.1 -0.1)">
       <use xlink:href="#DejaVuSans-30"/>
      </g>
     </g>
    </g>
    <g id="xtick_9">
     <g id="line2d_31">
      <path d="M 492.864059 551.0808 
L 492.864059 338.94432 
" clip-path="url(#p52a82b204c)" style="fill: none; stroke: #b0b0b0; stroke-opacity: 0.15; stroke-width: 0.8; stroke-linecap: square"/>
     </g>
     <g id="line2d_32">
      <g>
       <use xlink:href="#m65cb66035b" x="492.864059" y="551.0808" style="stroke: #000000; stroke-width: 0.8"/>
      </g>
     </g>
     <g id="text_16">
      <!-- 1 -->
      <g transform="translate(489.682809 563.179237) scale(0.1 -0.1)">
       <use xlink:href="#DejaVuSans-31"/>
      </g>
     </g>
    </g>
    <g id="xtick_10">
     <g id="line2d_33">
      <path d="M 598.948167 551.0808 
L 598.948167 338.94432 
" clip-path="url(#p52a82b204c)" style="fill: none; stroke: #b0b0b0; stroke-opacity: 0.15; stroke-width: 0.8; stroke-linecap: square"/>
     </g>
     <g id="line2d_34">
      <g>
       <use xlink:href="#m65cb66035b" x="598.948167" y="551.0808" style="stroke: #000000; stroke-width: 0.8"/>
      </g>
     </g>
     <g id="text_17">
      <!-- 2 -->
      <g transform="translate(595.766917 563.179237) scale(0.1 -0.1)">
       <use xlink:href="#DejaVuSans-32"/>
      </g>
     </g>
    </g>
    <g id="xtick_11">
     <g id="line2d_35">
      <path d="M 705.032275 551.0808 
L 705.032275 338.94432 
" clip-path="url(#p52a82b204c)" style="fill: none; stroke: #b0b0b0; stroke-opacity: 0.15; stroke-width: 0.8; stroke-linecap: square"/>
     </g>
     <g id="line2d_36">
      <g>
       <use xlink:href="#m65cb66035b" x="705.032275" y="551.0808" style="stroke: #000000; stroke-width: 0.8"/>
      </g>
     </g>
     <g id="text_18">
      <!-- 3 -->
      <g transform="translate(701.851025 563.179237) scale(0.1 -0.1)">
       <use xlink:href="#DejaVuSans-33"/>
      </g>
     </g>
    </g>
    <g id="xtick_12">
     <g id="line2d_37">
      <path d="M 811.116382 551.0808 
L 811.116382 338.94432 
" clip-path="url(#p52a82b204c)" style="fill: none; stroke: #b0b0b0; stroke-opacity: 0.15; stroke-width: 0.8; stroke-linecap: square"/>
     </g>
     <g id="line2d_38">
      <g>
       <use xlink:href="#m65cb66035b" x="811.116382" y="551.0808" style="stroke: #000000; stroke-width: 0.8"/>
      </g>
     </g>
     <g id="text_19">
      <!-- 4 -->
      <g transform="translate(807.935132 563.179237) scale(0.1 -0.1)">
       <use xlink:href="#DejaVuSans-34"/>
      </g>
     </g>
    </g>
    <g id="xtick_13">
     <g id="line2d_39">
      <path d="M 917.20049 551.0808 
L 917.20049 338.94432 
" clip-path="url(#p52a82b204c)" style="fill: none; stroke: #b0b0b0; stroke-opacity: 0.15; stroke-width: 0.8; stroke-linecap: square"/>
     </g>
     <g id="line2d_40">
      <g>
       <use xlink:href="#m65cb66035b" x="917.20049" y="551.0808" style="stroke: #000000; stroke-width: 0.8"/>
      </g>
     </g>
     <g id="text_20">
      <!-- 5 -->
      <g transform="translate(914.01924 563.179237) scale(0.1 -0.1)">
       <use xlink:href="#DejaVuSans-35"/>
      </g>
     </g>
    </g>
    <g id="xtick_14">
     <g id="line2d_41">
      <path d="M 1023.284598 551.0808 
L 1023.284598 338.94432 
" clip-path="url(#p52a82b204c)" style="fill: none; stroke: #b0b0b0; stroke-opacity: 0.15; stroke-width: 0.8; stroke-linecap: square"/>
     </g>
     <g id="line2d_42">
      <g>
       <use xlink:href="#m65cb66035b" x="1023.284598" y="551.0808" style="stroke: #000000; stroke-width: 0.8"/>
      </g>
     </g>
     <g id="text_21">
      <!-- 6 -->
      <g transform="translate(1020.103348 563.179237) scale(0.1 -0.1)">
       <use xlink:href="#DejaVuSans-36"/>
      </g>
     </g>
    </g>
    <g id="xtick_15">
     <g id="line2d_43">
      <path d="M 1129.368706 551.0808 
L 1129.368706 338.94432 
" clip-path="url(#p52a82b204c)" style="fill: none; stroke: #b0b0b0; stroke-opacity: 0.15; stroke-width: 0.8; stroke-linecap: square"/>
     </g>
     <g id="line2d_44">
      <g>
       <use xlink:href="#m65cb66035b" x="1129.368706" y="551.0808" style="stroke: #000000; stroke-width: 0.8"/>
      </g>
     </g>
     <g id="text_22">
      <!-- 7 -->
      <g transform="translate(1126.187456 563.179237) scale(0.1 -0.1)">
       <defs>
        <path id="DejaVuSans-37" d="M 525 4666 
L 3525 4666 
L 3525 4397 
L 1831 0 
L 1172 0 
L 2766 4134 
L 525 4134 
L 525 4666 
z
" transform="scale(0.015625)"/>
       </defs>
       <use xlink:href="#DejaVuSans-37"/>
      </g>
     </g>
    </g>
   </g>
   <g id="matplotlib.axis_8">
    <g id="ytick_6">
     <g id="line2d_45">
      <path d="M 351.939168 532.599501 
L 1161.864 532.599501 
" clip-path="url(#p52a82b204c)" style="fill: none; stroke: #b0b0b0; stroke-opacity: 0.15; stroke-width: 0.8; stroke-linecap: square"/>
     </g>
     <g id="line2d_46">
      <g>
       <use xlink:href="#m2364245d35" x="351.939168" y="532.599501" style="stroke: #000000; stroke-width: 0.8"/>
      </g>
     </g>
     <g id="text_23">
      <!-- −100 -->
      <g transform="translate(319.97198 536.39872) scale(0.1 -0.1)">
       <use xlink:href="#DejaVuSans-2212"/>
       <use xlink:href="#DejaVuSans-31" x="83.789062"/>
       <use xlink:href="#DejaVuSans-30" x="147.412109"/>
       <use xlink:href="#DejaVuSans-30" x="211.035156"/>
      </g>
     </g>
    </g>
    <g id="ytick_7">
     <g id="line2d_47">
      <path d="M 351.939168 507.923022 
L 1161.864 507.923022 
" clip-path="url(#p52a82b204c)" style="fill: none; stroke: #b0b0b0; stroke-opacity: 0.15; stroke-width: 0.8; stroke-linecap: square"/>
     </g>
     <g id="line2d_48">
      <g>
       <use xlink:href="#m2364245d35" x="351.939168" y="507.923022" style="stroke: #000000; stroke-width: 0.8"/>
      </g>
     </g>
     <g id="text_24">
      <!-- 0 -->
      <g transform="translate(341.076668 511.722241) scale(0.1 -0.1)">
       <use xlink:href="#DejaVuSans-30"/>
      </g>
     </g>
    </g>
    <g id="ytick_8">
     <g id="line2d_49">
      <path d="M 351.939168 483.246543 
L 1161.864 483.246543 
" clip-path="url(#p52a82b204c)" style="fill: none; stroke: #b0b0b0; stroke-opacity: 0.15; stroke-width: 0.8; stroke-linecap: square"/>
     </g>
     <g id="line2d_50">
      <g>
       <use xlink:href="#m2364245d35" x="351.939168" y="483.246543" style="stroke: #000000; stroke-width: 0.8"/>
      </g>
     </g>
     <g id="text_25">
      <!-- 100 -->
      <g transform="translate(328.351668 487.045762) scale(0.1 -0.1)">
       <use xlink:href="#DejaVuSans-31"/>
       <use xlink:href="#DejaVuSans-30" x="63.623047"/>
       <use xlink:href="#DejaVuSans-30" x="127.246094"/>
      </g>
     </g>
    </g>
    <g id="ytick_9">
     <g id="line2d_51">
      <path d="M 351.939168 458.570064 
L 1161.864 458.570064 
" clip-path="url(#p52a82b204c)" style="fill: none; stroke: #b0b0b0; stroke-opacity: 0.15; stroke-width: 0.8; stroke-linecap: square"/>
     </g>
     <g id="line2d_52">
      <g>
       <use xlink:href="#m2364245d35" x="351.939168" y="458.570064" style="stroke: #000000; stroke-width: 0.8"/>
      </g>
     </g>
     <g id="text_26">
      <!-- 200 -->
      <g transform="translate(328.351668 462.369283) scale(0.1 -0.1)">
       <use xlink:href="#DejaVuSans-32"/>
       <use xlink:href="#DejaVuSans-30" x="63.623047"/>
       <use xlink:href="#DejaVuSans-30" x="127.246094"/>
      </g>
     </g>
    </g>
    <g id="ytick_10">
     <g id="line2d_53">
      <path d="M 351.939168 433.893585 
L 1161.864 433.893585 
" clip-path="url(#p52a82b204c)" style="fill: none; stroke: #b0b0b0; stroke-opacity: 0.15; stroke-width: 0.8; stroke-linecap: square"/>
     </g>
     <g id="line2d_54">
      <g>
       <use xlink:href="#m2364245d35" x="351.939168" y="433.893585" style="stroke: #000000; stroke-width: 0.8"/>
      </g>
     </g>
     <g id="text_27">
      <!-- 300 -->
      <g transform="translate(328.351668 437.692804) scale(0.1 -0.1)">
       <use xlink:href="#DejaVuSans-33"/>
       <use xlink:href="#DejaVuSans-30" x="63.623047"/>
       <use xlink:href="#DejaVuSans-30" x="127.246094"/>
      </g>
     </g>
    </g>
    <g id="ytick_11">
     <g id="line2d_55">
      <path d="M 351.939168 409.217106 
L 1161.864 409.217106 
" clip-path="url(#p52a82b204c)" style="fill: none; stroke: #b0b0b0; stroke-opacity: 0.15; stroke-width: 0.8; stroke-linecap: square"/>
     </g>
     <g id="line2d_56">
      <g>
       <use xlink:href="#m2364245d35" x="351.939168" y="409.217106" style="stroke: #000000; stroke-width: 0.8"/>
      </g>
     </g>
     <g id="text_28">
      <!-- 400 -->
      <g transform="translate(328.351668 413.016325) scale(0.1 -0.1)">
       <use xlink:href="#DejaVuSans-34"/>
       <use xlink:href="#DejaVuSans-30" x="63.623047"/>
       <use xlink:href="#DejaVuSans-30" x="127.246094"/>
      </g>
     </g>
    </g>
    <g id="ytick_12">
     <g id="line2d_57">
      <path d="M 351.939168 384.540628 
L 1161.864 384.540628 
" clip-path="url(#p52a82b204c)" style="fill: none; stroke: #b0b0b0; stroke-opacity: 0.15; stroke-width: 0.8; stroke-linecap: square"/>
     </g>
     <g id="line2d_58">
      <g>
       <use xlink:href="#m2364245d35" x="351.939168" y="384.540628" style="stroke: #000000; stroke-width: 0.8"/>
      </g>
     </g>
     <g id="text_29">
      <!-- 500 -->
      <g transform="translate(328.351668 388.339846) scale(0.1 -0.1)">
       <use xlink:href="#DejaVuSans-35"/>
       <use xlink:href="#DejaVuSans-30" x="63.623047"/>
       <use xlink:href="#DejaVuSans-30" x="127.246094"/>
      </g>
     </g>
    </g>
    <g id="ytick_13">
     <g id="line2d_59">
      <path d="M 351.939168 359.864149 
L 1161.864 359.864149 
" clip-path="url(#p52a82b204c)" style="fill: none; stroke: #b0b0b0; stroke-opacity: 0.15; stroke-width: 0.8; stroke-linecap: square"/>
     </g>
     <g id="line2d_60">
      <g>
       <use xlink:href="#m2364245d35" x="351.939168" y="359.864149" style="stroke: #000000; stroke-width: 0.8"/>
      </g>
     </g>
     <g id="text_30">
      <!-- 600 -->
      <g transform="translate(328.351668 363.663367) scale(0.1 -0.1)">
       <use xlink:href="#DejaVuSans-36"/>
       <use xlink:href="#DejaVuSans-30" x="63.623047"/>
       <use xlink:href="#DejaVuSans-30" x="127.246094"/>
      </g>
     </g>
    </g>
   </g>
   <g id="line2d_61">
    <path d="M 388.753933 507.923022 
L 390.727915 507.658836 
L 392.701897 507.592739 
L 394.675879 506.850543 
L 396.649861 505.551734 
L 398.623843 504.075878 
L 402.571807 501.42635 
L 408.493754 496.55844 
L 410.467736 494.303145 
L 412.441718 491.869941 
L 414.4157 490.183026 
L 416.389682 489.333437 
L 420.337646 488.352844 
L 422.311628 487.604788 
L 424.28561 486.648632 
L 426.259592 485.862252 
L 428.233574 485.854068 
L 430.207556 486.994652 
L 432.181538 488.837814 
L 436.129502 493.030673 
L 440.077466 497.166942 
L 442.051448 499.41217 
L 447.973394 506.626061 
L 449.947376 508.522914 
L 451.921358 510.634691 
L 453.89534 513.344585 
L 455.869323 516.497272 
L 459.817287 522.293445 
L 461.791269 525.489385 
L 463.765251 529.431878 
L 465.739233 533.709946 
L 467.713215 536.718748 
L 469.687197 537.372394 
L 473.635161 535.319916 
L 475.609143 534.039043 
L 477.583125 532.014715 
L 479.557107 529.657484 
L 481.531089 526.593927 
L 483.505071 523.797494 
L 485.479053 520.260405 
L 487.453035 517.305696 
L 489.427017 515.071791 
L 491.400999 513.882069 
L 493.374981 513.791395 
L 495.348963 514.2873 
L 497.322945 515.40003 
L 501.27091 518.575015 
L 503.244892 519.746612 
L 509.166838 522.262902 
L 511.14082 523.269891 
L 513.114802 524.097685 
L 515.088784 524.650266 
L 517.062766 524.53316 
L 521.01073 523.3314 
L 522.984712 523.327569 
L 524.958694 523.739371 
L 526.932676 524.319881 
L 528.906658 525.381763 
L 530.88064 526.60842 
L 532.854622 528.029594 
L 534.828604 529.163678 
L 538.776568 530.543083 
L 540.75055 531.612805 
L 542.724532 533.325028 
L 544.698514 534.617916 
L 546.672496 535.561209 
L 550.620461 536.608099 
L 552.594443 536.384326 
L 554.568425 535.43233 
L 560.490371 531.349136 
L 562.464353 530.443793 
L 564.438335 529.981518 
L 566.412317 530.018007 
L 580.230191 531.870442 
L 584.178155 532.547666 
L 588.126119 533.414561 
L 590.100101 533.652235 
L 592.074083 533.544841 
L 596.022048 533.064512 
L 597.99603 533.314293 
L 601.943994 535.050123 
L 603.917976 536.016006 
L 607.86594 537.163489 
L 609.839922 537.328118 
L 613.787886 537.9901 
L 617.73585 538.79406 
L 621.683814 540.807392 
L 623.657796 541.438233 
L 625.631778 540.78594 
L 627.60576 539.95089 
L 629.579742 539.288721 
L 631.553724 538.828631 
L 633.527706 537.98972 
L 635.501688 536.985495 
L 637.47567 536.431484 
L 639.449652 536.497795 
L 643.397617 537.131045 
L 647.345581 537.294849 
L 649.319563 537.250016 
L 653.267527 536.749263 
L 655.241509 536.365448 
L 657.215491 535.329757 
L 659.189473 533.738541 
L 661.163455 531.300799 
L 663.137437 529.311196 
L 665.111419 527.877118 
L 671.033365 526.584901 
L 673.007347 525.371411 
L 674.981329 524.459274 
L 676.955311 523.356037 
L 680.903275 522.530366 
L 682.877257 522.192926 
L 684.851239 521.979238 
L 686.825221 520.694608 
L 688.799204 518.952178 
L 690.773186 516.152797 
L 692.747168 513.76688 
L 694.72115 511.600184 
L 696.695132 510.475858 
L 700.643096 507.761345 
L 702.617078 506.021848 
L 706.565042 504.13533 
L 708.539024 502.825722 
L 710.513006 500.681117 
L 712.486988 497.988481 
L 714.46097 494.95097 
L 716.434952 492.498571 
L 718.408934 490.290425 
L 720.382916 489.280313 
L 722.356898 488.411472 
L 724.33088 487.736979 
L 726.304862 486.230577 
L 728.278844 484.0408 
L 730.252826 480.572229 
L 732.226808 476.52375 
L 734.200791 472.955324 
L 738.148755 468.673373 
L 742.096719 461.558915 
L 744.070701 457.578017 
L 746.044683 454.323408 
L 749.992647 446.421592 
L 751.966629 443.594919 
L 753.940611 441.823515 
L 755.914593 441.681997 
L 757.888575 441.715251 
L 763.810521 443.080032 
L 765.784503 442.984676 
L 767.758485 442.555245 
L 769.732467 441.995156 
L 771.706449 441.217213 
L 773.680431 440.135758 
L 777.628395 436.80447 
L 779.602377 435.813146 
L 781.57636 436.093825 
L 783.550342 436.599543 
L 785.524324 436.887999 
L 787.498306 436.447222 
L 789.472288 435.827286 
L 791.44627 435.424611 
L 793.420252 435.510219 
L 797.368216 436.039754 
L 803.290162 435.968934 
L 805.264144 435.613711 
L 807.238126 434.962917 
L 809.212108 433.675005 
L 811.18609 431.781022 
L 813.160072 430.15744 
L 817.108036 427.425402 
L 819.082018 424.777235 
L 821.056 421.17745 
L 823.029982 418.036727 
L 825.003964 416.192566 
L 826.977947 416.340348 
L 828.951929 417.588705 
L 834.873875 423.074749 
L 836.847857 424.770343 
L 842.769803 429.209776 
L 844.743785 430.96097 
L 846.717767 432.341312 
L 848.691749 433.258167 
L 850.665731 433.189101 
L 852.639713 432.793557 
L 854.613695 432.135885 
L 856.587677 431.055278 
L 862.509623 427.246778 
L 864.483605 426.456381 
L 874.353516 423.154168 
L 878.30148 421.167464 
L 882.249444 419.189497 
L 890.145372 414.326327 
L 892.119354 412.448269 
L 894.093336 409.679355 
L 896.067318 406.020664 
L 898.0413 403.62783 
L 900.015282 402.558776 
L 901.989264 402.749807 
L 903.963246 402.389767 
L 905.937228 401.134436 
L 907.91121 398.642728 
L 911.859174 392.811697 
L 913.833156 391.13133 
L 915.807138 390.339213 
L 917.78112 390.20115 
L 919.755102 389.821996 
L 921.729085 389.304827 
L 925.677049 386.526061 
L 927.651031 385.402428 
L 929.625013 385.560517 
L 933.572977 386.684479 
L 935.546959 386.565834 
L 937.520941 385.857813 
L 943.442887 381.997974 
L 945.416869 380.617813 
L 947.390851 379.036641 
L 951.338815 374.989526 
L 955.286779 370.46027 
L 957.260761 368.309929 
L 961.208725 364.89377 
L 963.182707 363.325487 
L 965.156689 361.370758 
L 967.130672 359.748151 
L 969.104654 357.880627 
L 971.078636 356.557112 
L 973.052618 355.566845 
L 975.0266 355.156946 
L 977.000582 355.337921 
L 980.948546 356.098598 
L 984.89651 356.219081 
L 988.844474 356.521254 
L 990.818456 356.459904 
L 992.792438 356.159063 
L 994.76642 355.579179 
L 998.714384 353.853071 
L 1000.688366 352.99137 
L 1002.662348 352.294806 
L 1004.63633 351.810932 
L 1008.584294 351.381356 
L 1012.532258 351.245883 
L 1018.454205 351.485274 
L 1020.428187 351.993858 
L 1022.402169 352.77914 
L 1026.350133 354.812197 
L 1028.324115 355.504723 
L 1030.298097 355.888282 
L 1032.272079 355.899862 
L 1036.220043 355.524541 
L 1038.194025 354.998873 
L 1042.141989 353.452559 
L 1044.115971 352.899508 
L 1046.089953 352.779251 
L 1052.011899 351.415434 
L 1053.985881 350.903709 
L 1059.907828 348.949837 
L 1061.88181 348.72863 
L 1073.725702 348.598584 
L 1075.699684 348.8056 
L 1077.673666 349.189863 
L 1083.595612 350.896969 
L 1085.569594 351.232756 
L 1091.49154 351.619665 
L 1095.439504 351.864887 
L 1103.335432 352.07573 
L 1107.283397 352.562925 
L 1111.231361 353.403299 
L 1113.205343 353.938467 
L 1117.153307 355.29034 
L 1121.101271 356.195196 
L 1123.075253 356.482289 
L 1125.049235 356.963904 
L 1125.049235 356.963904 
" clip-path="url(#p52a82b204c)" style="fill: none; stroke: #1b646b; stroke-width: 1.1; stroke-linecap: square"/>
   </g>
   <g id="line2d_62">
    <path d="M 351.939168 507.923022 
L 1161.864 507.923022 
" clip-path="url(#p52a82b204c)" style="fill: none; stroke: #aab0ac; stroke-width: 0.5; stroke-linecap: square"/>
   </g>
   <g id="patch_16">
    <path d="M 351.939168 551.0808 
L 351.939168 338.94432 
" style="fill: none; stroke: #000000; stroke-width: 0.8; stroke-linejoin: miter; stroke-linecap: square"/>
   </g>
   <g id="patch_17">
    <path d="M 351.939168 551.0808 
L 1161.864 551.0808 
" style="fill: none; stroke: #000000; stroke-width: 0.8; stroke-linejoin: miter; stroke-linecap: square"/>
   </g>
  </g>
  <g id="text_31">
   <!-- Elephant Gap * † -->
   <g style="fill: #202d30" transform="translate(21.1248 13.03632) scale(0.12 -0.12)">
    <defs>
     <path id="DejaVuSans-Bold-45" d="M 588 4666 
L 3834 4666 
L 3834 3756 
L 1791 3756 
L 1791 2888 
L 3713 2888 
L 3713 1978 
L 1791 1978 
L 1791 909 
L 3903 909 
L 3903 0 
L 588 0 
L 588 4666 
z
" transform="scale(0.015625)"/>
     <path id="DejaVuSans-Bold-6c" d="M 538 4863 
L 1656 4863 
L 1656 0 
L 538 0 
L 538 4863 
z
" transform="scale(0.015625)"/>
     <path id="DejaVuSans-Bold-65" d="M 4031 1759 
L 4031 1441 
L 1416 1441 
Q 1456 1047 1700 850 
Q 1944 653 2381 653 
Q 2734 653 3104 758 
Q 3475 863 3866 1075 
L 3866 213 
Q 3469 63 3072 -14 
Q 2675 -91 2278 -91 
Q 1328 -91 801 392 
Q 275 875 275 1747 
Q 275 2603 792 3093 
Q 1309 3584 2216 3584 
Q 3041 3584 3536 3087 
Q 4031 2591 4031 1759 
z
M 2881 2131 
Q 2881 2450 2695 2645 
Q 2509 2841 2209 2841 
Q 1884 2841 1681 2658 
Q 1478 2475 1428 2131 
L 2881 2131 
z
" transform="scale(0.015625)"/>
     <path id="DejaVuSans-Bold-70" d="M 1656 506 
L 1656 -1331 
L 538 -1331 
L 538 3500 
L 1656 3500 
L 1656 2988 
Q 1888 3294 2169 3439 
Q 2450 3584 2816 3584 
Q 3463 3584 3878 3070 
Q 4294 2556 4294 1747 
Q 4294 938 3878 423 
Q 3463 -91 2816 -91 
Q 2450 -91 2169 54 
Q 1888 200 1656 506 
z
M 2400 2772 
Q 2041 2772 1848 2508 
Q 1656 2244 1656 1747 
Q 1656 1250 1848 986 
Q 2041 722 2400 722 
Q 2759 722 2948 984 
Q 3138 1247 3138 1747 
Q 3138 2247 2948 2509 
Q 2759 2772 2400 2772 
z
" transform="scale(0.015625)"/>
     <path id="DejaVuSans-Bold-68" d="M 4056 2131 
L 4056 0 
L 2931 0 
L 2931 347 
L 2931 1625 
Q 2931 2084 2911 2256 
Q 2891 2428 2841 2509 
Q 2775 2619 2662 2680 
Q 2550 2741 2406 2741 
Q 2056 2741 1856 2470 
Q 1656 2200 1656 1722 
L 1656 0 
L 538 0 
L 538 4863 
L 1656 4863 
L 1656 2988 
Q 1909 3294 2193 3439 
Q 2478 3584 2822 3584 
Q 3428 3584 3742 3212 
Q 4056 2841 4056 2131 
z
" transform="scale(0.015625)"/>
     <path id="DejaVuSans-Bold-61" d="M 2106 1575 
Q 1756 1575 1579 1456 
Q 1403 1338 1403 1106 
Q 1403 894 1545 773 
Q 1688 653 1941 653 
Q 2256 653 2472 879 
Q 2688 1106 2688 1447 
L 2688 1575 
L 2106 1575 
z
M 3816 1997 
L 3816 0 
L 2688 0 
L 2688 519 
Q 2463 200 2181 54 
Q 1900 -91 1497 -91 
Q 953 -91 614 226 
Q 275 544 275 1050 
Q 275 1666 698 1953 
Q 1122 2241 2028 2241 
L 2688 2241 
L 2688 2328 
Q 2688 2594 2478 2717 
Q 2269 2841 1825 2841 
Q 1466 2841 1156 2769 
Q 847 2697 581 2553 
L 581 3406 
Q 941 3494 1303 3539 
Q 1666 3584 2028 3584 
Q 2975 3584 3395 3211 
Q 3816 2838 3816 1997 
z
" transform="scale(0.015625)"/>
     <path id="DejaVuSans-Bold-6e" d="M 4056 2131 
L 4056 0 
L 2931 0 
L 2931 347 
L 2931 1631 
Q 2931 2084 2911 2256 
Q 2891 2428 2841 2509 
Q 2775 2619 2662 2680 
Q 2550 2741 2406 2741 
Q 2056 2741 1856 2470 
Q 1656 2200 1656 1722 
L 1656 0 
L 538 0 
L 538 3500 
L 1656 3500 
L 1656 2988 
Q 1909 3294 2193 3439 
Q 2478 3584 2822 3584 
Q 3428 3584 3742 3212 
Q 4056 2841 4056 2131 
z
" transform="scale(0.015625)"/>
     <path id="DejaVuSans-Bold-74" d="M 1759 4494 
L 1759 3500 
L 2913 3500 
L 2913 2700 
L 1759 2700 
L 1759 1216 
Q 1759 972 1856 886 
Q 1953 800 2241 800 
L 2816 800 
L 2816 0 
L 1856 0 
Q 1194 0 917 276 
Q 641 553 641 1216 
L 641 2700 
L 84 2700 
L 84 3500 
L 641 3500 
L 641 4494 
L 1759 4494 
z
" transform="scale(0.015625)"/>
     <path id="DejaVuSans-Bold-20" transform="scale(0.015625)"/>
     <path id="DejaVuSans-Bold-47" d="M 4781 347 
Q 4331 128 3847 18 
Q 3363 -91 2847 -91 
Q 1681 -91 1000 561 
Q 319 1213 319 2328 
Q 319 3456 1012 4103 
Q 1706 4750 2913 4750 
Q 3378 4750 3804 4662 
Q 4231 4575 4609 4403 
L 4609 3438 
Q 4219 3659 3833 3768 
Q 3447 3878 3059 3878 
Q 2341 3878 1952 3476 
Q 1563 3075 1563 2328 
Q 1563 1588 1938 1184 
Q 2313 781 3003 781 
Q 3191 781 3352 804 
Q 3513 828 3641 878 
L 3641 1784 
L 2906 1784 
L 2906 2591 
L 4781 2591 
L 4781 347 
z
" transform="scale(0.015625)"/>
     <path id="DejaVuSans-Bold-2a" d="M 3219 3803 
L 2188 3263 
L 3219 2719 
L 2981 2278 
L 1941 2853 
L 1941 1778 
L 1409 1778 
L 1409 2853 
L 366 2278 
L 128 2719 
L 1172 3263 
L 128 3803 
L 366 4244 
L 1409 3675 
L 1409 4750 
L 1941 4750 
L 1941 3675 
L 2981 4244 
L 3219 3803 
z
" transform="scale(0.015625)"/>
     <path id="DejaVuSans-Bold-2020" d="M 1069 4666 
L 2100 4666 
L 2100 3475 
L 3009 3475 
L 3009 2731 
L 2100 2731 
L 2100 -616 
L 1069 -616 
L 1069 2731 
L 166 2731 
L 166 3475 
L 1069 3475 
L 1069 4666 
z
" transform="scale(0.015625)"/>
    </defs>
    <use xlink:href="#DejaVuSans-Bold-45"/>
    <use xlink:href="#DejaVuSans-Bold-6c" x="68.310547"/>
    <use xlink:href="#DejaVuSans-Bold-65" x="102.587891"/>
    <use xlink:href="#DejaVuSans-Bold-70" x="170.410156"/>
    <use xlink:href="#DejaVuSans-Bold-68" x="241.992188"/>
    <use xlink:href="#DejaVuSans-Bold-61" x="313.183594"/>
    <use xlink:href="#DejaVuSans-Bold-6e" x="380.664062"/>
    <use xlink:href="#DejaVuSans-Bold-74" x="451.855469"/>
    <use xlink:href="#DejaVuSans-Bold-20" x="499.658203"/>
    <use xlink:href="#DejaVuSans-Bold-47" x="534.472656"/>
    <use xlink:href="#DejaVuSans-Bold-61" x="616.552734"/>
    <use xlink:href="#DejaVuSans-Bold-70" x="684.033203"/>
    <use xlink:href="#DejaVuSans-Bold-20" x="755.615234"/>
    <use xlink:href="#DejaVuSans-Bold-2a" x="790.429688"/>
    <use xlink:href="#DejaVuSans-Bold-20" x="842.724609"/>
    <use xlink:href="#DejaVuSans-Bold-2020" x="877.539062"/>
   </g>
  </g>
  <g id="text_32">
   <!-- 1: 5.74 +326/−595 -->
   <g transform="translate(21.1248 254.103398) scale(0.1 -0.1)">
    <defs>
     <path id="DejaVuSans-3a" d="M 750 794 
L 1409 794 
L 1409 0 
L 750 0 
L 750 794 
z
M 750 3309 
L 1409 3309 
L 1409 2516 
L 750 2516 
L 750 3309 
z
" transform="scale(0.015625)"/>
     <path id="DejaVuSans-2e" d="M 684 794 
L 1344 794 
L 1344 0 
L 684 0 
L 684 794 
z
" transform="scale(0.015625)"/>
     <path id="DejaVuSans-2b" d="M 2944 4013 
L 2944 2272 
L 4684 2272 
L 4684 1741 
L 2944 1741 
L 2944 0 
L 2419 0 
L 2419 1741 
L 678 1741 
L 678 2272 
L 2419 2272 
L 2419 4013 
L 2944 4013 
z
" transform="scale(0.015625)"/>
     <path id="DejaVuSans-2f" d="M 1625 4666 
L 2156 4666 
L 531 -594 
L 0 -594 
L 1625 4666 
z
" transform="scale(0.015625)"/>
     <path id="DejaVuSans-39" d="M 703 97 
L 703 672 
Q 941 559 1184 500 
Q 1428 441 1663 441 
Q 2288 441 2617 861 
Q 2947 1281 2994 2138 
Q 2813 1869 2534 1725 
Q 2256 1581 1919 1581 
Q 1219 1581 811 2004 
Q 403 2428 403 3163 
Q 403 3881 828 4315 
Q 1253 4750 1959 4750 
Q 2769 4750 3195 4129 
Q 3622 3509 3622 2328 
Q 3622 1225 3098 567 
Q 2575 -91 1691 -91 
Q 1453 -91 1209 -44 
Q 966 3 703 97 
z
M 1959 2075 
Q 2384 2075 2632 2365 
Q 2881 2656 2881 3163 
Q 2881 3666 2632 3958 
Q 2384 4250 1959 4250 
Q 1534 4250 1286 3958 
Q 1038 3666 1038 3163 
Q 1038 2656 1286 2365 
Q 1534 2075 1959 2075 
z
" transform="scale(0.015625)"/>
    </defs>
    <use xlink:href="#DejaVuSans-31"/>
    <use xlink:href="#DejaVuSans-3a" x="63.623047"/>
    <use xlink:href="#DejaVuSans-20" x="97.314453"/>
    <use xlink:href="#DejaVuSans-35" x="129.101562"/>
    <use xlink:href="#DejaVuSans-2e" x="192.724609"/>
    <use xlink:href="#DejaVuSans-37" x="224.511719"/>
    <use xlink:href="#DejaVuSans-34" x="288.134766"/>
    <use xlink:href="#DejaVuSans-20" x="351.757812"/>
    <use xlink:href="#DejaVuSans-2b" x="383.544922"/>
    <use xlink:href="#DejaVuSans-33" x="467.333984"/>
    <use xlink:href="#DejaVuSans-32" x="530.957031"/>
    <use xlink:href="#DejaVuSans-36" x="594.580078"/>
    <use xlink:href="#DejaVuSans-2f" x="658.203125"/>
    <use xlink:href="#DejaVuSans-2212" x="691.894531"/>
    <use xlink:href="#DejaVuSans-35" x="775.683594"/>
    <use xlink:href="#DejaVuSans-39" x="839.306641"/>
    <use xlink:href="#DejaVuSans-35" x="902.929688"/>
   </g>
  </g>
  <g id="text_33">
   <!-- Poverty Flat * † -->
   <g style="fill: #202d30" transform="translate(21.1248 331.24104) scale(0.12 -0.12)">
    <defs>
     <path id="DejaVuSans-Bold-50" d="M 588 4666 
L 2584 4666 
Q 3475 4666 3951 4270 
Q 4428 3875 4428 3144 
Q 4428 2409 3951 2014 
Q 3475 1619 2584 1619 
L 1791 1619 
L 1791 0 
L 588 0 
L 588 4666 
z
M 1791 3794 
L 1791 2491 
L 2456 2491 
Q 2806 2491 2997 2661 
Q 3188 2831 3188 3144 
Q 3188 3456 2997 3625 
Q 2806 3794 2456 3794 
L 1791 3794 
z
" transform="scale(0.015625)"/>
     <path id="DejaVuSans-Bold-6f" d="M 2203 2784 
Q 1831 2784 1636 2517 
Q 1441 2250 1441 1747 
Q 1441 1244 1636 976 
Q 1831 709 2203 709 
Q 2569 709 2762 976 
Q 2956 1244 2956 1747 
Q 2956 2250 2762 2517 
Q 2569 2784 2203 2784 
z
M 2203 3584 
Q 3106 3584 3614 3096 
Q 4122 2609 4122 1747 
Q 4122 884 3614 396 
Q 3106 -91 2203 -91 
Q 1297 -91 786 396 
Q 275 884 275 1747 
Q 275 2609 786 3096 
Q 1297 3584 2203 3584 
z
" transform="scale(0.015625)"/>
     <path id="DejaVuSans-Bold-76" d="M 97 3500 
L 1216 3500 
L 2088 1081 
L 2956 3500 
L 4078 3500 
L 2700 0 
L 1472 0 
L 97 3500 
z
" transform="scale(0.015625)"/>
     <path id="DejaVuSans-Bold-72" d="M 3138 2547 
Q 2991 2616 2845 2648 
Q 2700 2681 2553 2681 
Q 2122 2681 1889 2404 
Q 1656 2128 1656 1613 
L 1656 0 
L 538 0 
L 538 3500 
L 1656 3500 
L 1656 2925 
Q 1872 3269 2151 3426 
Q 2431 3584 2822 3584 
Q 2878 3584 2943 3579 
Q 3009 3575 3134 3559 
L 3138 2547 
z
" transform="scale(0.015625)"/>
     <path id="DejaVuSans-Bold-79" d="M 78 3500 
L 1197 3500 
L 2138 1125 
L 2938 3500 
L 4056 3500 
L 2584 -331 
Q 2363 -916 2067 -1148 
Q 1772 -1381 1288 -1381 
L 641 -1381 
L 641 -647 
L 991 -647 
Q 1275 -647 1404 -556 
Q 1534 -466 1606 -231 
L 1638 -134 
L 78 3500 
z
" transform="scale(0.015625)"/>
     <path id="DejaVuSans-Bold-46" d="M 588 4666 
L 3834 4666 
L 3834 3756 
L 1791 3756 
L 1791 2888 
L 3713 2888 
L 3713 1978 
L 1791 1978 
L 1791 0 
L 588 0 
L 588 4666 
z
" transform="scale(0.015625)"/>
    </defs>
    <use xlink:href="#DejaVuSans-Bold-50"/>
    <use xlink:href="#DejaVuSans-Bold-6f" x="73.291016"/>
    <use xlink:href="#DejaVuSans-Bold-76" x="141.992188"/>
    <use xlink:href="#DejaVuSans-Bold-65" x="207.177734"/>
    <use xlink:href="#DejaVuSans-Bold-72" x="275"/>
    <use xlink:href="#DejaVuSans-Bold-74" x="324.316406"/>
    <use xlink:href="#DejaVuSans-Bold-79" x="372.119141"/>
    <use xlink:href="#DejaVuSans-Bold-20" x="437.304688"/>
    <use xlink:href="#DejaVuSans-Bold-46" x="472.119141"/>
    <use xlink:href="#DejaVuSans-Bold-6c" x="540.429688"/>
    <use xlink:href="#DejaVuSans-Bold-61" x="574.707031"/>
    <use xlink:href="#DejaVuSans-Bold-74" x="642.1875"/>
    <use xlink:href="#DejaVuSans-Bold-20" x="689.990234"/>
    <use xlink:href="#DejaVuSans-Bold-2a" x="724.804688"/>
    <use xlink:href="#DejaVuSans-Bold-20" x="777.099609"/>
    <use xlink:href="#DejaVuSans-Bold-2020" x="811.914062"/>
   </g>
  </g>
  <g id="text_34">
   <!-- 1: 6.96 +1081/−470 -->
   <g transform="translate(21.1248 572.308117) scale(0.1 -0.1)">
    <defs>
     <path id="DejaVuSans-38" d="M 2034 2216 
Q 1584 2216 1326 1975 
Q 1069 1734 1069 1313 
Q 1069 891 1326 650 
Q 1584 409 2034 409 
Q 2484 409 2743 651 
Q 3003 894 3003 1313 
Q 3003 1734 2745 1975 
Q 2488 2216 2034 2216 
z
M 1403 2484 
Q 997 2584 770 2862 
Q 544 3141 544 3541 
Q 544 4100 942 4425 
Q 1341 4750 2034 4750 
Q 2731 4750 3128 4425 
Q 3525 4100 3525 3541 
Q 3525 3141 3298 2862 
Q 3072 2584 2669 2484 
Q 3125 2378 3379 2068 
Q 3634 1759 3634 1313 
Q 3634 634 3220 271 
Q 2806 -91 2034 -91 
Q 1263 -91 848 271 
Q 434 634 434 1313 
Q 434 1759 690 2068 
Q 947 2378 1403 2484 
z
M 1172 3481 
Q 1172 3119 1398 2916 
Q 1625 2713 2034 2713 
Q 2441 2713 2670 2916 
Q 2900 3119 2900 3481 
Q 2900 3844 2670 4047 
Q 2441 4250 2034 4250 
Q 1625 4250 1398 4047 
Q 1172 3844 1172 3481 
z
" transform="scale(0.015625)"/>
    </defs>
    <use xlink:href="#DejaVuSans-31"/>
    <use xlink:href="#DejaVuSans-3a" x="63.623047"/>
    <use xlink:href="#DejaVuSans-20" x="97.314453"/>
    <use xlink:href="#DejaVuSans-36" x="129.101562"/>
    <use xlink:href="#DejaVuSans-2e" x="192.724609"/>
    <use xlink:href="#DejaVuSans-39" x="224.511719"/>
    <use xlink:href="#DejaVuSans-36" x="288.134766"/>
    <use xlink:href="#DejaVuSans-20" x="351.757812"/>
    <use xlink:href="#DejaVuSans-2b" x="383.544922"/>
    <use xlink:href="#DejaVuSans-31" x="467.333984"/>
    <use xlink:href="#DejaVuSans-30" x="530.957031"/>
    <use xlink:href="#DejaVuSans-38" x="594.580078"/>
    <use xlink:href="#DejaVuSans-31" x="658.203125"/>
    <use xlink:href="#DejaVuSans-2f" x="721.826172"/>
    <use xlink:href="#DejaVuSans-2212" x="755.517578"/>
    <use xlink:href="#DejaVuSans-34" x="839.306641"/>
    <use xlink:href="#DejaVuSans-37" x="902.929688"/>
    <use xlink:href="#DejaVuSans-30" x="966.552734"/>
   </g>
  </g>
  <g id="text_35">
   <!-- X: miles from start. Y: ft relative to first valid sample. Cutouts: N up; dot=start; color/number=part. Metrics: part: miles +ascent/−descent (ft). * Map section. † DEM gap; see data. -->
   <g transform="translate(21.1248 589.5972) scale(0.09 -0.09)">
    <defs>
     <path id="DejaVuSans-58" d="M 403 4666 
L 1081 4666 
L 2241 2931 
L 3406 4666 
L 4084 4666 
L 2584 2425 
L 4184 0 
L 3506 0 
L 2194 1984 
L 872 0 
L 191 0 
L 1856 2491 
L 403 4666 
z
" transform="scale(0.015625)"/>
     <path id="DejaVuSans-6d" d="M 3328 2828 
Q 3544 3216 3844 3400 
Q 4144 3584 4550 3584 
Q 5097 3584 5394 3201 
Q 5691 2819 5691 2113 
L 5691 0 
L 5113 0 
L 5113 2094 
Q 5113 2597 4934 2840 
Q 4756 3084 4391 3084 
Q 3944 3084 3684 2787 
Q 3425 2491 3425 1978 
L 3425 0 
L 2847 0 
L 2847 2094 
Q 2847 2600 2669 2842 
Q 2491 3084 2119 3084 
Q 1678 3084 1418 2786 
Q 1159 2488 1159 1978 
L 1159 0 
L 581 0 
L 581 3500 
L 1159 3500 
L 1159 2956 
Q 1356 3278 1631 3431 
Q 1906 3584 2284 3584 
Q 2666 3584 2933 3390 
Q 3200 3197 3328 2828 
z
" transform="scale(0.015625)"/>
     <path id="DejaVuSans-69" d="M 603 3500 
L 1178 3500 
L 1178 0 
L 603 0 
L 603 3500 
z
M 603 4863 
L 1178 4863 
L 1178 4134 
L 603 4134 
L 603 4863 
z
" transform="scale(0.015625)"/>
     <path id="DejaVuSans-6c" d="M 603 4863 
L 1178 4863 
L 1178 0 
L 603 0 
L 603 4863 
z
" transform="scale(0.015625)"/>
     <path id="DejaVuSans-65" d="M 3597 1894 
L 3597 1613 
L 953 1613 
Q 991 1019 1311 708 
Q 1631 397 2203 397 
Q 2534 397 2845 478 
Q 3156 559 3463 722 
L 3463 178 
Q 3153 47 2828 -22 
Q 2503 -91 2169 -91 
Q 1331 -91 842 396 
Q 353 884 353 1716 
Q 353 2575 817 3079 
Q 1281 3584 2069 3584 
Q 2775 3584 3186 3129 
Q 3597 2675 3597 1894 
z
M 3022 2063 
Q 3016 2534 2758 2815 
Q 2500 3097 2075 3097 
Q 1594 3097 1305 2825 
Q 1016 2553 972 2059 
L 3022 2063 
z
" transform="scale(0.015625)"/>
     <path id="DejaVuSans-73" d="M 2834 3397 
L 2834 2853 
Q 2591 2978 2328 3040 
Q 2066 3103 1784 3103 
Q 1356 3103 1142 2972 
Q 928 2841 928 2578 
Q 928 2378 1081 2264 
Q 1234 2150 1697 2047 
L 1894 2003 
Q 2506 1872 2764 1633 
Q 3022 1394 3022 966 
Q 3022 478 2636 193 
Q 2250 -91 1575 -91 
Q 1294 -91 989 -36 
Q 684 19 347 128 
L 347 722 
Q 666 556 975 473 
Q 1284 391 1588 391 
Q 1994 391 2212 530 
Q 2431 669 2431 922 
Q 2431 1156 2273 1281 
Q 2116 1406 1581 1522 
L 1381 1569 
Q 847 1681 609 1914 
Q 372 2147 372 2553 
Q 372 3047 722 3315 
Q 1072 3584 1716 3584 
Q 2034 3584 2315 3537 
Q 2597 3491 2834 3397 
z
" transform="scale(0.015625)"/>
     <path id="DejaVuSans-66" d="M 2375 4863 
L 2375 4384 
L 1825 4384 
Q 1516 4384 1395 4259 
Q 1275 4134 1275 3809 
L 1275 3500 
L 2222 3500 
L 2222 3053 
L 1275 3053 
L 1275 0 
L 697 0 
L 697 3053 
L 147 3053 
L 147 3500 
L 697 3500 
L 697 3744 
Q 697 4328 969 4595 
Q 1241 4863 1831 4863 
L 2375 4863 
z
" transform="scale(0.015625)"/>
     <path id="DejaVuSans-72" d="M 2631 2963 
Q 2534 3019 2420 3045 
Q 2306 3072 2169 3072 
Q 1681 3072 1420 2755 
Q 1159 2438 1159 1844 
L 1159 0 
L 581 0 
L 581 3500 
L 1159 3500 
L 1159 2956 
Q 1341 3275 1631 3429 
Q 1922 3584 2338 3584 
Q 2397 3584 2469 3576 
Q 2541 3569 2628 3553 
L 2631 2963 
z
" transform="scale(0.015625)"/>
     <path id="DejaVuSans-6f" d="M 1959 3097 
Q 1497 3097 1228 2736 
Q 959 2375 959 1747 
Q 959 1119 1226 758 
Q 1494 397 1959 397 
Q 2419 397 2687 759 
Q 2956 1122 2956 1747 
Q 2956 2369 2687 2733 
Q 2419 3097 1959 3097 
z
M 1959 3584 
Q 2709 3584 3137 3096 
Q 3566 2609 3566 1747 
Q 3566 888 3137 398 
Q 2709 -91 1959 -91 
Q 1206 -91 779 398 
Q 353 888 353 1747 
Q 353 2609 779 3096 
Q 1206 3584 1959 3584 
z
" transform="scale(0.015625)"/>
     <path id="DejaVuSans-74" d="M 1172 4494 
L 1172 3500 
L 2356 3500 
L 2356 3053 
L 1172 3053 
L 1172 1153 
Q 1172 725 1289 603 
Q 1406 481 1766 481 
L 2356 481 
L 2356 0 
L 1766 0 
Q 1100 0 847 248 
Q 594 497 594 1153 
L 594 3053 
L 172 3053 
L 172 3500 
L 594 3500 
L 594 4494 
L 1172 4494 
z
" transform="scale(0.015625)"/>
     <path id="DejaVuSans-61" d="M 2194 1759 
Q 1497 1759 1228 1600 
Q 959 1441 959 1056 
Q 959 750 1161 570 
Q 1363 391 1709 391 
Q 2188 391 2477 730 
Q 2766 1069 2766 1631 
L 2766 1759 
L 2194 1759 
z
M 3341 1997 
L 3341 0 
L 2766 0 
L 2766 531 
Q 2569 213 2275 61 
Q 1981 -91 1556 -91 
Q 1019 -91 701 211 
Q 384 513 384 1019 
Q 384 1609 779 1909 
Q 1175 2209 1959 2209 
L 2766 2209 
L 2766 2266 
Q 2766 2663 2505 2880 
Q 2244 3097 1772 3097 
Q 1472 3097 1187 3025 
Q 903 2953 641 2809 
L 641 3341 
Q 956 3463 1253 3523 
Q 1550 3584 1831 3584 
Q 2591 3584 2966 3190 
Q 3341 2797 3341 1997 
z
" transform="scale(0.015625)"/>
     <path id="DejaVuSans-59" d="M -13 4666 
L 666 4666 
L 1959 2747 
L 3244 4666 
L 3922 4666 
L 2272 2222 
L 2272 0 
L 1638 0 
L 1638 2222 
L -13 4666 
z
" transform="scale(0.015625)"/>
     <path id="DejaVuSans-76" d="M 191 3500 
L 800 3500 
L 1894 563 
L 2988 3500 
L 3597 3500 
L 2284 0 
L 1503 0 
L 191 3500 
z
" transform="scale(0.015625)"/>
     <path id="DejaVuSans-64" d="M 2906 2969 
L 2906 4863 
L 3481 4863 
L 3481 0 
L 2906 0 
L 2906 525 
Q 2725 213 2448 61 
Q 2172 -91 1784 -91 
Q 1150 -91 751 415 
Q 353 922 353 1747 
Q 353 2572 751 3078 
Q 1150 3584 1784 3584 
Q 2172 3584 2448 3432 
Q 2725 3281 2906 2969 
z
M 947 1747 
Q 947 1113 1208 752 
Q 1469 391 1925 391 
Q 2381 391 2643 752 
Q 2906 1113 2906 1747 
Q 2906 2381 2643 2742 
Q 2381 3103 1925 3103 
Q 1469 3103 1208 2742 
Q 947 2381 947 1747 
z
" transform="scale(0.015625)"/>
     <path id="DejaVuSans-70" d="M 1159 525 
L 1159 -1331 
L 581 -1331 
L 581 3500 
L 1159 3500 
L 1159 2969 
Q 1341 3281 1617 3432 
Q 1894 3584 2278 3584 
Q 2916 3584 3314 3078 
Q 3713 2572 3713 1747 
Q 3713 922 3314 415 
Q 2916 -91 2278 -91 
Q 1894 -91 1617 61 
Q 1341 213 1159 525 
z
M 3116 1747 
Q 3116 2381 2855 2742 
Q 2594 3103 2138 3103 
Q 1681 3103 1420 2742 
Q 1159 2381 1159 1747 
Q 1159 1113 1420 752 
Q 1681 391 2138 391 
Q 2594 391 2855 752 
Q 3116 1113 3116 1747 
z
" transform="scale(0.015625)"/>
     <path id="DejaVuSans-43" d="M 4122 4306 
L 4122 3641 
Q 3803 3938 3442 4084 
Q 3081 4231 2675 4231 
Q 1875 4231 1450 3742 
Q 1025 3253 1025 2328 
Q 1025 1406 1450 917 
Q 1875 428 2675 428 
Q 3081 428 3442 575 
Q 3803 722 4122 1019 
L 4122 359 
Q 3791 134 3420 21 
Q 3050 -91 2638 -91 
Q 1578 -91 968 557 
Q 359 1206 359 2328 
Q 359 3453 968 4101 
Q 1578 4750 2638 4750 
Q 3056 4750 3426 4639 
Q 3797 4528 4122 4306 
z
" transform="scale(0.015625)"/>
     <path id="DejaVuSans-75" d="M 544 1381 
L 544 3500 
L 1119 3500 
L 1119 1403 
Q 1119 906 1312 657 
Q 1506 409 1894 409 
Q 2359 409 2629 706 
Q 2900 1003 2900 1516 
L 2900 3500 
L 3475 3500 
L 3475 0 
L 2900 0 
L 2900 538 
Q 2691 219 2414 64 
Q 2138 -91 1772 -91 
Q 1169 -91 856 284 
Q 544 659 544 1381 
z
M 1991 3584 
L 1991 3584 
z
" transform="scale(0.015625)"/>
     <path id="DejaVuSans-3b" d="M 750 3309 
L 1409 3309 
L 1409 2516 
L 750 2516 
L 750 3309 
z
M 750 794 
L 1409 794 
L 1409 256 
L 897 -744 
L 494 -744 
L 750 256 
L 750 794 
z
" transform="scale(0.015625)"/>
     <path id="DejaVuSans-3d" d="M 678 2906 
L 4684 2906 
L 4684 2381 
L 678 2381 
L 678 2906 
z
M 678 1631 
L 4684 1631 
L 4684 1100 
L 678 1100 
L 678 1631 
z
" transform="scale(0.015625)"/>
     <path id="DejaVuSans-63" d="M 3122 3366 
L 3122 2828 
Q 2878 2963 2633 3030 
Q 2388 3097 2138 3097 
Q 1578 3097 1268 2742 
Q 959 2388 959 1747 
Q 959 1106 1268 751 
Q 1578 397 2138 397 
Q 2388 397 2633 464 
Q 2878 531 3122 666 
L 3122 134 
Q 2881 22 2623 -34 
Q 2366 -91 2075 -91 
Q 1284 -91 818 406 
Q 353 903 353 1747 
Q 353 2603 823 3093 
Q 1294 3584 2113 3584 
Q 2378 3584 2631 3529 
Q 2884 3475 3122 3366 
z
" transform="scale(0.015625)"/>
     <path id="DejaVuSans-6e" d="M 3513 2113 
L 3513 0 
L 2938 0 
L 2938 2094 
Q 2938 2591 2744 2837 
Q 2550 3084 2163 3084 
Q 1697 3084 1428 2787 
Q 1159 2491 1159 1978 
L 1159 0 
L 581 0 
L 581 3500 
L 1159 3500 
L 1159 2956 
Q 1366 3272 1645 3428 
Q 1925 3584 2291 3584 
Q 2894 3584 3203 3211 
Q 3513 2838 3513 2113 
z
" transform="scale(0.015625)"/>
     <path id="DejaVuSans-62" d="M 3116 1747 
Q 3116 2381 2855 2742 
Q 2594 3103 2138 3103 
Q 1681 3103 1420 2742 
Q 1159 2381 1159 1747 
Q 1159 1113 1420 752 
Q 1681 391 2138 391 
Q 2594 391 2855 752 
Q 3116 1113 3116 1747 
z
M 1159 2969 
Q 1341 3281 1617 3432 
Q 1894 3584 2278 3584 
Q 2916 3584 3314 3078 
Q 3713 2572 3713 1747 
Q 3713 922 3314 415 
Q 2916 -91 2278 -91 
Q 1894 -91 1617 61 
Q 1341 213 1159 525 
L 1159 0 
L 581 0 
L 581 4863 
L 1159 4863 
L 1159 2969 
z
" transform="scale(0.015625)"/>
     <path id="DejaVuSans-4d" d="M 628 4666 
L 1569 4666 
L 2759 1491 
L 3956 4666 
L 4897 4666 
L 4897 0 
L 4281 0 
L 4281 4097 
L 3078 897 
L 2444 897 
L 1241 4097 
L 1241 0 
L 628 0 
L 628 4666 
z
" transform="scale(0.015625)"/>
     <path id="DejaVuSans-28" d="M 1984 4856 
Q 1566 4138 1362 3434 
Q 1159 2731 1159 2009 
Q 1159 1288 1364 580 
Q 1569 -128 1984 -844 
L 1484 -844 
Q 1016 -109 783 600 
Q 550 1309 550 2009 
Q 550 2706 781 3412 
Q 1013 4119 1484 4856 
L 1984 4856 
z
" transform="scale(0.015625)"/>
     <path id="DejaVuSans-29" d="M 513 4856 
L 1013 4856 
Q 1481 4119 1714 3412 
Q 1947 2706 1947 2009 
Q 1947 1309 1714 600 
Q 1481 -109 1013 -844 
L 513 -844 
Q 928 -128 1133 580 
Q 1338 1288 1338 2009 
Q 1338 2731 1133 3434 
Q 928 4138 513 4856 
z
" transform="scale(0.015625)"/>
     <path id="DejaVuSans-2a" d="M 3009 3897 
L 1888 3291 
L 3009 2681 
L 2828 2375 
L 1778 3009 
L 1778 1831 
L 1422 1831 
L 1422 3009 
L 372 2375 
L 191 2681 
L 1313 3291 
L 191 3897 
L 372 4206 
L 1422 3572 
L 1422 4750 
L 1778 4750 
L 1778 3572 
L 2828 4206 
L 3009 3897 
z
" transform="scale(0.015625)"/>
     <path id="DejaVuSans-2020" d="M 1325 4666 
L 1875 4666 
L 1875 3353 
L 3022 3353 
L 3022 2875 
L 1875 2875 
L 1875 -616 
L 1325 -616 
L 1325 2875 
L 178 2875 
L 178 3353 
L 1325 3353 
L 1325 4666 
z
" transform="scale(0.015625)"/>
     <path id="DejaVuSans-44" d="M 1259 4147 
L 1259 519 
L 2022 519 
Q 2988 519 3436 956 
Q 3884 1394 3884 2338 
Q 3884 3275 3436 3711 
Q 2988 4147 2022 4147 
L 1259 4147 
z
M 628 4666 
L 1925 4666 
Q 3281 4666 3915 4102 
Q 4550 3538 4550 2338 
Q 4550 1131 3912 565 
Q 3275 0 1925 0 
L 628 0 
L 628 4666 
z
" transform="scale(0.015625)"/>
     <path id="DejaVuSans-45" d="M 628 4666 
L 3578 4666 
L 3578 4134 
L 1259 4134 
L 1259 2753 
L 3481 2753 
L 3481 2222 
L 1259 2222 
L 1259 531 
L 3634 531 
L 3634 0 
L 628 0 
L 628 4666 
z
" transform="scale(0.015625)"/>
     <path id="DejaVuSans-67" d="M 2906 1791 
Q 2906 2416 2648 2759 
Q 2391 3103 1925 3103 
Q 1463 3103 1205 2759 
Q 947 2416 947 1791 
Q 947 1169 1205 825 
Q 1463 481 1925 481 
Q 2391 481 2648 825 
Q 2906 1169 2906 1791 
z
M 3481 434 
Q 3481 -459 3084 -895 
Q 2688 -1331 1869 -1331 
Q 1566 -1331 1297 -1286 
Q 1028 -1241 775 -1147 
L 775 -588 
Q 1028 -725 1275 -790 
Q 1522 -856 1778 -856 
Q 2344 -856 2625 -561 
Q 2906 -266 2906 331 
L 2906 616 
Q 2728 306 2450 153 
Q 2172 0 1784 0 
Q 1141 0 747 490 
Q 353 981 353 1791 
Q 353 2603 747 3093 
Q 1141 3584 1784 3584 
Q 2172 3584 2450 3431 
Q 2728 3278 2906 2969 
L 2906 3500 
L 3481 3500 
L 3481 434 
z
" transform="scale(0.015625)"/>
    </defs>
    <use xlink:href="#DejaVuSans-58"/>
    <use xlink:href="#DejaVuSans-3a" x="68.505859"/>
    <use xlink:href="#DejaVuSans-20" x="102.197266"/>
    <use xlink:href="#DejaVuSans-6d" x="133.984375"/>
    <use xlink:href="#DejaVuSans-69" x="231.396484"/>
    <use xlink:href="#DejaVuSans-6c" x="259.179688"/>
    <use xlink:href="#DejaVuSans-65" x="286.962891"/>
    <use xlink:href="#DejaVuSans-73" x="348.486328"/>
    <use xlink:href="#DejaVuSans-20" x="400.585938"/>
    <use xlink:href="#DejaVuSans-66" x="432.373047"/>
    <use xlink:href="#DejaVuSans-72" x="467.578125"/>
    <use xlink:href="#DejaVuSans-6f" x="506.441406"/>
    <use xlink:href="#DejaVuSans-6d" x="567.623047"/>
    <use xlink:href="#DejaVuSans-20" x="665.035156"/>
    <use xlink:href="#DejaVuSans-73" x="696.822266"/>
    <use xlink:href="#DejaVuSans-74" x="748.921875"/>
    <use xlink:href="#DejaVuSans-61" x="788.130859"/>
    <use xlink:href="#DejaVuSans-72" x="849.410156"/>
    <use xlink:href="#DejaVuSans-74" x="890.523438"/>
    <use xlink:href="#DejaVuSans-2e" x="929.732422"/>
    <use xlink:href="#DejaVuSans-20" x="961.519531"/>
    <use xlink:href="#DejaVuSans-59" x="993.306641"/>
    <use xlink:href="#DejaVuSans-3a" x="1041.140625"/>
    <use xlink:href="#DejaVuSans-20" x="1074.832031"/>
    <use xlink:href="#DejaVuSans-66" x="1106.619141"/>
    <use xlink:href="#DejaVuSans-74" x="1140.074219"/>
    <use xlink:href="#DejaVuSans-20" x="1179.283203"/>
    <use xlink:href="#DejaVuSans-72" x="1211.070312"/>
    <use xlink:href="#DejaVuSans-65" x="1249.933594"/>
    <use xlink:href="#DejaVuSans-6c" x="1311.457031"/>
    <use xlink:href="#DejaVuSans-61" x="1339.240234"/>
    <use xlink:href="#DejaVuSans-74" x="1400.519531"/>
    <use xlink:href="#DejaVuSans-69" x="1439.728516"/>
    <use xlink:href="#DejaVuSans-76" x="1467.511719"/>
    <use xlink:href="#DejaVuSans-65" x="1526.691406"/>
    <use xlink:href="#DejaVuSans-20" x="1588.214844"/>
    <use xlink:href="#DejaVuSans-74" x="1620.001953"/>
    <use xlink:href="#DejaVuSans-6f" x="1659.210938"/>
    <use xlink:href="#DejaVuSans-20" x="1720.392578"/>
    <use xlink:href="#DejaVuSans-66" x="1752.179688"/>
    <use xlink:href="#DejaVuSans-69" x="1787.384766"/>
    <use xlink:href="#DejaVuSans-72" x="1815.167969"/>
    <use xlink:href="#DejaVuSans-73" x="1856.28125"/>
    <use xlink:href="#DejaVuSans-74" x="1908.380859"/>
    <use xlink:href="#DejaVuSans-20" x="1947.589844"/>
    <use xlink:href="#DejaVuSans-76" x="1979.376953"/>
    <use xlink:href="#DejaVuSans-61" x="2038.556641"/>
    <use xlink:href="#DejaVuSans-6c" x="2099.835938"/>
    <use xlink:href="#DejaVuSans-69" x="2127.619141"/>
    <use xlink:href="#DejaVuSans-64" x="2155.402344"/>
    <use xlink:href="#DejaVuSans-20" x="2218.878906"/>
    <use xlink:href="#DejaVuSans-73" x="2250.666016"/>
    <use xlink:href="#DejaVuSans-61" x="2302.765625"/>
    <use xlink:href="#DejaVuSans-6d" x="2364.044922"/>
    <use xlink:href="#DejaVuSans-70" x="2461.457031"/>
    <use xlink:href="#DejaVuSans-6c" x="2524.933594"/>
    <use xlink:href="#DejaVuSans-65" x="2552.716797"/>
    <use xlink:href="#DejaVuSans-2e" x="2614.240234"/>
    <use xlink:href="#DejaVuSans-20" x="2646.027344"/>
    <use xlink:href="#DejaVuSans-43" x="2677.814453"/>
    <use xlink:href="#DejaVuSans-75" x="2747.638672"/>
    <use xlink:href="#DejaVuSans-74" x="2811.017578"/>
    <use xlink:href="#DejaVuSans-6f" x="2850.226562"/>
    <use xlink:href="#DejaVuSans-75" x="2911.408203"/>
    <use xlink:href="#DejaVuSans-74" x="2974.787109"/>
    <use xlink:href="#DejaVuSans-73" x="3013.996094"/>
    <use xlink:href="#DejaVuSans-3a" x="3066.095703"/>
    <use xlink:href="#DejaVuSans-20" x="3099.787109"/>
    <use xlink:href="#DejaVuSans-4e" x="3131.574219"/>
    <use xlink:href="#DejaVuSans-20" x="3206.378906"/>
    <use xlink:href="#DejaVuSans-75" x="3238.166016"/>
    <use xlink:href="#DejaVuSans-70" x="3301.544922"/>
    <use xlink:href="#DejaVuSans-3b" x="3365.021484"/>
    <use xlink:href="#DejaVuSans-20" x="3398.712891"/>
    <use xlink:href="#DejaVuSans-64" x="3430.5"/>
    <use xlink:href="#DejaVuSans-6f" x="3493.976562"/>
    <use xlink:href="#DejaVuSans-74" x="3555.158203"/>
    <use xlink:href="#DejaVuSans-3d" x="3594.367188"/>
    <use xlink:href="#DejaVuSans-73" x="3678.15625"/>
    <use xlink:href="#DejaVuSans-74" x="3730.255859"/>
    <use xlink:href="#DejaVuSans-61" x="3769.464844"/>
    <use xlink:href="#DejaVuSans-72" x="3830.744141"/>
    <use xlink:href="#DejaVuSans-74" x="3871.857422"/>
    <use xlink:href="#DejaVuSans-3b" x="3911.066406"/>
    <use xlink:href="#DejaVuSans-20" x="3944.757812"/>
    <use xlink:href="#DejaVuSans-63" x="3976.544922"/>
    <use xlink:href="#DejaVuSans-6f" x="4031.525391"/>
    <use xlink:href="#DejaVuSans-6c" x="4092.707031"/>
    <use xlink:href="#DejaVuSans-6f" x="4120.490234"/>
    <use xlink:href="#DejaVuSans-72" x="4181.671875"/>
    <use xlink:href="#DejaVuSans-2f" x="4222.785156"/>
    <use xlink:href="#DejaVuSans-6e" x="4256.476562"/>
    <use xlink:href="#DejaVuSans-75" x="4319.855469"/>
    <use xlink:href="#DejaVuSans-6d" x="4383.234375"/>
    <use xlink:href="#DejaVuSans-62" x="4480.646484"/>
    <use xlink:href="#DejaVuSans-65" x="4544.123047"/>
    <use xlink:href="#DejaVuSans-72" x="4605.646484"/>
    <use xlink:href="#DejaVuSans-3d" x="4646.759766"/>
    <use xlink:href="#DejaVuSans-70" x="4730.548828"/>
    <use xlink:href="#DejaVuSans-61" x="4794.025391"/>
    <use xlink:href="#DejaVuSans-72" x="4855.304688"/>
    <use xlink:href="#DejaVuSans-74" x="4896.417969"/>
    <use xlink:href="#DejaVuSans-2e" x="4935.626953"/>
    <use xlink:href="#DejaVuSans-20" x="4967.414062"/>
    <use xlink:href="#DejaVuSans-4d" x="4999.201172"/>
    <use xlink:href="#DejaVuSans-65" x="5085.480469"/>
    <use xlink:href="#DejaVuSans-74" x="5147.003906"/>
    <use xlink:href="#DejaVuSans-72" x="5186.212891"/>
    <use xlink:href="#DejaVuSans-69" x="5227.326172"/>
    <use xlink:href="#DejaVuSans-63" x="5255.109375"/>
    <use xlink:href="#DejaVuSans-73" x="5310.089844"/>
    <use xlink:href="#DejaVuSans-3a" x="5362.189453"/>
    <use xlink:href="#DejaVuSans-20" x="5395.880859"/>
    <use xlink:href="#DejaVuSans-70" x="5427.667969"/>
    <use xlink:href="#DejaVuSans-61" x="5491.144531"/>
    <use xlink:href="#DejaVuSans-72" x="5552.423828"/>
    <use xlink:href="#DejaVuSans-74" x="5593.537109"/>
    <use xlink:href="#DejaVuSans-3a" x="5632.746094"/>
    <use xlink:href="#DejaVuSans-20" x="5666.4375"/>
    <use xlink:href="#DejaVuSans-6d" x="5698.224609"/>
    <use xlink:href="#DejaVuSans-69" x="5795.636719"/>
    <use xlink:href="#DejaVuSans-6c" x="5823.419922"/>
    <use xlink:href="#DejaVuSans-65" x="5851.203125"/>
    <use xlink:href="#DejaVuSans-73" x="5912.726562"/>
    <use xlink:href="#DejaVuSans-20" x="5964.826172"/>
    <use xlink:href="#DejaVuSans-2b" x="5996.613281"/>
    <use xlink:href="#DejaVuSans-61" x="6080.402344"/>
    <use xlink:href="#DejaVuSans-73" x="6141.681641"/>
    <use xlink:href="#DejaVuSans-63" x="6193.78125"/>
    <use xlink:href="#DejaVuSans-65" x="6248.761719"/>
    <use xlink:href="#DejaVuSans-6e" x="6310.285156"/>
    <use xlink:href="#DejaVuSans-74" x="6373.664062"/>
    <use xlink:href="#DejaVuSans-2f" x="6412.873047"/>
    <use xlink:href="#DejaVuSans-2212" x="6446.564453"/>
    <use xlink:href="#DejaVuSans-64" x="6530.353516"/>
    <use xlink:href="#DejaVuSans-65" x="6593.830078"/>
    <use xlink:href="#DejaVuSans-73" x="6655.353516"/>
    <use xlink:href="#DejaVuSans-63" x="6707.453125"/>
    <use xlink:href="#DejaVuSans-65" x="6762.433594"/>
    <use xlink:href="#DejaVuSans-6e" x="6823.957031"/>
    <use xlink:href="#DejaVuSans-74" x="6887.335938"/>
    <use xlink:href="#DejaVuSans-20" x="6926.544922"/>
    <use xlink:href="#DejaVuSans-28" x="6958.332031"/>
    <use xlink:href="#DejaVuSans-66" x="6997.345703"/>
    <use xlink:href="#DejaVuSans-74" x="7030.800781"/>
    <use xlink:href="#DejaVuSans-29" x="7070.009766"/>
    <use xlink:href="#DejaVuSans-2e" x="7109.023438"/>
    <use xlink:href="#DejaVuSans-20" x="7140.810547"/>
    <use xlink:href="#DejaVuSans-2a" x="7172.597656"/>
    <use xlink:href="#DejaVuSans-20" x="7222.597656"/>
    <use xlink:href="#DejaVuSans-4d" x="7254.384766"/>
    <use xlink:href="#DejaVuSans-61" x="7340.664062"/>
    <use xlink:href="#DejaVuSans-70" x="7401.943359"/>
    <use xlink:href="#DejaVuSans-20" x="7465.419922"/>
    <use xlink:href="#DejaVuSans-73" x="7497.207031"/>
    <use xlink:href="#DejaVuSans-65" x="7549.306641"/>
    <use xlink:href="#DejaVuSans-63" x="7610.830078"/>
    <use xlink:href="#DejaVuSans-74" x="7665.810547"/>
    <use xlink:href="#DejaVuSans-69" x="7705.019531"/>
    <use xlink:href="#DejaVuSans-6f" x="7732.802734"/>
    <use xlink:href="#DejaVuSans-6e" x="7793.984375"/>
    <use xlink:href="#DejaVuSans-2e" x="7857.363281"/>
    <use xlink:href="#DejaVuSans-20" x="7889.150391"/>
    <use xlink:href="#DejaVuSans-2020" x="7920.9375"/>
    <use xlink:href="#DejaVuSans-20" x="7970.9375"/>
    <use xlink:href="#DejaVuSans-44" x="8002.724609"/>
    <use xlink:href="#DejaVuSans-45" x="8079.726562"/>
    <use xlink:href="#DejaVuSans-4d" x="8142.910156"/>
    <use xlink:href="#DejaVuSans-20" x="8229.189453"/>
    <use xlink:href="#DejaVuSans-67" x="8260.976562"/>
    <use xlink:href="#DejaVuSans-61" x="8324.453125"/>
    <use xlink:href="#DejaVuSans-70" x="8385.732422"/>
    <use xlink:href="#DejaVuSans-3b" x="8449.208984"/>
    <use xlink:href="#DejaVuSans-20" x="8482.900391"/>
    <use xlink:href="#DejaVuSans-73" x="8514.6875"/>
    <use xlink:href="#DejaVuSans-65" x="8566.787109"/>
    <use xlink:href="#DejaVuSans-65" x="8628.310547"/>
    <use xlink:href="#DejaVuSans-20" x="8689.833984"/>
    <use xlink:href="#DejaVuSans-64" x="8721.621094"/>
    <use xlink:href="#DejaVuSans-61" x="8785.097656"/>
    <use xlink:href="#DejaVuSans-74" x="8846.376953"/>
    <use xlink:href="#DejaVuSans-61" x="8885.585938"/>
    <use xlink:href="#DejaVuSans-2e" x="8946.865234"/>
   </g>
  </g>
 </g>
 <defs>
  <clipPath id="p07a22ea634">
   <rect x="21.1248" y="20.7396" width="205.333056" height="212.13648"/>
  </clipPath>
  <clipPath id="p841020a8a1">
   <rect x="351.939168" y="20.7396" width="809.924832" height="212.13648"/>
  </clipPath>
  <clipPath id="p4df3e71d3c">
   <rect x="21.1248" y="338.94432" width="205.333056" height="212.13648"/>
  </clipPath>
  <clipPath id="p52a82b204c">
   <rect x="351.939168" y="338.94432" width="809.924832" height="212.13648"/>
  </clipPath>
 </defs>
</svg>
